G04*
G04 #@! TF.GenerationSoftware,Altium Limited,Altium Designer,25.1.2 (22)*
G04*
G04 Layer_Color=8388736*
%FSLAX44Y44*%
%MOMM*%
G71*
G04*
G04 #@! TF.SameCoordinates,85039238-F816-4201-8C18-7450F5A1B5F2*
G04*
G04*
G04 #@! TF.FilePolarity,Negative*
G04*
G01*
G75*
%ADD15R,0.5032X0.9332*%
%ADD16R,0.9332X0.5032*%
%ADD17R,0.6032X0.9032*%
%ADD18C,0.9906*%
%ADD19C,2.0828*%
%ADD20C,2.2032*%
%ADD21O,1.2032X2.0032*%
%ADD22C,1.1938*%
D15*
X255000Y194650D02*
D03*
X260000D02*
D03*
X265000D02*
D03*
X270000D02*
D03*
X275000D02*
D03*
Y155350D02*
D03*
X270000D02*
D03*
X265000D02*
D03*
X260000D02*
D03*
X255000D02*
D03*
D16*
X284650Y185000D02*
D03*
Y180000D02*
D03*
Y175000D02*
D03*
Y170000D02*
D03*
Y165000D02*
D03*
X245350D02*
D03*
Y170000D02*
D03*
Y175000D02*
D03*
Y180000D02*
D03*
Y185000D02*
D03*
D17*
X210500Y55000D02*
D03*
X219500D02*
D03*
X309500Y165000D02*
D03*
X300500D02*
D03*
X309500Y210000D02*
D03*
X300500D02*
D03*
Y195000D02*
D03*
X309500D02*
D03*
X300500Y180000D02*
D03*
X309500D02*
D03*
X274500Y210000D02*
D03*
X265500D02*
D03*
X245500D02*
D03*
X254500D02*
D03*
D18*
X222700Y170000D02*
D03*
X210000D02*
D03*
X222700Y182700D02*
D03*
X210000D02*
D03*
X222700Y195400D02*
D03*
X210000D02*
D03*
D19*
X315000Y14000D02*
D03*
Y39400D02*
D03*
Y64800D02*
D03*
Y90200D02*
D03*
Y115600D02*
D03*
Y141000D02*
D03*
D20*
X262700Y55000D02*
D03*
X237300D02*
D03*
D21*
X201000Y110000D02*
D03*
X254000D02*
D03*
X237000D02*
D03*
X220000D02*
D03*
D22*
X206190Y157300D02*
D03*
X226510D02*
D03*
X216350Y208100D02*
D03*
M02*
