G04*
G04 #@! TF.GenerationSoftware,Altium Limited,Altium Designer,25.1.2 (22)*
G04*
G04 Layer_Physical_Order=1*
G04 Layer_Color=255*
%FSLAX44Y44*%
%MOMM*%
G71*
G04*
G04 #@! TF.SameCoordinates,85039238-F816-4201-8C18-7450F5A1B5F2*
G04*
G04*
G04 #@! TF.FilePolarity,Positive*
G04*
G01*
G75*
%ADD10C,0.1000*%
%ADD12R,0.3000X0.7300*%
%ADD13R,0.7300X0.3000*%
%ADD14R,0.4000X0.7000*%
%ADD23C,0.7874*%
%ADD24C,0.4000*%
%ADD25C,1.8796*%
%ADD26C,2.0000*%
%ADD27O,1.0000X1.8000*%
%ADD28C,0.9906*%
%ADD29C,0.4000*%
D10*
X275000Y145000D02*
X279000Y141000D01*
X315000D01*
X270000Y150000D02*
X275000Y145000D01*
X265000Y150000D02*
X299400Y115600D01*
X315000D01*
X205000Y55000D02*
X210500D01*
X219500D02*
X237300D01*
X237500Y202500D02*
X245350Y194650D01*
X255000D01*
X309500Y195000D02*
Y210000D01*
Y180000D02*
X315000D01*
X309500Y165000D02*
X315000D01*
X295000Y210000D02*
X300500D01*
X309500Y195000D02*
X315000D01*
X233750Y176250D02*
X237500Y180000D01*
X216250Y176250D02*
X233750D01*
X237500Y180000D02*
X245350D01*
X235000Y185000D02*
X245350D01*
X232700Y182700D02*
X235000Y185000D01*
X222700Y182700D02*
X232700D01*
X210000Y170000D02*
X216250Y176250D01*
X232500Y210000D02*
X245500D01*
X225000Y217500D02*
X232500Y210000D01*
X210000Y217500D02*
X225000D01*
X205000Y212500D02*
X210000Y217500D01*
X205000Y200400D02*
Y212500D01*
Y200400D02*
X210000Y195400D01*
X204800Y177500D02*
X210000Y182700D01*
X222700Y195400D02*
X227300Y200000D01*
X247500Y202500D02*
X262500D01*
X245500Y204500D02*
X247500Y202500D01*
X245500Y204500D02*
Y210000D01*
X262500Y202500D02*
X265000Y200000D01*
Y194650D02*
Y200000D01*
X275000Y194650D02*
Y209500D01*
X260000Y210000D02*
X265500D01*
X254500D02*
X260000D01*
X265500Y204500D02*
X270000Y200000D01*
X265500Y204500D02*
Y210000D01*
X270000Y194650D02*
Y200000D01*
X274500Y210000D02*
X280000D01*
X300000Y180000D02*
X300500D01*
X290000Y170000D02*
X300000Y180000D01*
X284650Y170000D02*
X290000D01*
X292500Y187500D02*
Y190000D01*
X297500Y195000D02*
X300500D01*
X292500Y190000D02*
X297500Y195000D01*
X292500Y177500D02*
Y187500D01*
X290000Y185000D02*
X292500Y187500D01*
X284650Y185000D02*
X290000D01*
Y175000D02*
X292500Y177500D01*
X284650Y175000D02*
X290000D01*
X284650Y165000D02*
X300500D01*
X265000Y150000D02*
Y155350D01*
X275000Y145000D02*
Y155350D01*
X270000Y150000D02*
Y155350D01*
D12*
X255000Y194650D02*
D03*
X260000D02*
D03*
X265000D02*
D03*
X270000D02*
D03*
X275000D02*
D03*
Y155350D02*
D03*
X270000D02*
D03*
X265000D02*
D03*
X260000D02*
D03*
X255000D02*
D03*
D13*
X284650Y185000D02*
D03*
Y180000D02*
D03*
Y175000D02*
D03*
Y170000D02*
D03*
Y165000D02*
D03*
X245350D02*
D03*
Y170000D02*
D03*
Y175000D02*
D03*
Y180000D02*
D03*
Y185000D02*
D03*
D14*
X210500Y55000D02*
D03*
X219500D02*
D03*
X309500Y165000D02*
D03*
X300500D02*
D03*
X309500Y210000D02*
D03*
X300500D02*
D03*
Y195000D02*
D03*
X309500D02*
D03*
X300500Y180000D02*
D03*
X309500D02*
D03*
X274500Y210000D02*
D03*
X265500D02*
D03*
X245500D02*
D03*
X254500D02*
D03*
D23*
X222700Y170000D02*
D03*
X210000D02*
D03*
X222700Y182700D02*
D03*
X210000D02*
D03*
X222700Y195400D02*
D03*
X210000D02*
D03*
D24*
X300000Y29000D02*
Y47000D01*
Y29000D02*
X315000Y14000D01*
X237000Y110000D02*
X300000Y47000D01*
X237000Y110000D02*
Y169750D01*
D25*
X315000Y14000D02*
D03*
Y39400D02*
D03*
Y64800D02*
D03*
Y90200D02*
D03*
Y115600D02*
D03*
Y141000D02*
D03*
D26*
X262700Y55000D02*
D03*
X237300D02*
D03*
D27*
X201000Y110000D02*
D03*
X254000D02*
D03*
X237000D02*
D03*
X220000D02*
D03*
D28*
X206190Y157300D02*
D03*
X226510D02*
D03*
X216350Y208100D02*
D03*
D29*
X205000Y55000D02*
D03*
X237000Y169750D02*
D03*
X237500Y202500D02*
D03*
X315000Y180000D02*
D03*
Y165000D02*
D03*
Y195000D02*
D03*
X295000Y210000D02*
D03*
X204800Y177500D02*
D03*
X227300Y200000D02*
D03*
X280000Y210000D02*
D03*
X260000D02*
D03*
M02*
