G04*
G04 #@! TF.GenerationSoftware,Altium Limited,Altium Designer,25.1.2 (22)*
G04*
G04 Layer_Color=65535*
%FSLAX44Y44*%
%MOMM*%
G71*
G04*
G04 #@! TF.SameCoordinates,85039238-F816-4201-8C18-7450F5A1B5F2*
G04*
G04*
G04 #@! TF.FilePolarity,Positive*
G04*
G01*
G75*
%ADD10C,0.1000*%
%ADD11C,0.2000*%
G36*
X282446Y212631D02*
X282471D01*
X282504Y212628D01*
X282538D01*
X282619Y212617D01*
X282707Y212606D01*
X282810Y212587D01*
X282921Y212565D01*
X283039Y212536D01*
X283164Y212499D01*
X283289Y212455D01*
X283418Y212400D01*
X283543Y212337D01*
X283668Y212263D01*
X283786Y212178D01*
X283900Y212079D01*
X283904Y212075D01*
X283915Y212064D01*
X283933Y212046D01*
X283955Y212020D01*
X283985Y211987D01*
X284018Y211943D01*
X284055Y211895D01*
X284095Y211840D01*
X284136Y211777D01*
X284180Y211707D01*
X284224Y211630D01*
X284269Y211549D01*
X284309Y211457D01*
X284350Y211361D01*
X284390Y211254D01*
X284423Y211144D01*
X283403Y210900D01*
Y210904D01*
X283399Y210919D01*
X283392Y210937D01*
X283385Y210967D01*
X283374Y211000D01*
X283359Y211037D01*
X283340Y211081D01*
X283322Y211125D01*
X283270Y211225D01*
X283237Y211276D01*
X283204Y211328D01*
X283167Y211379D01*
X283123Y211431D01*
X283075Y211479D01*
X283024Y211523D01*
X283020Y211527D01*
X283013Y211534D01*
X282994Y211545D01*
X282972Y211560D01*
X282946Y211578D01*
X282913Y211597D01*
X282873Y211619D01*
X282832Y211641D01*
X282781Y211659D01*
X282729Y211681D01*
X282670Y211700D01*
X282611Y211718D01*
X282545Y211733D01*
X282475Y211744D01*
X282405Y211751D01*
X282328Y211755D01*
X282302D01*
X282272Y211751D01*
X282236Y211748D01*
X282188Y211744D01*
X282132Y211733D01*
X282070Y211722D01*
X282004Y211703D01*
X281930Y211681D01*
X281856Y211656D01*
X281779Y211622D01*
X281702Y211582D01*
X281628Y211534D01*
X281551Y211482D01*
X281481Y211420D01*
X281411Y211346D01*
X281407Y211343D01*
X281396Y211328D01*
X281377Y211302D01*
X281355Y211269D01*
X281330Y211225D01*
X281300Y211169D01*
X281267Y211107D01*
X281238Y211029D01*
X281204Y210945D01*
X281171Y210845D01*
X281142Y210739D01*
X281116Y210621D01*
X281094Y210488D01*
X281075Y210348D01*
X281064Y210193D01*
X281061Y210028D01*
Y210024D01*
Y210017D01*
Y210002D01*
Y209987D01*
Y209961D01*
X281064Y209936D01*
Y209906D01*
X281068Y209869D01*
X281072Y209792D01*
X281079Y209700D01*
X281090Y209600D01*
X281105Y209494D01*
X281123Y209383D01*
X281145Y209269D01*
X281175Y209155D01*
X281208Y209041D01*
X281245Y208934D01*
X281293Y208831D01*
X281344Y208739D01*
X281407Y208654D01*
X281411Y208650D01*
X281422Y208636D01*
X281444Y208617D01*
X281469Y208591D01*
X281503Y208558D01*
X281547Y208525D01*
X281595Y208488D01*
X281650Y208451D01*
X281713Y208411D01*
X281779Y208374D01*
X281852Y208341D01*
X281934Y208308D01*
X282018Y208282D01*
X282110Y208263D01*
X282206Y208249D01*
X282309Y208245D01*
X282350D01*
X282379Y208249D01*
X282412Y208252D01*
X282453Y208260D01*
X282501Y208267D01*
X282552Y208278D01*
X282604Y208289D01*
X282659Y208308D01*
X282718Y208330D01*
X282777Y208356D01*
X282840Y208385D01*
X282899Y208418D01*
X282957Y208459D01*
X283013Y208503D01*
X283016Y208507D01*
X283027Y208514D01*
X283042Y208532D01*
X283061Y208554D01*
X283086Y208580D01*
X283116Y208617D01*
X283145Y208658D01*
X283178Y208705D01*
X283212Y208757D01*
X283248Y208820D01*
X283285Y208886D01*
X283318Y208960D01*
X283351Y209044D01*
X283385Y209129D01*
X283414Y209225D01*
X283440Y209328D01*
X284438Y209011D01*
Y209007D01*
X284434Y209000D01*
X284431Y208989D01*
X284427Y208974D01*
X284420Y208956D01*
X284412Y208930D01*
X284394Y208875D01*
X284368Y208805D01*
X284335Y208724D01*
X284298Y208636D01*
X284254Y208543D01*
X284206Y208444D01*
X284151Y208341D01*
X284088Y208238D01*
X284018Y208135D01*
X283941Y208035D01*
X283860Y207939D01*
X283768Y207851D01*
X283672Y207770D01*
X283665Y207766D01*
X283646Y207752D01*
X283617Y207733D01*
X283576Y207707D01*
X283525Y207678D01*
X283462Y207641D01*
X283388Y207604D01*
X283304Y207567D01*
X283212Y207531D01*
X283109Y207494D01*
X282998Y207461D01*
X282876Y207427D01*
X282751Y207402D01*
X282615Y207383D01*
X282471Y207369D01*
X282320Y207365D01*
X282276D01*
X282250Y207369D01*
X282221D01*
X282188Y207372D01*
X282151Y207376D01*
X282110Y207380D01*
X282066Y207387D01*
X281963Y207402D01*
X281852Y207424D01*
X281731Y207453D01*
X281602Y207486D01*
X281466Y207534D01*
X281330Y207589D01*
X281186Y207656D01*
X281050Y207737D01*
X280910Y207829D01*
X280843Y207880D01*
X280777Y207936D01*
X280714Y207995D01*
X280652Y208057D01*
Y208061D01*
X280644Y208065D01*
X280637Y208076D01*
X280622Y208090D01*
X280608Y208109D01*
X280593Y208131D01*
X280571Y208157D01*
X280549Y208186D01*
X280527Y208219D01*
X280501Y208256D01*
X280475Y208297D01*
X280446Y208341D01*
X280387Y208440D01*
X280328Y208554D01*
X280265Y208683D01*
X280206Y208823D01*
X280151Y208982D01*
X280103Y209151D01*
X280059Y209332D01*
X280030Y209527D01*
X280007Y209733D01*
X280004Y209844D01*
X280000Y209954D01*
Y209958D01*
Y209969D01*
Y209987D01*
Y210009D01*
X280004Y210039D01*
Y210075D01*
X280007Y210116D01*
X280011Y210164D01*
X280015Y210215D01*
X280018Y210271D01*
X280026Y210330D01*
X280033Y210392D01*
X280055Y210529D01*
X280081Y210676D01*
X280118Y210834D01*
X280158Y210996D01*
X280214Y211158D01*
X280276Y211324D01*
X280354Y211486D01*
X280438Y211641D01*
X280541Y211792D01*
X280597Y211862D01*
X280656Y211928D01*
X280659Y211932D01*
X280663Y211935D01*
X280674Y211947D01*
X280685Y211957D01*
X280722Y211994D01*
X280773Y212039D01*
X280840Y212094D01*
X280921Y212153D01*
X281013Y212215D01*
X281116Y212282D01*
X281234Y212348D01*
X281366Y212411D01*
X281506Y212473D01*
X281661Y212525D01*
X281827Y212569D01*
X282000Y212606D01*
X282188Y212628D01*
X282283Y212631D01*
X282383Y212635D01*
X282423D01*
X282446Y212631D01*
D02*
G37*
G36*
X287605Y207453D02*
X286629D01*
Y211133D01*
X286622Y211125D01*
X286604Y211110D01*
X286574Y211085D01*
X286534Y211052D01*
X286482Y211011D01*
X286420Y210963D01*
X286350Y210908D01*
X286269Y210853D01*
X286180Y210794D01*
X286084Y210731D01*
X285981Y210669D01*
X285871Y210610D01*
X285753Y210551D01*
X285628Y210492D01*
X285499Y210440D01*
X285366Y210392D01*
Y211280D01*
X285370D01*
X285385Y211287D01*
X285403Y211295D01*
X285432Y211306D01*
X285469Y211320D01*
X285510Y211335D01*
X285558Y211357D01*
X285613Y211383D01*
X285672Y211416D01*
X285734Y211449D01*
X285804Y211486D01*
X285874Y211530D01*
X285952Y211578D01*
X286029Y211630D01*
X286110Y211689D01*
X286195Y211751D01*
X286199Y211755D01*
X286213Y211766D01*
X286239Y211788D01*
X286269Y211814D01*
X286305Y211847D01*
X286346Y211888D01*
X286390Y211932D01*
X286442Y211983D01*
X286489Y212042D01*
X286541Y212105D01*
X286593Y212171D01*
X286644Y212245D01*
X286692Y212318D01*
X286736Y212400D01*
X286777Y212484D01*
X286810Y212569D01*
X287605D01*
Y207453D01*
D02*
G37*
G36*
X299752Y68430D02*
X299787D01*
X299833Y68425D01*
X299879D01*
X299991Y68409D01*
X300112Y68394D01*
X300255Y68369D01*
X300407Y68338D01*
X300570Y68298D01*
X300742Y68247D01*
X300915Y68186D01*
X301093Y68110D01*
X301266Y68023D01*
X301438Y67922D01*
X301601Y67805D01*
X301758Y67668D01*
X301763Y67663D01*
X301779Y67647D01*
X301804Y67622D01*
X301835Y67586D01*
X301875Y67541D01*
X301921Y67480D01*
X301972Y67414D01*
X302028Y67337D01*
X302083Y67251D01*
X302144Y67155D01*
X302205Y67048D01*
X302266Y66936D01*
X302322Y66809D01*
X302378Y66677D01*
X302434Y66530D01*
X302480Y66377D01*
X301073Y66042D01*
Y66047D01*
X301067Y66068D01*
X301057Y66093D01*
X301047Y66133D01*
X301032Y66179D01*
X301012Y66230D01*
X300986Y66291D01*
X300961Y66352D01*
X300890Y66489D01*
X300844Y66560D01*
X300798Y66631D01*
X300747Y66702D01*
X300686Y66774D01*
X300620Y66840D01*
X300549Y66901D01*
X300544Y66906D01*
X300534Y66916D01*
X300509Y66931D01*
X300478Y66951D01*
X300443Y66977D01*
X300397Y67002D01*
X300341Y67033D01*
X300285Y67063D01*
X300214Y67088D01*
X300143Y67119D01*
X300062Y67144D01*
X299980Y67170D01*
X299889Y67190D01*
X299792Y67205D01*
X299696Y67215D01*
X299589Y67221D01*
X299554D01*
X299513Y67215D01*
X299462Y67210D01*
X299396Y67205D01*
X299320Y67190D01*
X299234Y67175D01*
X299142Y67150D01*
X299041Y67119D01*
X298939Y67084D01*
X298832Y67038D01*
X298726Y66982D01*
X298624Y66916D01*
X298517Y66845D01*
X298421Y66758D01*
X298324Y66657D01*
X298319Y66652D01*
X298304Y66631D01*
X298279Y66596D01*
X298248Y66550D01*
X298213Y66489D01*
X298172Y66413D01*
X298126Y66326D01*
X298085Y66220D01*
X298040Y66103D01*
X297994Y65966D01*
X297953Y65819D01*
X297918Y65656D01*
X297887Y65473D01*
X297862Y65280D01*
X297847Y65067D01*
X297842Y64838D01*
Y64833D01*
Y64823D01*
Y64802D01*
Y64782D01*
Y64747D01*
X297847Y64711D01*
Y64671D01*
X297852Y64620D01*
X297857Y64513D01*
X297867Y64386D01*
X297882Y64249D01*
X297903Y64102D01*
X297928Y63949D01*
X297959Y63792D01*
X297999Y63634D01*
X298045Y63477D01*
X298096Y63329D01*
X298162Y63187D01*
X298233Y63060D01*
X298319Y62943D01*
X298324Y62938D01*
X298340Y62918D01*
X298370Y62892D01*
X298405Y62857D01*
X298451Y62811D01*
X298512Y62765D01*
X298578Y62715D01*
X298654Y62664D01*
X298741Y62608D01*
X298832Y62557D01*
X298934Y62512D01*
X299046Y62466D01*
X299162Y62430D01*
X299289Y62405D01*
X299422Y62385D01*
X299564Y62379D01*
X299620D01*
X299660Y62385D01*
X299706Y62389D01*
X299762Y62400D01*
X299828Y62410D01*
X299899Y62425D01*
X299970Y62440D01*
X300046Y62466D01*
X300128Y62496D01*
X300209Y62532D01*
X300295Y62572D01*
X300377Y62618D01*
X300458Y62674D01*
X300534Y62735D01*
X300539Y62740D01*
X300554Y62750D01*
X300575Y62776D01*
X300600Y62806D01*
X300636Y62842D01*
X300676Y62892D01*
X300717Y62948D01*
X300763Y63014D01*
X300808Y63085D01*
X300859Y63172D01*
X300910Y63263D01*
X300956Y63365D01*
X301001Y63482D01*
X301047Y63599D01*
X301088Y63731D01*
X301123Y63873D01*
X302500Y63436D01*
Y63431D01*
X302495Y63421D01*
X302490Y63405D01*
X302485Y63385D01*
X302475Y63360D01*
X302464Y63324D01*
X302439Y63248D01*
X302404Y63151D01*
X302358Y63040D01*
X302307Y62918D01*
X302246Y62791D01*
X302180Y62654D01*
X302104Y62512D01*
X302017Y62369D01*
X301921Y62227D01*
X301814Y62090D01*
X301702Y61958D01*
X301575Y61836D01*
X301443Y61724D01*
X301433Y61719D01*
X301408Y61699D01*
X301367Y61673D01*
X301311Y61638D01*
X301240Y61597D01*
X301154Y61546D01*
X301052Y61495D01*
X300935Y61445D01*
X300808Y61394D01*
X300666Y61343D01*
X300514Y61297D01*
X300346Y61252D01*
X300173Y61216D01*
X299985Y61191D01*
X299787Y61170D01*
X299579Y61165D01*
X299518D01*
X299482Y61170D01*
X299442D01*
X299396Y61175D01*
X299345Y61181D01*
X299289Y61186D01*
X299228Y61196D01*
X299086Y61216D01*
X298934Y61247D01*
X298766Y61287D01*
X298588Y61333D01*
X298400Y61399D01*
X298213Y61475D01*
X298014Y61567D01*
X297826Y61678D01*
X297633Y61805D01*
X297542Y61877D01*
X297451Y61953D01*
X297364Y62034D01*
X297278Y62120D01*
Y62125D01*
X297268Y62130D01*
X297257Y62146D01*
X297237Y62166D01*
X297217Y62191D01*
X297197Y62222D01*
X297166Y62257D01*
X297136Y62298D01*
X297105Y62344D01*
X297069Y62395D01*
X297034Y62450D01*
X296993Y62512D01*
X296912Y62649D01*
X296831Y62806D01*
X296744Y62984D01*
X296663Y63177D01*
X296587Y63395D01*
X296521Y63629D01*
X296460Y63878D01*
X296419Y64147D01*
X296389Y64432D01*
X296384Y64584D01*
X296379Y64736D01*
Y64742D01*
Y64757D01*
Y64782D01*
Y64813D01*
X296384Y64853D01*
Y64904D01*
X296389Y64960D01*
X296394Y65026D01*
X296399Y65097D01*
X296404Y65173D01*
X296414Y65255D01*
X296424Y65341D01*
X296455Y65529D01*
X296490Y65732D01*
X296541Y65951D01*
X296597Y66174D01*
X296673Y66398D01*
X296760Y66626D01*
X296866Y66850D01*
X296983Y67063D01*
X297125Y67271D01*
X297202Y67368D01*
X297283Y67459D01*
X297288Y67464D01*
X297293Y67470D01*
X297308Y67485D01*
X297323Y67500D01*
X297374Y67551D01*
X297445Y67612D01*
X297537Y67688D01*
X297649Y67769D01*
X297776Y67856D01*
X297918Y67947D01*
X298080Y68039D01*
X298263Y68125D01*
X298456Y68211D01*
X298670Y68282D01*
X298898Y68343D01*
X299137Y68394D01*
X299396Y68425D01*
X299528Y68430D01*
X299665Y68435D01*
X299721D01*
X299752Y68430D01*
D02*
G37*
G36*
X292396Y61287D02*
X290973D01*
X288134Y65890D01*
Y61287D01*
X286818D01*
Y68318D01*
X288195D01*
X291080Y63609D01*
Y68318D01*
X292396D01*
Y61287D01*
D02*
G37*
G36*
X294159Y61165D02*
X293163D01*
X294905Y68435D01*
X295921D01*
X294159Y61165D01*
D02*
G37*
G36*
X299752Y93830D02*
X299787D01*
X299833Y93825D01*
X299879D01*
X299991Y93809D01*
X300112Y93794D01*
X300255Y93769D01*
X300407Y93738D01*
X300570Y93698D01*
X300742Y93647D01*
X300915Y93586D01*
X301093Y93510D01*
X301266Y93423D01*
X301438Y93322D01*
X301601Y93205D01*
X301758Y93068D01*
X301763Y93063D01*
X301779Y93047D01*
X301804Y93022D01*
X301835Y92986D01*
X301875Y92941D01*
X301921Y92880D01*
X301972Y92814D01*
X302028Y92738D01*
X302083Y92651D01*
X302144Y92555D01*
X302205Y92448D01*
X302266Y92336D01*
X302322Y92209D01*
X302378Y92077D01*
X302434Y91930D01*
X302480Y91777D01*
X301073Y91442D01*
Y91447D01*
X301067Y91468D01*
X301057Y91493D01*
X301047Y91533D01*
X301032Y91579D01*
X301012Y91630D01*
X300986Y91691D01*
X300961Y91752D01*
X300890Y91889D01*
X300844Y91960D01*
X300798Y92031D01*
X300747Y92102D01*
X300686Y92174D01*
X300620Y92240D01*
X300549Y92301D01*
X300544Y92306D01*
X300534Y92316D01*
X300509Y92331D01*
X300478Y92351D01*
X300443Y92377D01*
X300397Y92402D01*
X300341Y92433D01*
X300285Y92463D01*
X300214Y92488D01*
X300143Y92519D01*
X300062Y92544D01*
X299980Y92570D01*
X299889Y92590D01*
X299792Y92605D01*
X299696Y92615D01*
X299589Y92621D01*
X299554D01*
X299513Y92615D01*
X299462Y92611D01*
X299396Y92605D01*
X299320Y92590D01*
X299234Y92575D01*
X299142Y92549D01*
X299041Y92519D01*
X298939Y92484D01*
X298832Y92438D01*
X298726Y92382D01*
X298624Y92316D01*
X298517Y92245D01*
X298421Y92158D01*
X298324Y92057D01*
X298319Y92052D01*
X298304Y92031D01*
X298279Y91996D01*
X298248Y91950D01*
X298213Y91889D01*
X298172Y91813D01*
X298126Y91727D01*
X298085Y91620D01*
X298040Y91503D01*
X297994Y91366D01*
X297953Y91219D01*
X297918Y91056D01*
X297887Y90873D01*
X297862Y90680D01*
X297847Y90467D01*
X297842Y90238D01*
Y90233D01*
Y90223D01*
Y90203D01*
Y90182D01*
Y90147D01*
X297847Y90111D01*
Y90070D01*
X297852Y90020D01*
X297857Y89913D01*
X297867Y89786D01*
X297882Y89649D01*
X297903Y89501D01*
X297928Y89349D01*
X297959Y89192D01*
X297999Y89034D01*
X298045Y88877D01*
X298096Y88729D01*
X298162Y88587D01*
X298233Y88460D01*
X298319Y88343D01*
X298324Y88338D01*
X298340Y88318D01*
X298370Y88293D01*
X298405Y88257D01*
X298451Y88211D01*
X298512Y88166D01*
X298578Y88115D01*
X298654Y88064D01*
X298741Y88008D01*
X298832Y87957D01*
X298934Y87912D01*
X299046Y87866D01*
X299162Y87830D01*
X299289Y87805D01*
X299422Y87785D01*
X299564Y87779D01*
X299620D01*
X299660Y87785D01*
X299706Y87789D01*
X299762Y87800D01*
X299828Y87810D01*
X299899Y87825D01*
X299970Y87840D01*
X300046Y87866D01*
X300128Y87896D01*
X300209Y87932D01*
X300295Y87972D01*
X300377Y88018D01*
X300458Y88074D01*
X300534Y88135D01*
X300539Y88140D01*
X300554Y88150D01*
X300575Y88176D01*
X300600Y88206D01*
X300636Y88242D01*
X300676Y88293D01*
X300717Y88348D01*
X300763Y88414D01*
X300808Y88485D01*
X300859Y88572D01*
X300910Y88663D01*
X300956Y88765D01*
X301001Y88882D01*
X301047Y88999D01*
X301088Y89131D01*
X301123Y89273D01*
X302500Y88836D01*
Y88831D01*
X302495Y88821D01*
X302490Y88806D01*
X302485Y88785D01*
X302475Y88760D01*
X302464Y88724D01*
X302439Y88648D01*
X302404Y88552D01*
X302358Y88440D01*
X302307Y88318D01*
X302246Y88191D01*
X302180Y88054D01*
X302104Y87912D01*
X302017Y87769D01*
X301921Y87627D01*
X301814Y87490D01*
X301702Y87358D01*
X301575Y87236D01*
X301443Y87124D01*
X301433Y87119D01*
X301408Y87099D01*
X301367Y87073D01*
X301311Y87038D01*
X301240Y86997D01*
X301154Y86946D01*
X301052Y86896D01*
X300935Y86845D01*
X300808Y86794D01*
X300666Y86743D01*
X300514Y86697D01*
X300346Y86652D01*
X300173Y86616D01*
X299985Y86591D01*
X299787Y86570D01*
X299579Y86565D01*
X299518D01*
X299482Y86570D01*
X299442D01*
X299396Y86575D01*
X299345Y86580D01*
X299289Y86586D01*
X299228Y86596D01*
X299086Y86616D01*
X298934Y86646D01*
X298766Y86687D01*
X298588Y86733D01*
X298400Y86799D01*
X298213Y86875D01*
X298014Y86967D01*
X297826Y87078D01*
X297633Y87205D01*
X297542Y87276D01*
X297451Y87353D01*
X297364Y87434D01*
X297278Y87520D01*
Y87525D01*
X297268Y87530D01*
X297257Y87546D01*
X297237Y87566D01*
X297217Y87591D01*
X297197Y87622D01*
X297166Y87657D01*
X297136Y87698D01*
X297105Y87744D01*
X297069Y87795D01*
X297034Y87851D01*
X296993Y87912D01*
X296912Y88049D01*
X296831Y88206D01*
X296744Y88384D01*
X296663Y88577D01*
X296587Y88795D01*
X296521Y89029D01*
X296460Y89278D01*
X296419Y89547D01*
X296389Y89832D01*
X296384Y89984D01*
X296379Y90136D01*
Y90142D01*
Y90157D01*
Y90182D01*
Y90213D01*
X296384Y90253D01*
Y90304D01*
X296389Y90360D01*
X296394Y90426D01*
X296399Y90497D01*
X296404Y90573D01*
X296414Y90655D01*
X296424Y90741D01*
X296455Y90929D01*
X296490Y91132D01*
X296541Y91351D01*
X296597Y91574D01*
X296673Y91798D01*
X296760Y92026D01*
X296866Y92250D01*
X296983Y92463D01*
X297125Y92671D01*
X297202Y92768D01*
X297283Y92859D01*
X297288Y92865D01*
X297293Y92870D01*
X297308Y92885D01*
X297323Y92900D01*
X297374Y92951D01*
X297445Y93012D01*
X297537Y93088D01*
X297649Y93169D01*
X297776Y93256D01*
X297918Y93347D01*
X298080Y93439D01*
X298263Y93525D01*
X298456Y93611D01*
X298670Y93682D01*
X298898Y93743D01*
X299137Y93794D01*
X299396Y93825D01*
X299528Y93830D01*
X299665Y93835D01*
X299721D01*
X299752Y93830D01*
D02*
G37*
G36*
X292396Y86687D02*
X290973D01*
X288134Y91290D01*
Y86687D01*
X286818D01*
Y93718D01*
X288195D01*
X291080Y89009D01*
Y93718D01*
X292396D01*
Y86687D01*
D02*
G37*
G36*
X294159Y86565D02*
X293163D01*
X294905Y93835D01*
X295921D01*
X294159Y86565D01*
D02*
G37*
G36*
X300077Y115747D02*
X302500Y112085D01*
X300793D01*
X299234Y114462D01*
X297669Y112085D01*
X295967D01*
X298400Y115742D01*
X296191Y119115D01*
X297852D01*
X299244Y117007D01*
X300641Y119115D01*
X302287D01*
X300077Y115747D01*
D02*
G37*
G36*
X292762Y119110D02*
X292858D01*
X292965Y119105D01*
X293082Y119100D01*
X293209Y119090D01*
X293341Y119080D01*
X293473Y119070D01*
X293747Y119034D01*
X293874Y119014D01*
X293996Y118988D01*
X294113Y118958D01*
X294214Y118922D01*
X294220D01*
X294235Y118912D01*
X294265Y118902D01*
X294301Y118887D01*
X294342Y118866D01*
X294392Y118836D01*
X294448Y118806D01*
X294509Y118770D01*
X294575Y118724D01*
X294641Y118673D01*
X294707Y118617D01*
X294778Y118557D01*
X294844Y118490D01*
X294911Y118414D01*
X294971Y118333D01*
X295032Y118247D01*
X295037Y118242D01*
X295048Y118226D01*
X295063Y118196D01*
X295083Y118160D01*
X295103Y118115D01*
X295129Y118064D01*
X295159Y117998D01*
X295190Y117927D01*
X295215Y117850D01*
X295246Y117764D01*
X295271Y117673D01*
X295297Y117576D01*
X295312Y117474D01*
X295327Y117368D01*
X295337Y117261D01*
X295342Y117144D01*
Y117134D01*
Y117109D01*
X295337Y117068D01*
Y117012D01*
X295327Y116946D01*
X295317Y116865D01*
X295302Y116779D01*
X295286Y116682D01*
X295261Y116580D01*
X295231Y116474D01*
X295190Y116367D01*
X295144Y116255D01*
X295093Y116149D01*
X295027Y116037D01*
X294956Y115935D01*
X294875Y115834D01*
X294870Y115829D01*
X294855Y115813D01*
X294824Y115788D01*
X294789Y115752D01*
X294738Y115712D01*
X294682Y115666D01*
X294611Y115615D01*
X294529Y115559D01*
X294433Y115504D01*
X294331Y115453D01*
X294220Y115397D01*
X294093Y115346D01*
X293955Y115295D01*
X293808Y115255D01*
X293651Y115219D01*
X293483Y115189D01*
X293488Y115183D01*
X293503Y115178D01*
X293529Y115163D01*
X293559Y115143D01*
X293600Y115117D01*
X293646Y115087D01*
X293696Y115051D01*
X293752Y115016D01*
X293874Y114924D01*
X294001Y114823D01*
X294128Y114711D01*
X294245Y114594D01*
X294250Y114589D01*
X294260Y114579D01*
X294275Y114559D01*
X294301Y114533D01*
X294331Y114498D01*
X294367Y114452D01*
X294408Y114396D01*
X294458Y114330D01*
X294514Y114259D01*
X294575Y114178D01*
X294641Y114081D01*
X294712Y113980D01*
X294789Y113863D01*
X294870Y113741D01*
X294961Y113604D01*
X295053Y113456D01*
X295911Y112085D01*
X294209D01*
X293188Y113614D01*
X293183Y113624D01*
X293163Y113649D01*
X293138Y113690D01*
X293102Y113746D01*
X293056Y113812D01*
X293006Y113883D01*
X292950Y113964D01*
X292889Y114051D01*
X292762Y114223D01*
X292701Y114310D01*
X292640Y114396D01*
X292584Y114472D01*
X292528Y114538D01*
X292477Y114599D01*
X292437Y114645D01*
X292426Y114655D01*
X292401Y114681D01*
X292360Y114716D01*
X292309Y114762D01*
X292243Y114813D01*
X292172Y114858D01*
X292096Y114904D01*
X292010Y114940D01*
X292000Y114945D01*
X291984Y114950D01*
X291969Y114955D01*
X291944Y114960D01*
X291913Y114965D01*
X291878Y114975D01*
X291837Y114980D01*
X291791Y114990D01*
X291741Y114995D01*
X291680Y115001D01*
X291614Y115011D01*
X291548Y115016D01*
X291471D01*
X291385Y115021D01*
X291014D01*
Y112085D01*
X289597D01*
Y119115D01*
X292685D01*
X292762Y119110D01*
D02*
G37*
G36*
X300077Y141147D02*
X302500Y137485D01*
X300793D01*
X299234Y139862D01*
X297669Y137485D01*
X295967D01*
X298400Y141142D01*
X296191Y144515D01*
X297852D01*
X299244Y142407D01*
X300641Y144515D01*
X302287D01*
X300077Y141147D01*
D02*
G37*
G36*
X295774Y143327D02*
X293691D01*
Y137485D01*
X292274D01*
Y143327D01*
X290186D01*
Y144515D01*
X295774D01*
Y143327D01*
D02*
G37*
G36*
X285253Y43030D02*
X285294D01*
X285340Y43025D01*
X285452Y43019D01*
X285578Y43004D01*
X285721Y42989D01*
X285873Y42964D01*
X286031Y42938D01*
X286198Y42898D01*
X286371Y42857D01*
X286539Y42801D01*
X286706Y42740D01*
X286869Y42664D01*
X287026Y42578D01*
X287169Y42481D01*
X287179Y42476D01*
X287199Y42456D01*
X287240Y42425D01*
X287285Y42379D01*
X287346Y42323D01*
X287412Y42257D01*
X287489Y42176D01*
X287565Y42085D01*
X287646Y41983D01*
X287722Y41871D01*
X287804Y41744D01*
X287880Y41612D01*
X287951Y41465D01*
X288017Y41308D01*
X288073Y41145D01*
X288118Y40967D01*
X286711Y40703D01*
Y40708D01*
X286706Y40723D01*
X286696Y40754D01*
X286681Y40789D01*
X286666Y40830D01*
X286640Y40881D01*
X286615Y40937D01*
X286584Y40998D01*
X286549Y41059D01*
X286508Y41125D01*
X286462Y41196D01*
X286412Y41262D01*
X286351Y41328D01*
X286290Y41394D01*
X286224Y41460D01*
X286147Y41516D01*
X286142Y41521D01*
X286127Y41531D01*
X286107Y41546D01*
X286076Y41561D01*
X286036Y41587D01*
X285985Y41612D01*
X285929Y41638D01*
X285868Y41668D01*
X285797Y41699D01*
X285721Y41724D01*
X285634Y41750D01*
X285543Y41775D01*
X285452Y41790D01*
X285345Y41805D01*
X285238Y41816D01*
X285126Y41821D01*
X285086D01*
X285035Y41816D01*
X284974Y41810D01*
X284893Y41800D01*
X284801Y41790D01*
X284705Y41770D01*
X284593Y41744D01*
X284476Y41714D01*
X284359Y41673D01*
X284232Y41628D01*
X284110Y41572D01*
X283988Y41501D01*
X283872Y41424D01*
X283755Y41333D01*
X283648Y41226D01*
X283643Y41221D01*
X283623Y41201D01*
X283597Y41165D01*
X283562Y41115D01*
X283521Y41054D01*
X283475Y40977D01*
X283425Y40891D01*
X283374Y40789D01*
X283323Y40672D01*
X283272Y40540D01*
X283227Y40398D01*
X283186Y40241D01*
X283150Y40068D01*
X283125Y39885D01*
X283105Y39687D01*
X283099Y39479D01*
Y39474D01*
Y39464D01*
Y39448D01*
Y39423D01*
Y39392D01*
X283105Y39362D01*
Y39321D01*
X283110Y39276D01*
X283115Y39169D01*
X283130Y39052D01*
X283145Y38920D01*
X283171Y38778D01*
X283196Y38625D01*
X283237Y38473D01*
X283277Y38315D01*
X283333Y38163D01*
X283394Y38011D01*
X283470Y37863D01*
X283557Y37726D01*
X283653Y37604D01*
X283658Y37599D01*
X283679Y37579D01*
X283709Y37548D01*
X283755Y37508D01*
X283811Y37462D01*
X283877Y37406D01*
X283958Y37350D01*
X284044Y37294D01*
X284146Y37233D01*
X284253Y37178D01*
X284375Y37127D01*
X284507Y37076D01*
X284644Y37035D01*
X284791Y37005D01*
X284949Y36985D01*
X285111Y36979D01*
X285157D01*
X285187Y36985D01*
X285228D01*
X285279Y36990D01*
X285330Y36995D01*
X285391Y37000D01*
X285457Y37010D01*
X285528Y37020D01*
X285675Y37050D01*
X285838Y37096D01*
X286005Y37152D01*
X286010D01*
X286026Y37162D01*
X286051Y37167D01*
X286081Y37183D01*
X286117Y37198D01*
X286163Y37218D01*
X286213Y37243D01*
X286269Y37269D01*
X286391Y37330D01*
X286518Y37401D01*
X286650Y37482D01*
X286777Y37574D01*
Y38468D01*
X285152D01*
Y39657D01*
X288210D01*
Y36852D01*
X288205Y36847D01*
X288190Y36832D01*
X288164Y36812D01*
X288129Y36781D01*
X288083Y36741D01*
X288022Y36700D01*
X287956Y36649D01*
X287880Y36593D01*
X287793Y36537D01*
X287697Y36477D01*
X287590Y36416D01*
X287473Y36349D01*
X287351Y36283D01*
X287214Y36217D01*
X287067Y36151D01*
X286915Y36090D01*
X286904Y36085D01*
X286879Y36075D01*
X286833Y36060D01*
X286767Y36040D01*
X286691Y36014D01*
X286600Y35989D01*
X286498Y35958D01*
X286386Y35928D01*
X286259Y35897D01*
X286127Y35867D01*
X285985Y35842D01*
X285838Y35816D01*
X285685Y35796D01*
X285528Y35780D01*
X285365Y35770D01*
X285203Y35765D01*
X285126D01*
X285096Y35770D01*
X285020D01*
X284923Y35780D01*
X284811Y35791D01*
X284684Y35806D01*
X284547Y35821D01*
X284400Y35847D01*
X284248Y35877D01*
X284090Y35918D01*
X283927Y35958D01*
X283760Y36014D01*
X283597Y36075D01*
X283435Y36146D01*
X283277Y36228D01*
X283267Y36233D01*
X283242Y36248D01*
X283201Y36278D01*
X283145Y36314D01*
X283074Y36360D01*
X282998Y36421D01*
X282911Y36487D01*
X282815Y36568D01*
X282719Y36654D01*
X282617Y36751D01*
X282515Y36862D01*
X282414Y36979D01*
X282312Y37106D01*
X282221Y37243D01*
X282129Y37391D01*
X282048Y37548D01*
X282043Y37559D01*
X282033Y37589D01*
X282012Y37635D01*
X281982Y37701D01*
X281951Y37782D01*
X281916Y37873D01*
X281880Y37985D01*
X281845Y38107D01*
X281804Y38239D01*
X281768Y38386D01*
X281733Y38539D01*
X281702Y38702D01*
X281677Y38874D01*
X281657Y39052D01*
X281642Y39235D01*
X281636Y39423D01*
Y39428D01*
Y39433D01*
Y39453D01*
Y39474D01*
Y39499D01*
X281642Y39530D01*
Y39606D01*
X281652Y39702D01*
X281662Y39814D01*
X281677Y39941D01*
X281692Y40078D01*
X281718Y40226D01*
X281748Y40383D01*
X281784Y40546D01*
X281829Y40708D01*
X281880Y40876D01*
X281941Y41043D01*
X282012Y41211D01*
X282094Y41374D01*
X282099Y41384D01*
X282114Y41409D01*
X282144Y41455D01*
X282180Y41516D01*
X282226Y41587D01*
X282287Y41668D01*
X282358Y41760D01*
X282434Y41856D01*
X282525Y41963D01*
X282627Y42070D01*
X282734Y42176D01*
X282856Y42288D01*
X282988Y42395D01*
X283130Y42496D01*
X283277Y42593D01*
X283440Y42684D01*
X283450Y42689D01*
X283470Y42699D01*
X283511Y42715D01*
X283562Y42740D01*
X283628Y42765D01*
X283709Y42796D01*
X283801Y42826D01*
X283902Y42862D01*
X284019Y42892D01*
X284151Y42923D01*
X284288Y42954D01*
X284436Y42979D01*
X284593Y43004D01*
X284766Y43019D01*
X284944Y43030D01*
X285126Y43035D01*
X285213D01*
X285253Y43030D01*
D02*
G37*
G36*
X295109Y35887D02*
X293686D01*
X290847Y40490D01*
Y35887D01*
X289531D01*
Y42918D01*
X290907D01*
X293793Y38209D01*
Y42918D01*
X295109D01*
Y35887D01*
D02*
G37*
G36*
X299416Y42913D02*
X299503D01*
X299594Y42908D01*
X299696Y42903D01*
X299802Y42892D01*
X299909Y42882D01*
X300133Y42862D01*
X300239Y42847D01*
X300346Y42826D01*
X300443Y42806D01*
X300534Y42781D01*
X300539D01*
X300559Y42771D01*
X300595Y42760D01*
X300636Y42745D01*
X300692Y42725D01*
X300753Y42699D01*
X300824Y42669D01*
X300900Y42633D01*
X300981Y42588D01*
X301067Y42542D01*
X301154Y42486D01*
X301245Y42430D01*
X301332Y42364D01*
X301423Y42293D01*
X301509Y42217D01*
X301596Y42130D01*
X301601Y42125D01*
X301616Y42110D01*
X301636Y42085D01*
X301667Y42049D01*
X301707Y42003D01*
X301748Y41948D01*
X301794Y41887D01*
X301845Y41816D01*
X301901Y41734D01*
X301951Y41648D01*
X302007Y41557D01*
X302063Y41455D01*
X302119Y41348D01*
X302170Y41236D01*
X302221Y41115D01*
X302266Y40993D01*
X302271Y40988D01*
X302276Y40962D01*
X302287Y40926D01*
X302302Y40871D01*
X302322Y40805D01*
X302342Y40728D01*
X302363Y40637D01*
X302383Y40535D01*
X302404Y40419D01*
X302424Y40292D01*
X302444Y40154D01*
X302464Y40007D01*
X302480Y39855D01*
X302490Y39687D01*
X302500Y39514D01*
Y39331D01*
Y39321D01*
Y39291D01*
Y39245D01*
X302495Y39184D01*
Y39113D01*
X302490Y39021D01*
X302480Y38925D01*
X302475Y38818D01*
X302459Y38707D01*
X302449Y38585D01*
X302409Y38336D01*
X302353Y38082D01*
X302322Y37960D01*
X302282Y37838D01*
X302276Y37828D01*
X302271Y37802D01*
X302256Y37762D01*
X302231Y37711D01*
X302205Y37645D01*
X302175Y37569D01*
X302134Y37487D01*
X302089Y37396D01*
X302038Y37299D01*
X301982Y37198D01*
X301921Y37096D01*
X301855Y36990D01*
X301779Y36888D01*
X301702Y36786D01*
X301621Y36685D01*
X301530Y36593D01*
X301525Y36588D01*
X301514Y36578D01*
X301489Y36558D01*
X301464Y36532D01*
X301423Y36502D01*
X301377Y36471D01*
X301327Y36431D01*
X301266Y36390D01*
X301199Y36344D01*
X301123Y36299D01*
X301042Y36253D01*
X300956Y36207D01*
X300859Y36161D01*
X300758Y36116D01*
X300651Y36075D01*
X300534Y36035D01*
X300529D01*
X300514Y36029D01*
X300483Y36019D01*
X300448Y36014D01*
X300402Y35999D01*
X300341Y35989D01*
X300275Y35973D01*
X300199Y35963D01*
X300112Y35948D01*
X300021Y35933D01*
X299914Y35923D01*
X299802Y35913D01*
X299681Y35902D01*
X299554Y35892D01*
X299416Y35887D01*
X296607D01*
Y42918D01*
X299340D01*
X299416Y42913D01*
D02*
G37*
G36*
X286295Y10485D02*
X284766D01*
X282256Y17515D01*
X283790D01*
X285573Y12313D01*
X287290Y17515D01*
X288799D01*
X286295Y10485D01*
D02*
G37*
G36*
X299416Y17510D02*
X299503D01*
X299594Y17505D01*
X299696Y17500D01*
X299802Y17490D01*
X299909Y17480D01*
X300133Y17459D01*
X300239Y17444D01*
X300346Y17424D01*
X300443Y17404D01*
X300534Y17378D01*
X300539D01*
X300559Y17368D01*
X300595Y17358D01*
X300636Y17343D01*
X300692Y17322D01*
X300753Y17297D01*
X300824Y17266D01*
X300900Y17231D01*
X300981Y17185D01*
X301067Y17139D01*
X301154Y17084D01*
X301245Y17028D01*
X301332Y16962D01*
X301423Y16890D01*
X301509Y16814D01*
X301596Y16728D01*
X301601Y16723D01*
X301616Y16708D01*
X301636Y16682D01*
X301667Y16647D01*
X301707Y16601D01*
X301748Y16545D01*
X301794Y16484D01*
X301845Y16413D01*
X301901Y16332D01*
X301951Y16245D01*
X302007Y16154D01*
X302063Y16052D01*
X302119Y15946D01*
X302170Y15834D01*
X302221Y15712D01*
X302266Y15590D01*
X302271Y15585D01*
X302276Y15560D01*
X302287Y15524D01*
X302302Y15468D01*
X302322Y15402D01*
X302342Y15326D01*
X302363Y15234D01*
X302383Y15133D01*
X302404Y15016D01*
X302424Y14889D01*
X302444Y14752D01*
X302464Y14605D01*
X302480Y14452D01*
X302490Y14284D01*
X302500Y14112D01*
Y13929D01*
Y13919D01*
Y13888D01*
Y13843D01*
X302495Y13782D01*
Y13710D01*
X302490Y13619D01*
X302480Y13522D01*
X302475Y13416D01*
X302459Y13304D01*
X302449Y13182D01*
X302409Y12933D01*
X302353Y12679D01*
X302322Y12557D01*
X302282Y12435D01*
X302276Y12425D01*
X302271Y12400D01*
X302256Y12359D01*
X302231Y12308D01*
X302205Y12242D01*
X302175Y12166D01*
X302134Y12085D01*
X302089Y11993D01*
X302038Y11897D01*
X301982Y11795D01*
X301921Y11694D01*
X301855Y11587D01*
X301779Y11485D01*
X301702Y11384D01*
X301621Y11282D01*
X301530Y11191D01*
X301525Y11186D01*
X301514Y11176D01*
X301489Y11155D01*
X301464Y11130D01*
X301423Y11099D01*
X301377Y11069D01*
X301327Y11028D01*
X301266Y10988D01*
X301199Y10942D01*
X301123Y10896D01*
X301042Y10850D01*
X300956Y10805D01*
X300859Y10759D01*
X300758Y10713D01*
X300651Y10673D01*
X300534Y10632D01*
X300529D01*
X300514Y10627D01*
X300483Y10617D01*
X300448Y10612D01*
X300402Y10596D01*
X300341Y10586D01*
X300275Y10571D01*
X300199Y10561D01*
X300112Y10546D01*
X300021Y10530D01*
X299914Y10520D01*
X299802Y10510D01*
X299681Y10500D01*
X299554Y10490D01*
X299416Y10485D01*
X296607D01*
Y17515D01*
X299340D01*
X299416Y17510D01*
D02*
G37*
G36*
X292325D02*
X292411D01*
X292503Y17505D01*
X292604Y17500D01*
X292711Y17490D01*
X292817Y17480D01*
X293041Y17459D01*
X293148Y17444D01*
X293254Y17424D01*
X293351Y17404D01*
X293442Y17378D01*
X293447D01*
X293468Y17368D01*
X293503Y17358D01*
X293544Y17343D01*
X293600Y17322D01*
X293661Y17297D01*
X293732Y17266D01*
X293808Y17231D01*
X293889Y17185D01*
X293976Y17139D01*
X294062Y17084D01*
X294154Y17028D01*
X294240Y16962D01*
X294331Y16890D01*
X294418Y16814D01*
X294504Y16728D01*
X294509Y16723D01*
X294524Y16708D01*
X294545Y16682D01*
X294575Y16647D01*
X294616Y16601D01*
X294657Y16545D01*
X294702Y16484D01*
X294753Y16413D01*
X294809Y16332D01*
X294860Y16245D01*
X294916Y16154D01*
X294971Y16052D01*
X295027Y15946D01*
X295078Y15834D01*
X295129Y15712D01*
X295175Y15590D01*
X295180Y15585D01*
X295185Y15560D01*
X295195Y15524D01*
X295210Y15468D01*
X295231Y15402D01*
X295251Y15326D01*
X295271Y15234D01*
X295292Y15133D01*
X295312Y15016D01*
X295332Y14889D01*
X295352Y14752D01*
X295373Y14605D01*
X295388Y14452D01*
X295398Y14284D01*
X295408Y14112D01*
Y13929D01*
Y13919D01*
Y13888D01*
Y13843D01*
X295403Y13782D01*
Y13710D01*
X295398Y13619D01*
X295388Y13522D01*
X295383Y13416D01*
X295368Y13304D01*
X295357Y13182D01*
X295317Y12933D01*
X295261Y12679D01*
X295231Y12557D01*
X295190Y12435D01*
X295185Y12425D01*
X295180Y12400D01*
X295165Y12359D01*
X295139Y12308D01*
X295114Y12242D01*
X295083Y12166D01*
X295043Y12085D01*
X294997Y11993D01*
X294946Y11897D01*
X294890Y11795D01*
X294829Y11694D01*
X294763Y11587D01*
X294687Y11485D01*
X294611Y11384D01*
X294529Y11282D01*
X294438Y11191D01*
X294433Y11186D01*
X294423Y11176D01*
X294397Y11155D01*
X294372Y11130D01*
X294331Y11099D01*
X294286Y11069D01*
X294235Y11028D01*
X294174Y10988D01*
X294108Y10942D01*
X294032Y10896D01*
X293950Y10850D01*
X293864Y10805D01*
X293768Y10759D01*
X293666Y10713D01*
X293559Y10673D01*
X293442Y10632D01*
X293437D01*
X293422Y10627D01*
X293392Y10617D01*
X293356Y10612D01*
X293310Y10596D01*
X293249Y10586D01*
X293183Y10571D01*
X293107Y10561D01*
X293021Y10546D01*
X292929Y10530D01*
X292823Y10520D01*
X292711Y10510D01*
X292589Y10500D01*
X292462Y10490D01*
X292325Y10485D01*
X289515D01*
Y17515D01*
X292249D01*
X292325Y17510D01*
D02*
G37*
G36*
X269804Y27269D02*
X269845D01*
X269896Y27264D01*
X270007Y27259D01*
X270135Y27244D01*
X270272Y27224D01*
X270424Y27204D01*
X270581Y27173D01*
X270744Y27132D01*
X270912Y27087D01*
X271079Y27031D01*
X271237Y26960D01*
X271394Y26883D01*
X271537Y26792D01*
X271669Y26690D01*
X271679Y26685D01*
X271699Y26665D01*
X271730Y26629D01*
X271775Y26584D01*
X271826Y26528D01*
X271882Y26457D01*
X271943Y26375D01*
X272009Y26279D01*
X272075Y26177D01*
X272136Y26061D01*
X272197Y25933D01*
X272248Y25796D01*
X272299Y25649D01*
X272334Y25491D01*
X272360Y25324D01*
X272375Y25146D01*
X270957Y25085D01*
Y25090D01*
X270952Y25110D01*
X270947Y25136D01*
X270937Y25171D01*
X270927Y25217D01*
X270912Y25268D01*
X270896Y25324D01*
X270876Y25385D01*
X270820Y25512D01*
X270754Y25639D01*
X270668Y25761D01*
X270622Y25817D01*
X270566Y25862D01*
X270561Y25867D01*
X270551Y25872D01*
X270536Y25883D01*
X270510Y25898D01*
X270480Y25918D01*
X270439Y25938D01*
X270394Y25959D01*
X270343Y25984D01*
X270282Y26005D01*
X270216Y26025D01*
X270140Y26045D01*
X270058Y26065D01*
X269972Y26081D01*
X269881Y26091D01*
X269774Y26101D01*
X269606D01*
X269566Y26096D01*
X269515Y26091D01*
X269454Y26086D01*
X269388Y26081D01*
X269312Y26071D01*
X269159Y26040D01*
X268997Y25994D01*
X268915Y25964D01*
X268839Y25928D01*
X268768Y25888D01*
X268697Y25842D01*
X268687Y25837D01*
X268661Y25812D01*
X268626Y25776D01*
X268585Y25725D01*
X268544Y25664D01*
X268509Y25593D01*
X268484Y25507D01*
X268478Y25461D01*
X268473Y25410D01*
Y25405D01*
Y25400D01*
X268478Y25370D01*
X268484Y25324D01*
X268499Y25263D01*
X268524Y25197D01*
X268560Y25126D01*
X268610Y25055D01*
X268682Y24983D01*
X268687D01*
X268697Y24973D01*
X268712Y24963D01*
X268743Y24943D01*
X268778Y24922D01*
X268824Y24897D01*
X268880Y24872D01*
X268946Y24841D01*
X269027Y24806D01*
X269118Y24770D01*
X269225Y24729D01*
X269347Y24689D01*
X269484Y24643D01*
X269632Y24602D01*
X269804Y24557D01*
X269987Y24511D01*
X269992D01*
X269997Y24506D01*
X270013D01*
X270033Y24501D01*
X270084Y24486D01*
X270155Y24470D01*
X270241Y24445D01*
X270343Y24420D01*
X270449Y24389D01*
X270566Y24359D01*
X270688Y24318D01*
X270815Y24283D01*
X271069Y24196D01*
X271191Y24150D01*
X271308Y24100D01*
X271420Y24054D01*
X271516Y24003D01*
X271521Y23998D01*
X271537Y23993D01*
X271562Y23978D01*
X271597Y23957D01*
X271638Y23927D01*
X271689Y23896D01*
X271740Y23861D01*
X271801Y23815D01*
X271862Y23769D01*
X271923Y23714D01*
X271989Y23658D01*
X272055Y23592D01*
X272182Y23449D01*
X272238Y23368D01*
X272293Y23287D01*
X272299Y23282D01*
X272304Y23266D01*
X272319Y23241D01*
X272339Y23205D01*
X272360Y23160D01*
X272385Y23109D01*
X272410Y23048D01*
X272436Y22977D01*
X272461Y22901D01*
X272486Y22814D01*
X272512Y22723D01*
X272532Y22626D01*
X272553Y22520D01*
X272568Y22408D01*
X272573Y22291D01*
X272578Y22169D01*
Y22164D01*
Y22144D01*
Y22108D01*
X272573Y22068D01*
X272568Y22012D01*
X272558Y21951D01*
X272547Y21880D01*
X272537Y21803D01*
X272517Y21717D01*
X272497Y21626D01*
X272466Y21534D01*
X272436Y21438D01*
X272395Y21336D01*
X272349Y21235D01*
X272299Y21138D01*
X272238Y21036D01*
X272232Y21031D01*
X272222Y21016D01*
X272202Y20986D01*
X272177Y20950D01*
X272141Y20909D01*
X272100Y20859D01*
X272050Y20803D01*
X271994Y20742D01*
X271928Y20681D01*
X271857Y20615D01*
X271780Y20549D01*
X271694Y20488D01*
X271603Y20422D01*
X271506Y20361D01*
X271399Y20305D01*
X271288Y20254D01*
X271283Y20249D01*
X271262Y20244D01*
X271227Y20229D01*
X271176Y20213D01*
X271120Y20193D01*
X271049Y20173D01*
X270963Y20152D01*
X270871Y20127D01*
X270764Y20102D01*
X270648Y20081D01*
X270521Y20061D01*
X270389Y20041D01*
X270246Y20025D01*
X270094Y20010D01*
X269931Y20005D01*
X269764Y20000D01*
X269672D01*
X269637Y20005D01*
X269591D01*
X269545Y20010D01*
X269433Y20020D01*
X269301Y20031D01*
X269159Y20051D01*
X269007Y20076D01*
X268844Y20112D01*
X268676Y20152D01*
X268504Y20198D01*
X268336Y20259D01*
X268169Y20330D01*
X268006Y20412D01*
X267854Y20508D01*
X267711Y20615D01*
X267701Y20620D01*
X267681Y20645D01*
X267645Y20681D01*
X267600Y20731D01*
X267544Y20793D01*
X267478Y20874D01*
X267412Y20965D01*
X267341Y21072D01*
X267264Y21189D01*
X267193Y21326D01*
X267122Y21473D01*
X267056Y21631D01*
X266990Y21809D01*
X266939Y21997D01*
X266893Y22200D01*
X266863Y22413D01*
X268245Y22545D01*
Y22535D01*
X268250Y22515D01*
X268260Y22479D01*
X268270Y22433D01*
X268285Y22372D01*
X268306Y22306D01*
X268326Y22235D01*
X268351Y22159D01*
X268423Y21991D01*
X268463Y21905D01*
X268509Y21819D01*
X268560Y21737D01*
X268616Y21661D01*
X268682Y21590D01*
X268748Y21524D01*
X268753Y21519D01*
X268768Y21509D01*
X268788Y21493D01*
X268819Y21473D01*
X268854Y21448D01*
X268905Y21422D01*
X268956Y21392D01*
X269022Y21361D01*
X269088Y21331D01*
X269169Y21300D01*
X269251Y21275D01*
X269342Y21250D01*
X269444Y21229D01*
X269550Y21214D01*
X269662Y21204D01*
X269779Y21199D01*
X269845D01*
X269891Y21204D01*
X269946Y21209D01*
X270013Y21214D01*
X270089Y21224D01*
X270165Y21235D01*
X270333Y21270D01*
X270419Y21295D01*
X270505Y21321D01*
X270587Y21356D01*
X270668Y21392D01*
X270744Y21438D01*
X270810Y21488D01*
X270815Y21493D01*
X270825Y21504D01*
X270841Y21519D01*
X270866Y21539D01*
X270891Y21570D01*
X270922Y21600D01*
X270952Y21641D01*
X270988Y21681D01*
X271049Y21783D01*
X271105Y21895D01*
X271130Y21961D01*
X271145Y22022D01*
X271156Y22093D01*
X271161Y22164D01*
Y22169D01*
Y22174D01*
Y22205D01*
X271156Y22250D01*
X271140Y22311D01*
X271125Y22378D01*
X271100Y22449D01*
X271064Y22520D01*
X271013Y22586D01*
X271008Y22596D01*
X270983Y22616D01*
X270947Y22647D01*
X270896Y22692D01*
X270825Y22738D01*
X270734Y22794D01*
X270627Y22845D01*
X270566Y22870D01*
X270500Y22896D01*
X270495D01*
X270490Y22901D01*
X270470Y22906D01*
X270449Y22911D01*
X270414Y22921D01*
X270373Y22936D01*
X270322Y22952D01*
X270267Y22967D01*
X270195Y22987D01*
X270114Y23007D01*
X270023Y23033D01*
X269916Y23063D01*
X269799Y23094D01*
X269667Y23124D01*
X269520Y23160D01*
X269362Y23200D01*
X269357D01*
X269347Y23205D01*
X269332D01*
X269312Y23216D01*
X269286Y23221D01*
X269256Y23231D01*
X269179Y23251D01*
X269083Y23277D01*
X268976Y23312D01*
X268859Y23353D01*
X268738Y23393D01*
X268605Y23444D01*
X268473Y23495D01*
X268336Y23551D01*
X268209Y23612D01*
X268082Y23678D01*
X267965Y23749D01*
X267859Y23820D01*
X267762Y23896D01*
X267757Y23902D01*
X267737Y23922D01*
X267701Y23957D01*
X267661Y23998D01*
X267615Y24054D01*
X267559Y24125D01*
X267498Y24201D01*
X267442Y24293D01*
X267381Y24389D01*
X267320Y24496D01*
X267264Y24613D01*
X267219Y24735D01*
X267178Y24867D01*
X267142Y25009D01*
X267122Y25156D01*
X267117Y25309D01*
Y25314D01*
Y25334D01*
Y25359D01*
X267122Y25400D01*
X267127Y25446D01*
X267132Y25502D01*
X267142Y25568D01*
X267153Y25639D01*
X267173Y25710D01*
X267188Y25791D01*
X267213Y25872D01*
X267244Y25959D01*
X267279Y26050D01*
X267320Y26137D01*
X267366Y26228D01*
X267417Y26314D01*
X267422Y26319D01*
X267432Y26335D01*
X267447Y26360D01*
X267473Y26391D01*
X267503Y26431D01*
X267544Y26477D01*
X267589Y26523D01*
X267640Y26579D01*
X267701Y26635D01*
X267767Y26695D01*
X267838Y26751D01*
X267915Y26812D01*
X268001Y26868D01*
X268092Y26924D01*
X268189Y26980D01*
X268295Y27026D01*
X268301Y27031D01*
X268321Y27036D01*
X268356Y27051D01*
X268397Y27066D01*
X268453Y27081D01*
X268519Y27107D01*
X268595Y27127D01*
X268682Y27153D01*
X268778Y27173D01*
X268885Y27198D01*
X268997Y27219D01*
X269118Y27234D01*
X269251Y27254D01*
X269388Y27264D01*
X269530Y27269D01*
X269677Y27275D01*
X269769D01*
X269804Y27269D01*
D02*
G37*
G36*
X238704D02*
X238745D01*
X238796Y27264D01*
X238908Y27259D01*
X239035Y27244D01*
X239172Y27224D01*
X239324Y27204D01*
X239482Y27173D01*
X239644Y27132D01*
X239812Y27087D01*
X239980Y27031D01*
X240137Y26960D01*
X240295Y26883D01*
X240437Y26792D01*
X240569Y26690D01*
X240579Y26685D01*
X240599Y26665D01*
X240630Y26629D01*
X240676Y26584D01*
X240726Y26528D01*
X240782Y26457D01*
X240843Y26375D01*
X240909Y26279D01*
X240975Y26177D01*
X241036Y26061D01*
X241097Y25933D01*
X241148Y25796D01*
X241199Y25649D01*
X241234Y25491D01*
X241260Y25324D01*
X241275Y25146D01*
X239858Y25085D01*
Y25090D01*
X239853Y25110D01*
X239848Y25136D01*
X239837Y25171D01*
X239827Y25217D01*
X239812Y25268D01*
X239797Y25324D01*
X239776Y25385D01*
X239720Y25512D01*
X239655Y25639D01*
X239568Y25761D01*
X239522Y25817D01*
X239466Y25862D01*
X239461Y25867D01*
X239451Y25872D01*
X239436Y25883D01*
X239411Y25898D01*
X239380Y25918D01*
X239340Y25938D01*
X239294Y25959D01*
X239243Y25984D01*
X239182Y26005D01*
X239116Y26025D01*
X239040Y26045D01*
X238958Y26065D01*
X238872Y26081D01*
X238781Y26091D01*
X238674Y26101D01*
X238506D01*
X238466Y26096D01*
X238415Y26091D01*
X238354Y26086D01*
X238288Y26081D01*
X238212Y26071D01*
X238059Y26040D01*
X237897Y25994D01*
X237815Y25964D01*
X237739Y25928D01*
X237668Y25888D01*
X237597Y25842D01*
X237587Y25837D01*
X237561Y25812D01*
X237526Y25776D01*
X237485Y25725D01*
X237445Y25664D01*
X237409Y25593D01*
X237384Y25507D01*
X237379Y25461D01*
X237374Y25410D01*
Y25405D01*
Y25400D01*
X237379Y25370D01*
X237384Y25324D01*
X237399Y25263D01*
X237424Y25197D01*
X237460Y25126D01*
X237511Y25055D01*
X237582Y24983D01*
X237587D01*
X237597Y24973D01*
X237612Y24963D01*
X237643Y24943D01*
X237678Y24922D01*
X237724Y24897D01*
X237780Y24872D01*
X237846Y24841D01*
X237927Y24806D01*
X238019Y24770D01*
X238125Y24729D01*
X238247Y24689D01*
X238384Y24643D01*
X238532Y24602D01*
X238704Y24557D01*
X238887Y24511D01*
X238892D01*
X238898Y24506D01*
X238913D01*
X238933Y24501D01*
X238984Y24486D01*
X239055Y24470D01*
X239141Y24445D01*
X239243Y24420D01*
X239350Y24389D01*
X239466Y24359D01*
X239588Y24318D01*
X239715Y24283D01*
X239969Y24196D01*
X240091Y24150D01*
X240208Y24100D01*
X240320Y24054D01*
X240417Y24003D01*
X240422Y23998D01*
X240437Y23993D01*
X240462Y23978D01*
X240498Y23957D01*
X240538Y23927D01*
X240589Y23896D01*
X240640Y23861D01*
X240701Y23815D01*
X240762Y23769D01*
X240823Y23714D01*
X240889Y23658D01*
X240955Y23592D01*
X241082Y23449D01*
X241138Y23368D01*
X241194Y23287D01*
X241199Y23282D01*
X241204Y23266D01*
X241219Y23241D01*
X241239Y23205D01*
X241260Y23160D01*
X241285Y23109D01*
X241311Y23048D01*
X241336Y22977D01*
X241361Y22901D01*
X241387Y22814D01*
X241412Y22723D01*
X241432Y22626D01*
X241453Y22520D01*
X241468Y22408D01*
X241473Y22291D01*
X241478Y22169D01*
Y22164D01*
Y22144D01*
Y22108D01*
X241473Y22068D01*
X241468Y22012D01*
X241458Y21951D01*
X241448Y21880D01*
X241438Y21803D01*
X241417Y21717D01*
X241397Y21626D01*
X241366Y21534D01*
X241336Y21438D01*
X241295Y21336D01*
X241250Y21235D01*
X241199Y21138D01*
X241138Y21036D01*
X241133Y21031D01*
X241123Y21016D01*
X241102Y20986D01*
X241077Y20950D01*
X241041Y20909D01*
X241001Y20859D01*
X240950Y20803D01*
X240894Y20742D01*
X240828Y20681D01*
X240757Y20615D01*
X240681Y20549D01*
X240594Y20488D01*
X240503Y20422D01*
X240406Y20361D01*
X240300Y20305D01*
X240188Y20254D01*
X240183Y20249D01*
X240163Y20244D01*
X240127Y20229D01*
X240076Y20213D01*
X240020Y20193D01*
X239949Y20173D01*
X239863Y20152D01*
X239771Y20127D01*
X239665Y20102D01*
X239548Y20081D01*
X239421Y20061D01*
X239289Y20041D01*
X239146Y20025D01*
X238994Y20010D01*
X238832Y20005D01*
X238664Y20000D01*
X238572D01*
X238537Y20005D01*
X238491D01*
X238445Y20010D01*
X238334Y20020D01*
X238202Y20031D01*
X238059Y20051D01*
X237907Y20076D01*
X237744Y20112D01*
X237577Y20152D01*
X237404Y20198D01*
X237236Y20259D01*
X237069Y20330D01*
X236906Y20412D01*
X236754Y20508D01*
X236612Y20615D01*
X236601Y20620D01*
X236581Y20645D01*
X236546Y20681D01*
X236500Y20731D01*
X236444Y20793D01*
X236378Y20874D01*
X236312Y20965D01*
X236241Y21072D01*
X236164Y21189D01*
X236093Y21326D01*
X236022Y21473D01*
X235956Y21631D01*
X235890Y21809D01*
X235839Y21997D01*
X235794Y22200D01*
X235763Y22413D01*
X237145Y22545D01*
Y22535D01*
X237150Y22515D01*
X237160Y22479D01*
X237170Y22433D01*
X237186Y22372D01*
X237206Y22306D01*
X237226Y22235D01*
X237252Y22159D01*
X237323Y21991D01*
X237363Y21905D01*
X237409Y21819D01*
X237460Y21737D01*
X237516Y21661D01*
X237582Y21590D01*
X237648Y21524D01*
X237653Y21519D01*
X237668Y21509D01*
X237689Y21493D01*
X237719Y21473D01*
X237755Y21448D01*
X237805Y21422D01*
X237856Y21392D01*
X237922Y21361D01*
X237988Y21331D01*
X238069Y21300D01*
X238151Y21275D01*
X238242Y21250D01*
X238344Y21229D01*
X238451Y21214D01*
X238562Y21204D01*
X238679Y21199D01*
X238745D01*
X238791Y21204D01*
X238847Y21209D01*
X238913Y21214D01*
X238989Y21224D01*
X239065Y21235D01*
X239233Y21270D01*
X239319Y21295D01*
X239406Y21321D01*
X239487Y21356D01*
X239568Y21392D01*
X239644Y21438D01*
X239710Y21488D01*
X239715Y21493D01*
X239726Y21504D01*
X239741Y21519D01*
X239766Y21539D01*
X239792Y21570D01*
X239822Y21600D01*
X239853Y21641D01*
X239888Y21681D01*
X239949Y21783D01*
X240005Y21895D01*
X240030Y21961D01*
X240046Y22022D01*
X240056Y22093D01*
X240061Y22164D01*
Y22169D01*
Y22174D01*
Y22205D01*
X240056Y22250D01*
X240041Y22311D01*
X240025Y22378D01*
X240000Y22449D01*
X239964Y22520D01*
X239914Y22586D01*
X239909Y22596D01*
X239883Y22616D01*
X239848Y22647D01*
X239797Y22692D01*
X239726Y22738D01*
X239634Y22794D01*
X239527Y22845D01*
X239466Y22870D01*
X239401Y22896D01*
X239395D01*
X239390Y22901D01*
X239370Y22906D01*
X239350Y22911D01*
X239314Y22921D01*
X239273Y22936D01*
X239223Y22952D01*
X239167Y22967D01*
X239096Y22987D01*
X239014Y23007D01*
X238923Y23033D01*
X238816Y23063D01*
X238699Y23094D01*
X238567Y23124D01*
X238420Y23160D01*
X238263Y23200D01*
X238258D01*
X238247Y23205D01*
X238232D01*
X238212Y23216D01*
X238186Y23221D01*
X238156Y23231D01*
X238080Y23251D01*
X237983Y23277D01*
X237876Y23312D01*
X237760Y23353D01*
X237638Y23393D01*
X237506Y23444D01*
X237374Y23495D01*
X237236Y23551D01*
X237109Y23612D01*
X236982Y23678D01*
X236866Y23749D01*
X236759Y23820D01*
X236662Y23896D01*
X236657Y23902D01*
X236637Y23922D01*
X236601Y23957D01*
X236561Y23998D01*
X236515Y24054D01*
X236459Y24125D01*
X236398Y24201D01*
X236342Y24293D01*
X236281Y24389D01*
X236220Y24496D01*
X236164Y24613D01*
X236119Y24735D01*
X236078Y24867D01*
X236043Y25009D01*
X236022Y25156D01*
X236017Y25309D01*
Y25314D01*
Y25334D01*
Y25359D01*
X236022Y25400D01*
X236027Y25446D01*
X236032Y25502D01*
X236043Y25568D01*
X236053Y25639D01*
X236073Y25710D01*
X236088Y25791D01*
X236114Y25872D01*
X236144Y25959D01*
X236180Y26050D01*
X236220Y26137D01*
X236266Y26228D01*
X236317Y26314D01*
X236322Y26319D01*
X236332Y26335D01*
X236347Y26360D01*
X236373Y26391D01*
X236403Y26431D01*
X236444Y26477D01*
X236490Y26523D01*
X236540Y26579D01*
X236601Y26635D01*
X236667Y26695D01*
X236739Y26751D01*
X236815Y26812D01*
X236901Y26868D01*
X236993Y26924D01*
X237089Y26980D01*
X237196Y27026D01*
X237201Y27031D01*
X237221Y27036D01*
X237257Y27051D01*
X237297Y27066D01*
X237353Y27081D01*
X237419Y27107D01*
X237495Y27127D01*
X237582Y27153D01*
X237678Y27173D01*
X237785Y27198D01*
X237897Y27219D01*
X238019Y27234D01*
X238151Y27254D01*
X238288Y27264D01*
X238430Y27269D01*
X238577Y27275D01*
X238669D01*
X238704Y27269D01*
D02*
G37*
G36*
X256408D02*
X256449D01*
X256495Y27264D01*
X256606Y27259D01*
X256733Y27244D01*
X256876Y27229D01*
X257028Y27204D01*
X257186Y27178D01*
X257353Y27137D01*
X257526Y27097D01*
X257694Y27041D01*
X257861Y26980D01*
X258024Y26904D01*
X258181Y26817D01*
X258323Y26721D01*
X258334Y26716D01*
X258354Y26695D01*
X258395Y26665D01*
X258440Y26619D01*
X258501Y26563D01*
X258567Y26497D01*
X258643Y26416D01*
X258720Y26325D01*
X258801Y26223D01*
X258877Y26111D01*
X258958Y25984D01*
X259035Y25852D01*
X259106Y25705D01*
X259172Y25547D01*
X259228Y25385D01*
X259273Y25207D01*
X257866Y24943D01*
Y24948D01*
X257861Y24963D01*
X257851Y24994D01*
X257836Y25029D01*
X257821Y25070D01*
X257795Y25121D01*
X257770Y25176D01*
X257739Y25238D01*
X257704Y25299D01*
X257663Y25364D01*
X257617Y25436D01*
X257567Y25502D01*
X257506Y25568D01*
X257445Y25634D01*
X257379Y25700D01*
X257302Y25756D01*
X257297Y25761D01*
X257282Y25771D01*
X257262Y25786D01*
X257231Y25801D01*
X257191Y25827D01*
X257140Y25852D01*
X257084Y25878D01*
X257023Y25908D01*
X256952Y25938D01*
X256876Y25964D01*
X256789Y25989D01*
X256698Y26015D01*
X256606Y26030D01*
X256500Y26045D01*
X256393Y26055D01*
X256281Y26061D01*
X256241D01*
X256190Y26055D01*
X256129Y26050D01*
X256048Y26040D01*
X255956Y26030D01*
X255860Y26010D01*
X255748Y25984D01*
X255631Y25954D01*
X255514Y25913D01*
X255387Y25867D01*
X255265Y25812D01*
X255143Y25740D01*
X255027Y25664D01*
X254910Y25573D01*
X254803Y25466D01*
X254798Y25461D01*
X254778Y25441D01*
X254752Y25405D01*
X254717Y25354D01*
X254676Y25293D01*
X254630Y25217D01*
X254580Y25131D01*
X254529Y25029D01*
X254478Y24912D01*
X254427Y24780D01*
X254381Y24638D01*
X254341Y24481D01*
X254305Y24308D01*
X254280Y24125D01*
X254259Y23927D01*
X254254Y23719D01*
Y23714D01*
Y23703D01*
Y23688D01*
Y23663D01*
Y23632D01*
X254259Y23602D01*
Y23561D01*
X254265Y23515D01*
X254270Y23409D01*
X254285Y23292D01*
X254300Y23160D01*
X254326Y23017D01*
X254351Y22865D01*
X254392Y22713D01*
X254432Y22555D01*
X254488Y22403D01*
X254549Y22250D01*
X254625Y22103D01*
X254712Y21966D01*
X254808Y21844D01*
X254813Y21839D01*
X254834Y21819D01*
X254864Y21788D01*
X254910Y21748D01*
X254966Y21702D01*
X255032Y21646D01*
X255113Y21590D01*
X255199Y21534D01*
X255301Y21473D01*
X255408Y21417D01*
X255529Y21367D01*
X255662Y21316D01*
X255799Y21275D01*
X255946Y21245D01*
X256103Y21224D01*
X256266Y21219D01*
X256312D01*
X256342Y21224D01*
X256383D01*
X256434Y21229D01*
X256485Y21235D01*
X256546Y21240D01*
X256611Y21250D01*
X256683Y21260D01*
X256830Y21290D01*
X256992Y21336D01*
X257160Y21392D01*
X257165D01*
X257181Y21402D01*
X257206Y21407D01*
X257236Y21422D01*
X257272Y21438D01*
X257318Y21458D01*
X257368Y21483D01*
X257424Y21509D01*
X257546Y21570D01*
X257673Y21641D01*
X257805Y21722D01*
X257932Y21814D01*
Y22708D01*
X256307D01*
Y23896D01*
X259365D01*
Y21092D01*
X259360Y21087D01*
X259345Y21072D01*
X259319Y21052D01*
X259284Y21021D01*
X259238Y20981D01*
X259177Y20940D01*
X259111Y20889D01*
X259035Y20833D01*
X258948Y20777D01*
X258852Y20716D01*
X258745Y20655D01*
X258628Y20589D01*
X258506Y20523D01*
X258369Y20457D01*
X258222Y20391D01*
X258069Y20330D01*
X258059Y20325D01*
X258034Y20315D01*
X257988Y20300D01*
X257922Y20279D01*
X257846Y20254D01*
X257754Y20229D01*
X257653Y20198D01*
X257541Y20168D01*
X257414Y20137D01*
X257282Y20107D01*
X257140Y20081D01*
X256992Y20056D01*
X256840Y20036D01*
X256683Y20020D01*
X256520Y20010D01*
X256357Y20005D01*
X256281D01*
X256251Y20010D01*
X256175D01*
X256078Y20020D01*
X255966Y20031D01*
X255839Y20046D01*
X255702Y20061D01*
X255555Y20086D01*
X255403Y20117D01*
X255245Y20157D01*
X255082Y20198D01*
X254915Y20254D01*
X254752Y20315D01*
X254590Y20386D01*
X254432Y20467D01*
X254422Y20473D01*
X254397Y20488D01*
X254356Y20518D01*
X254300Y20554D01*
X254229Y20600D01*
X254153Y20660D01*
X254066Y20726D01*
X253970Y20808D01*
X253873Y20894D01*
X253772Y20991D01*
X253670Y21102D01*
X253569Y21219D01*
X253467Y21346D01*
X253376Y21483D01*
X253284Y21631D01*
X253203Y21788D01*
X253198Y21798D01*
X253188Y21829D01*
X253167Y21874D01*
X253137Y21941D01*
X253106Y22022D01*
X253071Y22113D01*
X253035Y22225D01*
X253000Y22347D01*
X252959Y22479D01*
X252923Y22626D01*
X252888Y22779D01*
X252857Y22941D01*
X252832Y23114D01*
X252812Y23292D01*
X252796Y23475D01*
X252791Y23663D01*
Y23668D01*
Y23673D01*
Y23693D01*
Y23714D01*
Y23739D01*
X252796Y23769D01*
Y23846D01*
X252807Y23942D01*
X252817Y24054D01*
X252832Y24181D01*
X252847Y24318D01*
X252873Y24465D01*
X252903Y24623D01*
X252939Y24785D01*
X252984Y24948D01*
X253035Y25116D01*
X253096Y25283D01*
X253167Y25451D01*
X253249Y25613D01*
X253254Y25624D01*
X253269Y25649D01*
X253299Y25695D01*
X253335Y25756D01*
X253381Y25827D01*
X253442Y25908D01*
X253513Y26000D01*
X253589Y26096D01*
X253680Y26203D01*
X253782Y26309D01*
X253889Y26416D01*
X254011Y26528D01*
X254143Y26635D01*
X254285Y26736D01*
X254432Y26833D01*
X254595Y26924D01*
X254605Y26929D01*
X254625Y26939D01*
X254666Y26955D01*
X254717Y26980D01*
X254783Y27005D01*
X254864Y27036D01*
X254955Y27066D01*
X255057Y27102D01*
X255174Y27132D01*
X255306Y27163D01*
X255443Y27193D01*
X255590Y27219D01*
X255748Y27244D01*
X255921Y27259D01*
X256098Y27269D01*
X256281Y27275D01*
X256368D01*
X256408Y27269D01*
D02*
G37*
G36*
X203424Y22804D02*
X205309Y20127D01*
X203658D01*
X202621Y21702D01*
X201575Y20127D01*
X200000D01*
X201834Y22748D01*
X200076Y25222D01*
X201722D01*
X202621Y23820D01*
X203576Y25222D01*
X205151D01*
X203424Y22804D01*
D02*
G37*
G36*
X218882Y20127D02*
X217567D01*
X217562Y25659D01*
X216170Y20127D01*
X214803D01*
X213416Y25659D01*
Y20127D01*
X212101D01*
Y27158D01*
X214224D01*
X215494Y22357D01*
X216749Y27158D01*
X218882D01*
Y20127D01*
D02*
G37*
G36*
X252248Y22002D02*
X249601D01*
Y23348D01*
X252248D01*
Y22002D01*
D02*
G37*
G36*
X235336D02*
X232690D01*
Y23348D01*
X235336D01*
Y22002D01*
D02*
G37*
G36*
X208605D02*
X205959D01*
Y23348D01*
X208605D01*
Y22002D01*
D02*
G37*
G36*
X225893Y23459D02*
Y23454D01*
Y23444D01*
Y23429D01*
Y23404D01*
Y23373D01*
Y23338D01*
Y23297D01*
Y23256D01*
X225888Y23150D01*
Y23033D01*
X225883Y22901D01*
X225877Y22764D01*
X225872Y22616D01*
X225862Y22469D01*
X225857Y22317D01*
X225842Y22169D01*
X225832Y22032D01*
X225817Y21900D01*
X225796Y21778D01*
X225776Y21671D01*
Y21666D01*
X225771Y21646D01*
X225766Y21621D01*
X225751Y21585D01*
X225740Y21539D01*
X225725Y21488D01*
X225705Y21428D01*
X225679Y21367D01*
X225618Y21224D01*
X225547Y21077D01*
X225456Y20930D01*
X225349Y20787D01*
X225344Y20782D01*
X225334Y20772D01*
X225319Y20752D01*
X225293Y20726D01*
X225263Y20701D01*
X225227Y20666D01*
X225182Y20625D01*
X225131Y20584D01*
X225075Y20538D01*
X225014Y20493D01*
X224948Y20447D01*
X224872Y20396D01*
X224795Y20350D01*
X224709Y20305D01*
X224623Y20259D01*
X224526Y20219D01*
X224521D01*
X224501Y20208D01*
X224475Y20198D01*
X224435Y20183D01*
X224379Y20168D01*
X224318Y20152D01*
X224247Y20132D01*
X224166Y20112D01*
X224069Y20092D01*
X223967Y20071D01*
X223856Y20056D01*
X223739Y20041D01*
X223607Y20025D01*
X223475Y20015D01*
X223327Y20010D01*
X223175Y20005D01*
X223078D01*
X223007Y20010D01*
X222926D01*
X222829Y20015D01*
X222723Y20025D01*
X222606Y20036D01*
X222484Y20046D01*
X222357Y20061D01*
X222103Y20102D01*
X221981Y20127D01*
X221859Y20157D01*
X221747Y20193D01*
X221646Y20234D01*
X221641Y20239D01*
X221626Y20244D01*
X221595Y20259D01*
X221560Y20274D01*
X221519Y20300D01*
X221468Y20325D01*
X221412Y20361D01*
X221351Y20396D01*
X221219Y20483D01*
X221082Y20589D01*
X220945Y20706D01*
X220823Y20838D01*
X220818Y20843D01*
X220808Y20854D01*
X220792Y20874D01*
X220777Y20904D01*
X220752Y20935D01*
X220721Y20975D01*
X220691Y21026D01*
X220660Y21077D01*
X220594Y21194D01*
X220528Y21326D01*
X220472Y21468D01*
X220427Y21621D01*
Y21626D01*
X220422Y21651D01*
X220417Y21687D01*
X220406Y21732D01*
X220396Y21798D01*
X220381Y21874D01*
X220371Y21966D01*
X220361Y22073D01*
X220345Y22190D01*
X220335Y22322D01*
X220320Y22469D01*
X220310Y22626D01*
X220305Y22799D01*
X220295Y22987D01*
X220289Y23190D01*
Y23404D01*
Y27158D01*
X221707D01*
Y23348D01*
Y23338D01*
Y23307D01*
Y23261D01*
Y23200D01*
Y23129D01*
X221712Y23048D01*
Y22957D01*
Y22860D01*
X221717Y22662D01*
X221722Y22560D01*
X221727Y22469D01*
X221732Y22378D01*
X221742Y22296D01*
X221747Y22225D01*
X221758Y22169D01*
Y22164D01*
X221763Y22149D01*
X221768Y22129D01*
X221778Y22098D01*
X221788Y22062D01*
X221803Y22017D01*
X221844Y21920D01*
X221905Y21809D01*
X221976Y21697D01*
X222022Y21641D01*
X222073Y21585D01*
X222129Y21529D01*
X222189Y21478D01*
X222194Y21473D01*
X222205Y21468D01*
X222225Y21453D01*
X222250Y21438D01*
X222286Y21417D01*
X222332Y21397D01*
X222377Y21372D01*
X222438Y21351D01*
X222499Y21326D01*
X222570Y21300D01*
X222647Y21280D01*
X222733Y21260D01*
X222824Y21245D01*
X222916Y21229D01*
X223023Y21224D01*
X223129Y21219D01*
X223185D01*
X223231Y21224D01*
X223277D01*
X223337Y21235D01*
X223398Y21240D01*
X223470Y21250D01*
X223617Y21280D01*
X223769Y21321D01*
X223912Y21382D01*
X223978Y21422D01*
X224039Y21463D01*
X224044Y21468D01*
X224054Y21473D01*
X224069Y21488D01*
X224089Y21509D01*
X224140Y21560D01*
X224201Y21631D01*
X224267Y21722D01*
X224328Y21824D01*
X224374Y21941D01*
X224394Y22002D01*
X224409Y22068D01*
Y22073D01*
X224415Y22083D01*
Y22108D01*
X224420Y22139D01*
X224425Y22179D01*
X224430Y22225D01*
X224435Y22286D01*
X224445Y22352D01*
X224450Y22433D01*
X224455Y22520D01*
X224460Y22616D01*
X224465Y22728D01*
X224470Y22845D01*
Y22977D01*
X224475Y23114D01*
Y23266D01*
Y27158D01*
X225893D01*
Y23459D01*
D02*
G37*
G36*
X229413Y27178D02*
X229479Y27173D01*
X229566Y27163D01*
X229662Y27148D01*
X229769Y27132D01*
X229886Y27102D01*
X230013Y27071D01*
X230140Y27031D01*
X230272Y26975D01*
X230404Y26914D01*
X230536Y26843D01*
X230668Y26756D01*
X230790Y26660D01*
X230907Y26548D01*
X230912Y26543D01*
X230927Y26523D01*
X230952Y26497D01*
X230983Y26457D01*
X231024Y26406D01*
X231064Y26350D01*
X231110Y26284D01*
X231156Y26208D01*
X231201Y26126D01*
X231247Y26035D01*
X231288Y25938D01*
X231328Y25837D01*
X231359Y25730D01*
X231384Y25619D01*
X231399Y25502D01*
X231405Y25380D01*
Y25370D01*
Y25339D01*
X231399Y25293D01*
X231389Y25227D01*
X231374Y25146D01*
X231349Y25060D01*
X231318Y24958D01*
X231278Y24846D01*
X231222Y24735D01*
X231156Y24613D01*
X231074Y24491D01*
X230978Y24364D01*
X230861Y24242D01*
X230795Y24181D01*
X230724Y24125D01*
X230648Y24064D01*
X230566Y24008D01*
X230480Y23952D01*
X230389Y23902D01*
X230394D01*
X230414Y23896D01*
X230444Y23886D01*
X230490Y23876D01*
X230541Y23861D01*
X230597Y23835D01*
X230663Y23810D01*
X230734Y23779D01*
X230810Y23744D01*
X230891Y23703D01*
X230973Y23658D01*
X231049Y23602D01*
X231130Y23546D01*
X231206Y23475D01*
X231283Y23404D01*
X231354Y23322D01*
X231359Y23317D01*
X231369Y23302D01*
X231389Y23277D01*
X231410Y23241D01*
X231435Y23200D01*
X231465Y23145D01*
X231501Y23084D01*
X231537Y23017D01*
X231567Y22941D01*
X231603Y22860D01*
X231633Y22769D01*
X231659Y22672D01*
X231679Y22571D01*
X231699Y22464D01*
X231709Y22352D01*
X231714Y22235D01*
Y22225D01*
Y22195D01*
X231709Y22144D01*
X231704Y22078D01*
X231694Y22002D01*
X231679Y21905D01*
X231659Y21803D01*
X231628Y21692D01*
X231593Y21570D01*
X231547Y21443D01*
X231491Y21311D01*
X231430Y21179D01*
X231349Y21041D01*
X231257Y20909D01*
X231156Y20782D01*
X231034Y20655D01*
X231024Y20650D01*
X231003Y20630D01*
X230963Y20594D01*
X230912Y20554D01*
X230846Y20503D01*
X230770Y20452D01*
X230673Y20391D01*
X230571Y20330D01*
X230455Y20269D01*
X230328Y20213D01*
X230190Y20157D01*
X230038Y20107D01*
X229881Y20066D01*
X229713Y20036D01*
X229535Y20010D01*
X229352Y20005D01*
X229312D01*
X229261Y20010D01*
X229195Y20015D01*
X229114Y20020D01*
X229017Y20036D01*
X228915Y20051D01*
X228799Y20076D01*
X228677Y20102D01*
X228550Y20137D01*
X228417Y20183D01*
X228285Y20239D01*
X228153Y20300D01*
X228021Y20371D01*
X227894Y20457D01*
X227772Y20554D01*
X227767Y20559D01*
X227747Y20579D01*
X227711Y20610D01*
X227671Y20655D01*
X227625Y20706D01*
X227569Y20772D01*
X227508Y20854D01*
X227447Y20940D01*
X227381Y21036D01*
X227320Y21143D01*
X227259Y21265D01*
X227198Y21392D01*
X227148Y21524D01*
X227107Y21671D01*
X227071Y21824D01*
X227046Y21986D01*
X228351Y22149D01*
Y22144D01*
X228357Y22129D01*
Y22103D01*
X228367Y22068D01*
X228372Y22022D01*
X228387Y21976D01*
X228397Y21920D01*
X228417Y21864D01*
X228458Y21742D01*
X228519Y21616D01*
X228590Y21488D01*
X228636Y21433D01*
X228682Y21382D01*
X228687Y21377D01*
X228697Y21372D01*
X228712Y21356D01*
X228732Y21341D01*
X228758Y21321D01*
X228788Y21300D01*
X228870Y21255D01*
X228966Y21204D01*
X229078Y21163D01*
X229205Y21133D01*
X229271Y21128D01*
X229342Y21123D01*
X229383D01*
X229413Y21128D01*
X229449Y21133D01*
X229489Y21138D01*
X229586Y21163D01*
X229698Y21199D01*
X229754Y21224D01*
X229814Y21255D01*
X229876Y21290D01*
X229931Y21336D01*
X229987Y21382D01*
X230043Y21438D01*
X230048Y21443D01*
X230053Y21453D01*
X230068Y21468D01*
X230089Y21493D01*
X230109Y21529D01*
X230135Y21565D01*
X230160Y21610D01*
X230190Y21661D01*
X230216Y21722D01*
X230241Y21783D01*
X230267Y21854D01*
X230287Y21930D01*
X230307Y22012D01*
X230322Y22098D01*
X230328Y22195D01*
X230333Y22291D01*
Y22296D01*
Y22311D01*
Y22342D01*
X230328Y22378D01*
X230322Y22418D01*
X230317Y22469D01*
X230312Y22525D01*
X230297Y22581D01*
X230267Y22713D01*
X230216Y22845D01*
X230185Y22911D01*
X230150Y22977D01*
X230109Y23043D01*
X230058Y23099D01*
X230053Y23104D01*
X230048Y23114D01*
X230033Y23124D01*
X230008Y23145D01*
X229982Y23170D01*
X229952Y23195D01*
X229870Y23251D01*
X229774Y23302D01*
X229662Y23353D01*
X229601Y23373D01*
X229535Y23383D01*
X229464Y23393D01*
X229393Y23398D01*
X229347D01*
X229322Y23393D01*
X229291D01*
X229220Y23388D01*
X229129Y23373D01*
X229022Y23358D01*
X228905Y23333D01*
X228778Y23297D01*
X228925Y24394D01*
X229017D01*
X229063Y24399D01*
X229114Y24404D01*
X229174Y24409D01*
X229235Y24420D01*
X229373Y24445D01*
X229510Y24486D01*
X229581Y24516D01*
X229647Y24547D01*
X229708Y24582D01*
X229764Y24628D01*
X229769Y24633D01*
X229774Y24638D01*
X229789Y24653D01*
X229809Y24674D01*
X229830Y24699D01*
X229855Y24729D01*
X229881Y24765D01*
X229911Y24806D01*
X229962Y24902D01*
X230008Y25019D01*
X230028Y25080D01*
X230043Y25151D01*
X230048Y25222D01*
X230053Y25299D01*
Y25303D01*
Y25314D01*
Y25334D01*
X230048Y25359D01*
Y25390D01*
X230043Y25420D01*
X230028Y25502D01*
X230002Y25593D01*
X229962Y25684D01*
X229911Y25776D01*
X229840Y25862D01*
X229830Y25872D01*
X229799Y25898D01*
X229754Y25928D01*
X229688Y25969D01*
X229606Y26010D01*
X229510Y26040D01*
X229403Y26065D01*
X229276Y26076D01*
X229240D01*
X229220Y26071D01*
X229190D01*
X229154Y26065D01*
X229073Y26045D01*
X228981Y26015D01*
X228880Y25974D01*
X228778Y25913D01*
X228727Y25872D01*
X228682Y25832D01*
X228677Y25827D01*
X228671Y25822D01*
X228661Y25807D01*
X228641Y25786D01*
X228626Y25761D01*
X228600Y25730D01*
X228580Y25695D01*
X228555Y25654D01*
X228529Y25608D01*
X228504Y25557D01*
X228479Y25502D01*
X228453Y25436D01*
X228433Y25370D01*
X228412Y25299D01*
X228397Y25217D01*
X228387Y25136D01*
X227148Y25344D01*
Y25349D01*
X227153Y25375D01*
X227163Y25405D01*
X227173Y25451D01*
X227183Y25507D01*
X227203Y25568D01*
X227219Y25639D01*
X227244Y25710D01*
X227300Y25872D01*
X227366Y26045D01*
X227442Y26213D01*
X227488Y26289D01*
X227534Y26365D01*
X227539Y26370D01*
X227544Y26381D01*
X227559Y26401D01*
X227584Y26426D01*
X227610Y26462D01*
X227640Y26497D01*
X227681Y26538D01*
X227727Y26584D01*
X227772Y26629D01*
X227828Y26680D01*
X227889Y26731D01*
X227955Y26777D01*
X228026Y26827D01*
X228097Y26878D01*
X228265Y26965D01*
X228270Y26970D01*
X228285Y26975D01*
X228311Y26985D01*
X228346Y27000D01*
X228392Y27016D01*
X228443Y27036D01*
X228504Y27056D01*
X228570Y27076D01*
X228646Y27097D01*
X228727Y27112D01*
X228814Y27132D01*
X228905Y27148D01*
X229103Y27173D01*
X229210Y27183D01*
X229362D01*
X229413Y27178D01*
D02*
G37*
G36*
X263261Y27153D02*
X263378D01*
X263505Y27148D01*
X263642Y27143D01*
X263927Y27132D01*
X264069Y27122D01*
X264206Y27112D01*
X264333Y27102D01*
X264450Y27087D01*
X264552Y27071D01*
X264592Y27061D01*
X264633Y27051D01*
X264638D01*
X264658Y27041D01*
X264694Y27031D01*
X264734Y27021D01*
X264785Y27000D01*
X264846Y26975D01*
X264912Y26944D01*
X264988Y26904D01*
X265065Y26863D01*
X265146Y26812D01*
X265227Y26756D01*
X265314Y26695D01*
X265400Y26624D01*
X265486Y26543D01*
X265568Y26457D01*
X265644Y26360D01*
X265649Y26355D01*
X265664Y26335D01*
X265684Y26304D01*
X265710Y26264D01*
X265740Y26213D01*
X265776Y26147D01*
X265811Y26076D01*
X265852Y25989D01*
X265888Y25898D01*
X265923Y25796D01*
X265959Y25684D01*
X265989Y25563D01*
X266020Y25431D01*
X266040Y25293D01*
X266050Y25146D01*
X266055Y24994D01*
Y24989D01*
Y24963D01*
Y24933D01*
X266050Y24887D01*
Y24831D01*
X266045Y24765D01*
X266035Y24694D01*
X266025Y24613D01*
X266015Y24531D01*
X265999Y24440D01*
X265954Y24257D01*
X265898Y24074D01*
X265857Y23988D01*
X265816Y23902D01*
X265811Y23896D01*
X265806Y23881D01*
X265791Y23861D01*
X265776Y23830D01*
X265750Y23795D01*
X265725Y23749D01*
X265654Y23653D01*
X265568Y23541D01*
X265466Y23424D01*
X265349Y23312D01*
X265222Y23211D01*
X265217Y23205D01*
X265207Y23200D01*
X265187Y23185D01*
X265161Y23170D01*
X265126Y23150D01*
X265090Y23124D01*
X265044Y23099D01*
X264993Y23073D01*
X264882Y23017D01*
X264760Y22962D01*
X264628Y22911D01*
X264485Y22875D01*
X264480D01*
X264460Y22870D01*
X264435Y22865D01*
X264389Y22860D01*
X264338Y22855D01*
X264272Y22845D01*
X264201Y22835D01*
X264110Y22830D01*
X264013Y22819D01*
X263906Y22809D01*
X263785Y22799D01*
X263652Y22794D01*
X263510Y22789D01*
X263358Y22784D01*
X263190Y22779D01*
X262093D01*
Y20127D01*
X260676D01*
Y27158D01*
X263155D01*
X263261Y27153D01*
D02*
G37*
G36*
X249007Y20127D02*
X247462D01*
X246853Y21722D01*
X244039D01*
X243459Y20127D01*
X241956D01*
X244684Y27158D01*
X246192D01*
X249007Y20127D01*
D02*
G37*
G36*
X210765D02*
X209347D01*
Y27158D01*
X210765D01*
Y20127D01*
D02*
G37*
G36*
X203266Y10000D02*
X202052D01*
X200000Y15095D01*
X201412D01*
X202372Y12494D01*
X202652Y11626D01*
Y11631D01*
X202657Y11641D01*
X202662Y11656D01*
X202672Y11681D01*
X202687Y11737D01*
X202713Y11803D01*
X202733Y11880D01*
X202758Y11951D01*
X202774Y12012D01*
X202784Y12042D01*
X202789Y12062D01*
X202794Y12073D01*
X202799Y12098D01*
X202814Y12144D01*
X202835Y12195D01*
X202855Y12261D01*
X202880Y12337D01*
X202906Y12413D01*
X202936Y12494D01*
X203901Y15095D01*
X205288D01*
X203266Y10000D01*
D02*
G37*
G36*
X217460D02*
X216114D01*
Y15075D01*
X216104Y15065D01*
X216078Y15044D01*
X216038Y15009D01*
X215982Y14963D01*
X215911Y14907D01*
X215824Y14841D01*
X215728Y14765D01*
X215616Y14689D01*
X215494Y14608D01*
X215362Y14521D01*
X215220Y14435D01*
X215067Y14354D01*
X214905Y14272D01*
X214732Y14191D01*
X214554Y14120D01*
X214371Y14054D01*
Y15278D01*
X214376D01*
X214397Y15288D01*
X214422Y15298D01*
X214463Y15314D01*
X214514Y15334D01*
X214569Y15354D01*
X214636Y15385D01*
X214712Y15420D01*
X214793Y15466D01*
X214879Y15512D01*
X214976Y15563D01*
X215072Y15624D01*
X215179Y15690D01*
X215286Y15761D01*
X215397Y15842D01*
X215514Y15928D01*
X215519Y15933D01*
X215540Y15949D01*
X215575Y15979D01*
X215616Y16015D01*
X215667Y16060D01*
X215723Y16116D01*
X215784Y16177D01*
X215855Y16248D01*
X215921Y16330D01*
X215992Y16416D01*
X216063Y16508D01*
X216134Y16609D01*
X216200Y16711D01*
X216261Y16822D01*
X216317Y16939D01*
X216363Y17056D01*
X217460D01*
Y10000D01*
D02*
G37*
G36*
X212918D02*
X211572D01*
Y11346D01*
X212918D01*
Y10000D01*
D02*
G37*
G36*
X209271D02*
X207925D01*
Y15075D01*
X207915Y15065D01*
X207889Y15044D01*
X207849Y15009D01*
X207793Y14963D01*
X207722Y14907D01*
X207635Y14841D01*
X207539Y14765D01*
X207427Y14689D01*
X207305Y14608D01*
X207173Y14521D01*
X207031Y14435D01*
X206878Y14354D01*
X206716Y14272D01*
X206543Y14191D01*
X206365Y14120D01*
X206182Y14054D01*
Y15278D01*
X206187D01*
X206208Y15288D01*
X206233Y15298D01*
X206274Y15314D01*
X206325Y15334D01*
X206381Y15354D01*
X206446Y15385D01*
X206523Y15420D01*
X206604Y15466D01*
X206690Y15512D01*
X206787Y15563D01*
X206883Y15624D01*
X206990Y15690D01*
X207097Y15761D01*
X207208Y15842D01*
X207325Y15928D01*
X207330Y15933D01*
X207351Y15949D01*
X207386Y15979D01*
X207427Y16015D01*
X207478Y16060D01*
X207534Y16116D01*
X207595Y16177D01*
X207666Y16248D01*
X207732Y16330D01*
X207803Y16416D01*
X207874Y16508D01*
X207945Y16609D01*
X208011Y16711D01*
X208072Y16822D01*
X208128Y16939D01*
X208174Y17056D01*
X209271D01*
Y10000D01*
D02*
G37*
G36*
X321674Y212554D02*
X321725Y212551D01*
X321788Y212547D01*
X321861Y212536D01*
X321942Y212525D01*
X322031Y212506D01*
X322123Y212484D01*
X322222Y212458D01*
X322322Y212425D01*
X322418Y212385D01*
X322517Y212337D01*
X322613Y212285D01*
X322701Y212223D01*
X322786Y212149D01*
X322789Y212145D01*
X322804Y212131D01*
X322826Y212108D01*
X322852Y212075D01*
X322885Y212035D01*
X322922Y211991D01*
X322963Y211932D01*
X323003Y211869D01*
X323044Y211799D01*
X323084Y211726D01*
X323121Y211641D01*
X323154Y211552D01*
X323180Y211457D01*
X323202Y211353D01*
X323217Y211247D01*
X323220Y211136D01*
Y211133D01*
Y211122D01*
Y211103D01*
Y211077D01*
X323217Y211048D01*
X323213Y211011D01*
X323209Y210970D01*
X323206Y210926D01*
X323191Y210827D01*
X323169Y210716D01*
X323136Y210599D01*
X323095Y210481D01*
Y210477D01*
X323088Y210466D01*
X323080Y210451D01*
X323073Y210425D01*
X323058Y210400D01*
X323040Y210366D01*
X323022Y210326D01*
X322999Y210285D01*
X322974Y210238D01*
X322944Y210186D01*
X322878Y210075D01*
X322797Y209958D01*
X322705Y209832D01*
X322701Y209829D01*
X322697Y209821D01*
X322686Y209810D01*
X322672Y209792D01*
X322650Y209766D01*
X322624Y209737D01*
X322594Y209704D01*
X322557Y209667D01*
X322517Y209622D01*
X322469Y209575D01*
X322418Y209519D01*
X322359Y209461D01*
X322296Y209398D01*
X322226Y209332D01*
X322149Y209258D01*
X322064Y209181D01*
X322060Y209177D01*
X322046Y209162D01*
X322020Y209140D01*
X321990Y209111D01*
X321954Y209077D01*
X321909Y209041D01*
X321865Y208996D01*
X321817Y208952D01*
X321718Y208857D01*
X321618Y208764D01*
X321574Y208720D01*
X321537Y208683D01*
X321501Y208647D01*
X321475Y208617D01*
X321471Y208610D01*
X321456Y208595D01*
X321431Y208566D01*
X321405Y208532D01*
X321372Y208492D01*
X321338Y208444D01*
X321305Y208396D01*
X321276Y208348D01*
X323220D01*
Y207442D01*
X319795D01*
Y207449D01*
X319799Y207464D01*
X319803Y207494D01*
X319810Y207531D01*
X319817Y207575D01*
X319828Y207630D01*
X319839Y207689D01*
X319858Y207755D01*
X319876Y207829D01*
X319902Y207906D01*
X319928Y207984D01*
X319957Y208068D01*
X319994Y208153D01*
X320035Y208241D01*
X320079Y208326D01*
X320127Y208414D01*
X320130Y208418D01*
X320141Y208437D01*
X320160Y208462D01*
X320182Y208499D01*
X320215Y208543D01*
X320259Y208599D01*
X320311Y208665D01*
X320370Y208739D01*
X320440Y208823D01*
X320517Y208915D01*
X320609Y209015D01*
X320709Y209125D01*
X320823Y209243D01*
X320944Y209365D01*
X321081Y209497D01*
X321228Y209637D01*
X321232Y209641D01*
X321235Y209645D01*
X321257Y209663D01*
X321291Y209696D01*
X321335Y209737D01*
X321386Y209788D01*
X321445Y209844D01*
X321508Y209906D01*
X321578Y209972D01*
X321714Y210112D01*
X321784Y210179D01*
X321847Y210249D01*
X321909Y210311D01*
X321961Y210370D01*
X322005Y210425D01*
X322038Y210470D01*
X322042Y210473D01*
X322046Y210484D01*
X322057Y210499D01*
X322071Y210521D01*
X322086Y210551D01*
X322101Y210580D01*
X322119Y210617D01*
X322141Y210657D01*
X322178Y210749D01*
X322208Y210849D01*
X322233Y210959D01*
X322237Y211015D01*
X322241Y211070D01*
Y211074D01*
Y211085D01*
Y211099D01*
X322237Y211125D01*
Y211151D01*
X322233Y211180D01*
X322219Y211254D01*
X322197Y211335D01*
X322167Y211420D01*
X322123Y211497D01*
X322094Y211538D01*
X322064Y211571D01*
X322060Y211574D01*
X322057Y211578D01*
X322046Y211586D01*
X322031Y211600D01*
X322012Y211611D01*
X321990Y211626D01*
X321965Y211644D01*
X321939Y211659D01*
X321869Y211692D01*
X321784Y211722D01*
X321688Y211740D01*
X321633Y211744D01*
X321578Y211748D01*
X321548D01*
X321526Y211744D01*
X321501D01*
X321471Y211737D01*
X321401Y211726D01*
X321324Y211703D01*
X321239Y211670D01*
X321202Y211648D01*
X321162Y211626D01*
X321125Y211597D01*
X321088Y211563D01*
X321084Y211560D01*
X321081Y211556D01*
X321070Y211545D01*
X321059Y211527D01*
X321044Y211508D01*
X321029Y211482D01*
X321014Y211453D01*
X320996Y211420D01*
X320978Y211379D01*
X320959Y211335D01*
X320941Y211283D01*
X320926Y211228D01*
X320911Y211166D01*
X320896Y211099D01*
X320889Y211029D01*
X320882Y210952D01*
X319909Y211048D01*
Y211052D01*
Y211059D01*
X319913Y211070D01*
Y211085D01*
X319917Y211103D01*
X319921Y211125D01*
X319932Y211180D01*
X319943Y211247D01*
X319961Y211320D01*
X319983Y211405D01*
X320009Y211493D01*
X320042Y211589D01*
X320079Y211685D01*
X320123Y211781D01*
X320175Y211877D01*
X320230Y211969D01*
X320296Y212053D01*
X320370Y212134D01*
X320451Y212204D01*
X320454Y212208D01*
X320473Y212219D01*
X320499Y212237D01*
X320532Y212260D01*
X320580Y212285D01*
X320631Y212315D01*
X320698Y212348D01*
X320768Y212381D01*
X320845Y212414D01*
X320933Y212447D01*
X321029Y212477D01*
X321129Y212503D01*
X321239Y212525D01*
X321353Y212543D01*
X321475Y212554D01*
X321600Y212558D01*
X321633D01*
X321674Y212554D01*
D02*
G37*
G36*
X317295Y212536D02*
X317365D01*
X317442Y212532D01*
X317526Y212528D01*
X317619Y212521D01*
X317714Y212514D01*
X317810Y212506D01*
X318009Y212481D01*
X318101Y212466D01*
X318190Y212447D01*
X318274Y212425D01*
X318348Y212400D01*
X318351D01*
X318363Y212392D01*
X318385Y212385D01*
X318410Y212374D01*
X318440Y212359D01*
X318477Y212337D01*
X318517Y212315D01*
X318561Y212289D01*
X318609Y212256D01*
X318657Y212219D01*
X318705Y212178D01*
X318757Y212134D01*
X318804Y212086D01*
X318852Y212031D01*
X318897Y211972D01*
X318941Y211910D01*
X318944Y211906D01*
X318952Y211895D01*
X318963Y211873D01*
X318978Y211847D01*
X318992Y211814D01*
X319011Y211777D01*
X319033Y211729D01*
X319055Y211678D01*
X319073Y211622D01*
X319095Y211560D01*
X319114Y211493D01*
X319132Y211423D01*
X319143Y211350D01*
X319154Y211273D01*
X319162Y211195D01*
X319165Y211110D01*
Y211103D01*
Y211085D01*
X319162Y211055D01*
Y211015D01*
X319154Y210967D01*
X319147Y210908D01*
X319136Y210845D01*
X319125Y210775D01*
X319107Y210702D01*
X319084Y210624D01*
X319055Y210547D01*
X319022Y210466D01*
X318985Y210389D01*
X318937Y210308D01*
X318886Y210234D01*
X318827Y210160D01*
X318823Y210157D01*
X318812Y210145D01*
X318790Y210127D01*
X318764Y210101D01*
X318727Y210072D01*
X318687Y210039D01*
X318635Y210002D01*
X318576Y209961D01*
X318506Y209921D01*
X318433Y209884D01*
X318351Y209844D01*
X318260Y209807D01*
X318160Y209770D01*
X318053Y209740D01*
X317939Y209715D01*
X317817Y209692D01*
X317821Y209689D01*
X317832Y209685D01*
X317851Y209674D01*
X317873Y209659D01*
X317902Y209641D01*
X317935Y209619D01*
X317972Y209593D01*
X318013Y209567D01*
X318101Y209501D01*
X318193Y209427D01*
X318285Y209346D01*
X318370Y209262D01*
X318374Y209258D01*
X318381Y209251D01*
X318392Y209236D01*
X318410Y209217D01*
X318433Y209192D01*
X318458Y209158D01*
X318488Y209118D01*
X318525Y209070D01*
X318565Y209018D01*
X318609Y208960D01*
X318657Y208890D01*
X318709Y208816D01*
X318764Y208731D01*
X318823Y208643D01*
X318889Y208543D01*
X318955Y208437D01*
X319578Y207442D01*
X318344D01*
X317604Y208551D01*
X317600Y208558D01*
X317586Y208577D01*
X317567Y208606D01*
X317541Y208647D01*
X317508Y208694D01*
X317471Y208746D01*
X317431Y208805D01*
X317387Y208867D01*
X317295Y208993D01*
X317250Y209055D01*
X317206Y209118D01*
X317166Y209173D01*
X317125Y209221D01*
X317088Y209265D01*
X317059Y209298D01*
X317051Y209306D01*
X317033Y209324D01*
X317004Y209350D01*
X316967Y209383D01*
X316919Y209420D01*
X316867Y209453D01*
X316812Y209486D01*
X316749Y209512D01*
X316742Y209516D01*
X316731Y209519D01*
X316720Y209523D01*
X316702Y209527D01*
X316679Y209530D01*
X316654Y209538D01*
X316624Y209541D01*
X316591Y209549D01*
X316554Y209552D01*
X316510Y209556D01*
X316462Y209564D01*
X316414Y209567D01*
X316359D01*
X316296Y209571D01*
X316028D01*
Y207442D01*
X315000D01*
Y212540D01*
X317239D01*
X317295Y212536D01*
D02*
G37*
G36*
X321604Y182598D02*
X321651Y182595D01*
X321714Y182587D01*
X321784Y182576D01*
X321861Y182565D01*
X321946Y182543D01*
X322038Y182521D01*
X322130Y182492D01*
X322226Y182451D01*
X322322Y182407D01*
X322418Y182355D01*
X322513Y182293D01*
X322602Y182223D01*
X322686Y182142D01*
X322690Y182138D01*
X322701Y182123D01*
X322720Y182105D01*
X322742Y182075D01*
X322771Y182038D01*
X322801Y181998D01*
X322834Y181950D01*
X322867Y181895D01*
X322900Y181836D01*
X322933Y181770D01*
X322963Y181700D01*
X322992Y181626D01*
X323014Y181549D01*
X323033Y181468D01*
X323044Y181383D01*
X323047Y181295D01*
Y181287D01*
Y181265D01*
X323044Y181232D01*
X323036Y181184D01*
X323025Y181125D01*
X323007Y181063D01*
X322985Y180989D01*
X322955Y180908D01*
X322915Y180827D01*
X322867Y180738D01*
X322808Y180650D01*
X322738Y180558D01*
X322653Y180470D01*
X322605Y180425D01*
X322554Y180385D01*
X322499Y180341D01*
X322440Y180300D01*
X322377Y180260D01*
X322311Y180223D01*
X322314D01*
X322329Y180219D01*
X322351Y180212D01*
X322384Y180204D01*
X322421Y180193D01*
X322462Y180175D01*
X322510Y180156D01*
X322561Y180134D01*
X322616Y180109D01*
X322675Y180079D01*
X322734Y180046D01*
X322789Y180005D01*
X322849Y179965D01*
X322904Y179914D01*
X322959Y179862D01*
X323010Y179803D01*
X323014Y179799D01*
X323022Y179788D01*
X323036Y179770D01*
X323051Y179744D01*
X323069Y179715D01*
X323092Y179674D01*
X323117Y179630D01*
X323143Y179582D01*
X323165Y179527D01*
X323191Y179468D01*
X323213Y179401D01*
X323232Y179331D01*
X323246Y179258D01*
X323261Y179181D01*
X323268Y179100D01*
X323272Y179015D01*
Y179007D01*
Y178985D01*
X323268Y178948D01*
X323265Y178901D01*
X323257Y178845D01*
X323246Y178775D01*
X323232Y178702D01*
X323209Y178621D01*
X323184Y178532D01*
X323150Y178440D01*
X323110Y178344D01*
X323066Y178249D01*
X323007Y178149D01*
X322941Y178053D01*
X322867Y177962D01*
X322779Y177869D01*
X322771Y177866D01*
X322756Y177851D01*
X322727Y177825D01*
X322690Y177796D01*
X322642Y177759D01*
X322587Y177722D01*
X322517Y177678D01*
X322443Y177634D01*
X322359Y177589D01*
X322267Y177549D01*
X322167Y177509D01*
X322057Y177472D01*
X321942Y177442D01*
X321821Y177420D01*
X321692Y177402D01*
X321559Y177398D01*
X321530D01*
X321493Y177402D01*
X321445Y177405D01*
X321386Y177409D01*
X321316Y177420D01*
X321243Y177431D01*
X321158Y177449D01*
X321070Y177468D01*
X320978Y177494D01*
X320882Y177527D01*
X320786Y177567D01*
X320690Y177612D01*
X320594Y177663D01*
X320502Y177726D01*
X320414Y177796D01*
X320410Y177799D01*
X320396Y177814D01*
X320370Y177836D01*
X320340Y177869D01*
X320307Y177906D01*
X320267Y177954D01*
X320223Y178013D01*
X320178Y178076D01*
X320130Y178146D01*
X320086Y178223D01*
X320042Y178311D01*
X319998Y178403D01*
X319961Y178499D01*
X319932Y178606D01*
X319906Y178717D01*
X319887Y178834D01*
X320834Y178952D01*
Y178948D01*
X320838Y178937D01*
Y178919D01*
X320845Y178893D01*
X320849Y178860D01*
X320860Y178827D01*
X320867Y178787D01*
X320882Y178746D01*
X320911Y178658D01*
X320955Y178566D01*
X321007Y178473D01*
X321040Y178433D01*
X321073Y178396D01*
X321077Y178392D01*
X321084Y178389D01*
X321095Y178378D01*
X321110Y178367D01*
X321129Y178352D01*
X321151Y178337D01*
X321209Y178304D01*
X321279Y178267D01*
X321361Y178238D01*
X321453Y178216D01*
X321501Y178212D01*
X321552Y178208D01*
X321581D01*
X321604Y178212D01*
X321629Y178216D01*
X321659Y178219D01*
X321729Y178238D01*
X321810Y178263D01*
X321850Y178282D01*
X321895Y178304D01*
X321939Y178330D01*
X321979Y178363D01*
X322020Y178396D01*
X322060Y178437D01*
X322064Y178440D01*
X322068Y178448D01*
X322079Y178459D01*
X322094Y178477D01*
X322108Y178503D01*
X322127Y178529D01*
X322145Y178562D01*
X322167Y178599D01*
X322186Y178643D01*
X322204Y178687D01*
X322222Y178739D01*
X322237Y178794D01*
X322252Y178853D01*
X322263Y178915D01*
X322267Y178985D01*
X322270Y179055D01*
Y179059D01*
Y179070D01*
Y179092D01*
X322267Y179118D01*
X322263Y179147D01*
X322259Y179184D01*
X322256Y179225D01*
X322244Y179265D01*
X322222Y179361D01*
X322186Y179457D01*
X322163Y179505D01*
X322138Y179552D01*
X322108Y179600D01*
X322071Y179641D01*
X322068Y179645D01*
X322064Y179652D01*
X322053Y179659D01*
X322034Y179674D01*
X322016Y179692D01*
X321994Y179711D01*
X321935Y179751D01*
X321865Y179788D01*
X321784Y179825D01*
X321740Y179840D01*
X321692Y179847D01*
X321641Y179855D01*
X321589Y179858D01*
X321556D01*
X321537Y179855D01*
X321515D01*
X321464Y179851D01*
X321397Y179840D01*
X321320Y179829D01*
X321235Y179810D01*
X321143Y179785D01*
X321250Y180580D01*
X321316D01*
X321349Y180584D01*
X321386Y180587D01*
X321431Y180591D01*
X321475Y180599D01*
X321574Y180617D01*
X321674Y180646D01*
X321725Y180669D01*
X321773Y180691D01*
X321817Y180716D01*
X321858Y180749D01*
X321861Y180753D01*
X321865Y180757D01*
X321876Y180768D01*
X321891Y180783D01*
X321906Y180801D01*
X321924Y180823D01*
X321942Y180849D01*
X321965Y180878D01*
X322001Y180948D01*
X322034Y181033D01*
X322049Y181077D01*
X322060Y181129D01*
X322064Y181180D01*
X322068Y181236D01*
Y181239D01*
Y181247D01*
Y181261D01*
X322064Y181280D01*
Y181302D01*
X322060Y181324D01*
X322049Y181383D01*
X322031Y181449D01*
X322001Y181516D01*
X321965Y181582D01*
X321913Y181644D01*
X321906Y181652D01*
X321884Y181670D01*
X321850Y181692D01*
X321802Y181722D01*
X321744Y181751D01*
X321674Y181773D01*
X321596Y181792D01*
X321504Y181799D01*
X321478D01*
X321464Y181796D01*
X321442D01*
X321416Y181792D01*
X321357Y181777D01*
X321291Y181755D01*
X321217Y181726D01*
X321143Y181681D01*
X321106Y181652D01*
X321073Y181622D01*
X321070Y181619D01*
X321066Y181615D01*
X321059Y181604D01*
X321044Y181589D01*
X321033Y181571D01*
X321014Y181549D01*
X321000Y181523D01*
X320981Y181493D01*
X320963Y181460D01*
X320944Y181423D01*
X320926Y181383D01*
X320908Y181335D01*
X320893Y181287D01*
X320878Y181236D01*
X320867Y181177D01*
X320860Y181118D01*
X319961Y181269D01*
Y181273D01*
X319965Y181291D01*
X319972Y181313D01*
X319979Y181346D01*
X319987Y181387D01*
X320001Y181431D01*
X320013Y181482D01*
X320031Y181534D01*
X320071Y181652D01*
X320119Y181777D01*
X320175Y181899D01*
X320208Y181954D01*
X320241Y182009D01*
X320245Y182013D01*
X320248Y182020D01*
X320259Y182035D01*
X320278Y182053D01*
X320296Y182079D01*
X320318Y182105D01*
X320348Y182134D01*
X320381Y182167D01*
X320414Y182201D01*
X320454Y182237D01*
X320499Y182274D01*
X320547Y182307D01*
X320598Y182344D01*
X320650Y182381D01*
X320771Y182444D01*
X320775Y182447D01*
X320786Y182451D01*
X320804Y182458D01*
X320830Y182470D01*
X320863Y182481D01*
X320900Y182495D01*
X320944Y182510D01*
X320992Y182525D01*
X321048Y182539D01*
X321106Y182551D01*
X321169Y182565D01*
X321235Y182576D01*
X321379Y182595D01*
X321456Y182602D01*
X321567D01*
X321604Y182598D01*
D02*
G37*
G36*
X317295Y182580D02*
X317365D01*
X317442Y182576D01*
X317526Y182573D01*
X317619Y182565D01*
X317714Y182558D01*
X317810Y182551D01*
X318009Y182525D01*
X318101Y182510D01*
X318190Y182492D01*
X318274Y182470D01*
X318348Y182444D01*
X318351D01*
X318363Y182436D01*
X318385Y182429D01*
X318410Y182418D01*
X318440Y182403D01*
X318477Y182381D01*
X318517Y182359D01*
X318561Y182333D01*
X318609Y182300D01*
X318657Y182263D01*
X318705Y182223D01*
X318757Y182178D01*
X318804Y182131D01*
X318852Y182075D01*
X318897Y182017D01*
X318941Y181954D01*
X318944Y181950D01*
X318952Y181939D01*
X318963Y181917D01*
X318978Y181891D01*
X318992Y181858D01*
X319011Y181821D01*
X319033Y181773D01*
X319055Y181722D01*
X319073Y181667D01*
X319095Y181604D01*
X319114Y181538D01*
X319132Y181468D01*
X319143Y181394D01*
X319154Y181317D01*
X319162Y181239D01*
X319165Y181155D01*
Y181147D01*
Y181129D01*
X319162Y181099D01*
Y181059D01*
X319154Y181011D01*
X319147Y180952D01*
X319136Y180889D01*
X319125Y180819D01*
X319107Y180746D01*
X319084Y180669D01*
X319055Y180591D01*
X319022Y180510D01*
X318985Y180433D01*
X318937Y180352D01*
X318886Y180278D01*
X318827Y180204D01*
X318823Y180201D01*
X318812Y180190D01*
X318790Y180171D01*
X318764Y180145D01*
X318727Y180116D01*
X318687Y180083D01*
X318635Y180046D01*
X318576Y180005D01*
X318506Y179965D01*
X318433Y179928D01*
X318351Y179888D01*
X318260Y179851D01*
X318160Y179814D01*
X318053Y179785D01*
X317939Y179759D01*
X317817Y179737D01*
X317821Y179733D01*
X317832Y179729D01*
X317851Y179718D01*
X317873Y179704D01*
X317902Y179685D01*
X317935Y179663D01*
X317972Y179637D01*
X318013Y179611D01*
X318101Y179545D01*
X318193Y179471D01*
X318285Y179391D01*
X318370Y179306D01*
X318374Y179302D01*
X318381Y179295D01*
X318392Y179280D01*
X318410Y179262D01*
X318433Y179236D01*
X318458Y179203D01*
X318488Y179162D01*
X318525Y179114D01*
X318565Y179063D01*
X318609Y179004D01*
X318657Y178934D01*
X318709Y178860D01*
X318764Y178775D01*
X318823Y178687D01*
X318889Y178588D01*
X318955Y178481D01*
X319578Y177486D01*
X318344D01*
X317604Y178595D01*
X317600Y178602D01*
X317586Y178621D01*
X317567Y178650D01*
X317541Y178691D01*
X317508Y178739D01*
X317471Y178790D01*
X317431Y178849D01*
X317387Y178912D01*
X317295Y179037D01*
X317250Y179100D01*
X317206Y179162D01*
X317166Y179217D01*
X317125Y179265D01*
X317088Y179309D01*
X317059Y179343D01*
X317051Y179350D01*
X317033Y179368D01*
X317004Y179394D01*
X316967Y179427D01*
X316919Y179464D01*
X316867Y179497D01*
X316812Y179530D01*
X316749Y179556D01*
X316742Y179560D01*
X316731Y179564D01*
X316720Y179567D01*
X316702Y179571D01*
X316679Y179575D01*
X316654Y179582D01*
X316624Y179586D01*
X316591Y179593D01*
X316554Y179597D01*
X316510Y179600D01*
X316462Y179608D01*
X316414Y179611D01*
X316359D01*
X316296Y179615D01*
X316028D01*
Y177486D01*
X315000D01*
Y182584D01*
X317239D01*
X317295Y182580D01*
D02*
G37*
G36*
X322782Y194321D02*
X323416D01*
Y193466D01*
X322782D01*
Y192442D01*
X321836D01*
Y193466D01*
X319751D01*
Y194317D01*
X321961Y197558D01*
X322782D01*
Y194321D01*
D02*
G37*
G36*
X317295Y197536D02*
X317365D01*
X317442Y197532D01*
X317526Y197528D01*
X317619Y197521D01*
X317714Y197514D01*
X317810Y197506D01*
X318009Y197481D01*
X318101Y197466D01*
X318190Y197447D01*
X318274Y197425D01*
X318348Y197400D01*
X318351D01*
X318363Y197392D01*
X318385Y197385D01*
X318410Y197374D01*
X318440Y197359D01*
X318477Y197337D01*
X318517Y197315D01*
X318561Y197289D01*
X318609Y197256D01*
X318657Y197219D01*
X318705Y197178D01*
X318757Y197134D01*
X318804Y197086D01*
X318852Y197031D01*
X318897Y196972D01*
X318941Y196910D01*
X318944Y196906D01*
X318952Y196895D01*
X318963Y196873D01*
X318978Y196847D01*
X318992Y196814D01*
X319011Y196777D01*
X319033Y196729D01*
X319055Y196678D01*
X319073Y196622D01*
X319095Y196560D01*
X319114Y196493D01*
X319132Y196423D01*
X319143Y196350D01*
X319154Y196273D01*
X319162Y196195D01*
X319165Y196110D01*
Y196103D01*
Y196085D01*
X319162Y196055D01*
Y196015D01*
X319154Y195967D01*
X319147Y195908D01*
X319136Y195845D01*
X319125Y195775D01*
X319107Y195702D01*
X319084Y195624D01*
X319055Y195547D01*
X319022Y195466D01*
X318985Y195389D01*
X318937Y195308D01*
X318886Y195234D01*
X318827Y195160D01*
X318823Y195156D01*
X318812Y195145D01*
X318790Y195127D01*
X318764Y195101D01*
X318727Y195072D01*
X318687Y195039D01*
X318635Y195002D01*
X318576Y194961D01*
X318506Y194921D01*
X318433Y194884D01*
X318351Y194844D01*
X318260Y194807D01*
X318160Y194770D01*
X318053Y194740D01*
X317939Y194715D01*
X317817Y194692D01*
X317821Y194689D01*
X317832Y194685D01*
X317851Y194674D01*
X317873Y194659D01*
X317902Y194641D01*
X317935Y194619D01*
X317972Y194593D01*
X318013Y194567D01*
X318101Y194501D01*
X318193Y194427D01*
X318285Y194346D01*
X318370Y194262D01*
X318374Y194258D01*
X318381Y194251D01*
X318392Y194236D01*
X318410Y194217D01*
X318433Y194192D01*
X318458Y194158D01*
X318488Y194118D01*
X318525Y194070D01*
X318565Y194018D01*
X318609Y193960D01*
X318657Y193890D01*
X318709Y193816D01*
X318764Y193731D01*
X318823Y193643D01*
X318889Y193543D01*
X318955Y193437D01*
X319578Y192442D01*
X318344D01*
X317604Y193551D01*
X317600Y193558D01*
X317586Y193577D01*
X317567Y193606D01*
X317541Y193647D01*
X317508Y193694D01*
X317471Y193746D01*
X317431Y193805D01*
X317387Y193867D01*
X317295Y193993D01*
X317250Y194055D01*
X317206Y194118D01*
X317166Y194173D01*
X317125Y194221D01*
X317088Y194265D01*
X317059Y194298D01*
X317051Y194306D01*
X317033Y194324D01*
X317004Y194350D01*
X316967Y194383D01*
X316919Y194420D01*
X316867Y194453D01*
X316812Y194486D01*
X316749Y194512D01*
X316742Y194516D01*
X316731Y194519D01*
X316720Y194523D01*
X316702Y194527D01*
X316679Y194530D01*
X316654Y194538D01*
X316624Y194541D01*
X316591Y194549D01*
X316554Y194552D01*
X316510Y194556D01*
X316462Y194564D01*
X316414Y194567D01*
X316359D01*
X316296Y194571D01*
X316028D01*
Y192442D01*
X315000D01*
Y197539D01*
X317239D01*
X317295Y197536D01*
D02*
G37*
G36*
X302040Y151854D02*
Y151846D01*
Y151824D01*
Y151795D01*
Y151750D01*
X302036Y151695D01*
X302032Y151636D01*
X302029Y151566D01*
X302025Y151496D01*
X302021Y151419D01*
X302010Y151338D01*
X301992Y151176D01*
X301977Y151099D01*
X301962Y151021D01*
X301944Y150948D01*
X301926Y150881D01*
Y150878D01*
X301918Y150863D01*
X301911Y150837D01*
X301896Y150808D01*
X301878Y150771D01*
X301859Y150727D01*
X301833Y150679D01*
X301804Y150624D01*
X301767Y150568D01*
X301730Y150509D01*
X301686Y150450D01*
X301635Y150392D01*
X301579Y150333D01*
X301520Y150274D01*
X301454Y150218D01*
X301384Y150167D01*
X301380Y150163D01*
X301366Y150156D01*
X301343Y150141D01*
X301314Y150126D01*
X301274Y150104D01*
X301226Y150082D01*
X301170Y150056D01*
X301108Y150034D01*
X301038Y150008D01*
X300961Y149983D01*
X300876Y149961D01*
X300784Y149938D01*
X300684Y149924D01*
X300578Y149909D01*
X300467Y149902D01*
X300349Y149898D01*
X300316D01*
X300275Y149902D01*
X300224Y149905D01*
X300161Y149913D01*
X300088Y149920D01*
X300007Y149935D01*
X299922Y149950D01*
X299830Y149972D01*
X299734Y150001D01*
X299638Y150034D01*
X299539Y150075D01*
X299443Y150123D01*
X299351Y150178D01*
X299266Y150244D01*
X299185Y150318D01*
X299182Y150322D01*
X299167Y150336D01*
X299149Y150362D01*
X299123Y150395D01*
X299093Y150443D01*
X299056Y150495D01*
X299020Y150557D01*
X298983Y150631D01*
X298946Y150716D01*
X298909Y150808D01*
X298876Y150911D01*
X298843Y151021D01*
X298817Y151143D01*
X298799Y151272D01*
X298784Y151412D01*
X298780Y151563D01*
X299749Y151673D01*
Y151670D01*
Y151655D01*
X299753Y151633D01*
Y151603D01*
X299756Y151566D01*
X299760Y151522D01*
X299764Y151478D01*
X299771Y151430D01*
X299786Y151327D01*
X299808Y151224D01*
X299823Y151176D01*
X299837Y151128D01*
X299856Y151088D01*
X299874Y151051D01*
X299878Y151047D01*
X299881Y151040D01*
X299892Y151025D01*
X299907Y151007D01*
X299926Y150988D01*
X299944Y150966D01*
X299970Y150940D01*
X300003Y150914D01*
X300036Y150889D01*
X300073Y150863D01*
X300113Y150841D01*
X300161Y150822D01*
X300209Y150804D01*
X300264Y150789D01*
X300320Y150782D01*
X300382Y150778D01*
X300415D01*
X300438Y150782D01*
X300467Y150786D01*
X300500Y150789D01*
X300570Y150804D01*
X300651Y150826D01*
X300732Y150859D01*
X300769Y150881D01*
X300806Y150911D01*
X300839Y150940D01*
X300868Y150973D01*
Y150977D01*
X300876Y150984D01*
X300883Y150996D01*
X300891Y151014D01*
X300902Y151036D01*
X300913Y151069D01*
X300927Y151106D01*
X300942Y151150D01*
X300953Y151198D01*
X300968Y151257D01*
X300979Y151323D01*
X300990Y151401D01*
X300997Y151482D01*
X301005Y151574D01*
X301012Y151677D01*
Y151787D01*
Y155084D01*
X302040D01*
Y151854D01*
D02*
G37*
G36*
X304673Y155098D02*
X304725Y155095D01*
X304787Y155091D01*
X304861Y155080D01*
X304942Y155069D01*
X305030Y155050D01*
X305122Y155028D01*
X305222Y155003D01*
X305321Y154970D01*
X305417Y154929D01*
X305516Y154881D01*
X305612Y154830D01*
X305700Y154767D01*
X305785Y154693D01*
X305789Y154690D01*
X305804Y154675D01*
X305826Y154653D01*
X305851Y154620D01*
X305885Y154579D01*
X305921Y154535D01*
X305962Y154476D01*
X306003Y154413D01*
X306043Y154343D01*
X306084Y154270D01*
X306120Y154185D01*
X306154Y154097D01*
X306179Y154001D01*
X306201Y153898D01*
X306216Y153791D01*
X306220Y153680D01*
Y153677D01*
Y153666D01*
Y153647D01*
Y153622D01*
X306216Y153592D01*
X306213Y153555D01*
X306209Y153515D01*
X306205Y153470D01*
X306190Y153371D01*
X306168Y153261D01*
X306135Y153143D01*
X306095Y153025D01*
Y153021D01*
X306087Y153010D01*
X306080Y152995D01*
X306073Y152970D01*
X306058Y152944D01*
X306039Y152911D01*
X306021Y152870D01*
X305999Y152830D01*
X305973Y152782D01*
X305944Y152730D01*
X305877Y152620D01*
X305796Y152502D01*
X305704Y152377D01*
X305700Y152373D01*
X305697Y152366D01*
X305686Y152354D01*
X305671Y152336D01*
X305649Y152310D01*
X305623Y152281D01*
X305594Y152248D01*
X305557Y152211D01*
X305516Y152167D01*
X305469Y152119D01*
X305417Y152064D01*
X305358Y152005D01*
X305295Y151942D01*
X305225Y151876D01*
X305148Y151802D01*
X305063Y151725D01*
X305060Y151721D01*
X305045Y151706D01*
X305019Y151684D01*
X304990Y151655D01*
X304953Y151622D01*
X304909Y151585D01*
X304865Y151541D01*
X304817Y151496D01*
X304717Y151401D01*
X304618Y151309D01*
X304573Y151264D01*
X304537Y151228D01*
X304500Y151191D01*
X304474Y151161D01*
X304470Y151154D01*
X304456Y151139D01*
X304430Y151110D01*
X304404Y151076D01*
X304371Y151036D01*
X304338Y150988D01*
X304305Y150940D01*
X304275Y150892D01*
X306220D01*
Y149986D01*
X302795D01*
Y149994D01*
X302798Y150008D01*
X302802Y150038D01*
X302809Y150075D01*
X302817Y150119D01*
X302828Y150174D01*
X302839Y150233D01*
X302857Y150299D01*
X302876Y150373D01*
X302901Y150450D01*
X302927Y150528D01*
X302957Y150612D01*
X302994Y150697D01*
X303034Y150786D01*
X303078Y150870D01*
X303126Y150959D01*
X303130Y150962D01*
X303141Y150981D01*
X303159Y151007D01*
X303181Y151043D01*
X303214Y151088D01*
X303259Y151143D01*
X303310Y151209D01*
X303369Y151283D01*
X303439Y151368D01*
X303517Y151460D01*
X303609Y151559D01*
X303708Y151670D01*
X303822Y151787D01*
X303944Y151909D01*
X304080Y152042D01*
X304227Y152181D01*
X304231Y152185D01*
X304235Y152189D01*
X304257Y152207D01*
X304290Y152240D01*
X304334Y152281D01*
X304386Y152332D01*
X304445Y152388D01*
X304507Y152450D01*
X304577Y152517D01*
X304713Y152656D01*
X304783Y152723D01*
X304846Y152793D01*
X304909Y152855D01*
X304960Y152914D01*
X305004Y152970D01*
X305038Y153014D01*
X305041Y153018D01*
X305045Y153028D01*
X305056Y153043D01*
X305071Y153065D01*
X305086Y153095D01*
X305100Y153124D01*
X305119Y153161D01*
X305141Y153202D01*
X305177Y153294D01*
X305207Y153393D01*
X305233Y153504D01*
X305236Y153559D01*
X305240Y153614D01*
Y153618D01*
Y153629D01*
Y153644D01*
X305236Y153669D01*
Y153695D01*
X305233Y153725D01*
X305218Y153798D01*
X305196Y153879D01*
X305166Y153964D01*
X305122Y154041D01*
X305093Y154082D01*
X305063Y154115D01*
X305060Y154119D01*
X305056Y154122D01*
X305045Y154130D01*
X305030Y154144D01*
X305012Y154156D01*
X304990Y154170D01*
X304964Y154189D01*
X304938Y154203D01*
X304868Y154236D01*
X304783Y154266D01*
X304688Y154284D01*
X304632Y154288D01*
X304577Y154292D01*
X304548D01*
X304526Y154288D01*
X304500D01*
X304470Y154281D01*
X304400Y154270D01*
X304323Y154248D01*
X304238Y154214D01*
X304202Y154192D01*
X304161Y154170D01*
X304124Y154141D01*
X304087Y154108D01*
X304084Y154104D01*
X304080Y154100D01*
X304069Y154089D01*
X304058Y154071D01*
X304043Y154052D01*
X304028Y154027D01*
X304014Y153997D01*
X303995Y153964D01*
X303977Y153924D01*
X303958Y153879D01*
X303940Y153828D01*
X303925Y153772D01*
X303911Y153710D01*
X303896Y153644D01*
X303888Y153574D01*
X303881Y153496D01*
X302909Y153592D01*
Y153596D01*
Y153603D01*
X302913Y153614D01*
Y153629D01*
X302916Y153647D01*
X302920Y153669D01*
X302931Y153725D01*
X302942Y153791D01*
X302960Y153865D01*
X302983Y153949D01*
X303008Y154038D01*
X303041Y154133D01*
X303078Y154229D01*
X303122Y154325D01*
X303174Y154421D01*
X303229Y154513D01*
X303295Y154598D01*
X303369Y154678D01*
X303450Y154748D01*
X303454Y154752D01*
X303472Y154763D01*
X303498Y154782D01*
X303531Y154804D01*
X303579Y154830D01*
X303631Y154859D01*
X303697Y154892D01*
X303767Y154925D01*
X303844Y154958D01*
X303933Y154992D01*
X304028Y155021D01*
X304128Y155047D01*
X304238Y155069D01*
X304353Y155087D01*
X304474Y155098D01*
X304599Y155102D01*
X304632D01*
X304673Y155098D01*
D02*
G37*
G36*
X267014Y86854D02*
Y86846D01*
Y86824D01*
Y86795D01*
Y86751D01*
X267010Y86695D01*
X267006Y86636D01*
X267003Y86566D01*
X266999Y86496D01*
X266995Y86419D01*
X266984Y86338D01*
X266966Y86176D01*
X266951Y86099D01*
X266936Y86021D01*
X266918Y85948D01*
X266900Y85881D01*
Y85878D01*
X266892Y85863D01*
X266885Y85837D01*
X266870Y85808D01*
X266852Y85771D01*
X266833Y85727D01*
X266808Y85679D01*
X266778Y85624D01*
X266741Y85568D01*
X266704Y85509D01*
X266660Y85450D01*
X266609Y85392D01*
X266553Y85333D01*
X266495Y85274D01*
X266428Y85218D01*
X266358Y85167D01*
X266355Y85163D01*
X266340Y85156D01*
X266318Y85141D01*
X266288Y85126D01*
X266248Y85104D01*
X266200Y85082D01*
X266145Y85056D01*
X266082Y85034D01*
X266012Y85008D01*
X265935Y84983D01*
X265850Y84961D01*
X265758Y84938D01*
X265658Y84924D01*
X265552Y84909D01*
X265441Y84902D01*
X265323Y84898D01*
X265290D01*
X265250Y84902D01*
X265198Y84905D01*
X265135Y84913D01*
X265062Y84920D01*
X264981Y84935D01*
X264896Y84950D01*
X264804Y84972D01*
X264708Y85001D01*
X264613Y85034D01*
X264513Y85075D01*
X264417Y85123D01*
X264325Y85178D01*
X264240Y85244D01*
X264160Y85318D01*
X264156Y85322D01*
X264141Y85336D01*
X264123Y85362D01*
X264097Y85395D01*
X264067Y85443D01*
X264031Y85495D01*
X263994Y85557D01*
X263957Y85631D01*
X263920Y85716D01*
X263883Y85808D01*
X263850Y85911D01*
X263817Y86021D01*
X263791Y86143D01*
X263773Y86272D01*
X263758Y86412D01*
X263754Y86563D01*
X264723Y86673D01*
Y86670D01*
Y86655D01*
X264727Y86633D01*
Y86603D01*
X264730Y86566D01*
X264734Y86522D01*
X264738Y86478D01*
X264745Y86430D01*
X264760Y86327D01*
X264782Y86224D01*
X264797Y86176D01*
X264811Y86128D01*
X264830Y86088D01*
X264848Y86051D01*
X264852Y86047D01*
X264856Y86040D01*
X264867Y86025D01*
X264881Y86007D01*
X264900Y85988D01*
X264918Y85966D01*
X264944Y85940D01*
X264977Y85914D01*
X265010Y85889D01*
X265047Y85863D01*
X265088Y85841D01*
X265135Y85822D01*
X265183Y85804D01*
X265239Y85789D01*
X265294Y85782D01*
X265357Y85778D01*
X265390D01*
X265412Y85782D01*
X265441Y85786D01*
X265474Y85789D01*
X265544Y85804D01*
X265625Y85826D01*
X265706Y85859D01*
X265743Y85881D01*
X265780Y85911D01*
X265813Y85940D01*
X265843Y85973D01*
Y85977D01*
X265850Y85984D01*
X265857Y85996D01*
X265865Y86014D01*
X265876Y86036D01*
X265887Y86069D01*
X265902Y86106D01*
X265916Y86150D01*
X265927Y86198D01*
X265942Y86257D01*
X265953Y86323D01*
X265964Y86401D01*
X265972Y86482D01*
X265979Y86574D01*
X265986Y86677D01*
Y86787D01*
Y90084D01*
X267014D01*
Y86854D01*
D02*
G37*
G36*
X269577Y90098D02*
X269625Y90095D01*
X269688Y90087D01*
X269758Y90076D01*
X269835Y90065D01*
X269920Y90043D01*
X270012Y90021D01*
X270104Y89992D01*
X270200Y89951D01*
X270295Y89907D01*
X270391Y89855D01*
X270487Y89793D01*
X270575Y89723D01*
X270660Y89642D01*
X270664Y89638D01*
X270675Y89623D01*
X270693Y89605D01*
X270715Y89575D01*
X270745Y89539D01*
X270774Y89498D01*
X270807Y89450D01*
X270840Y89395D01*
X270874Y89336D01*
X270907Y89270D01*
X270936Y89200D01*
X270966Y89126D01*
X270988Y89049D01*
X271006Y88968D01*
X271017Y88883D01*
X271021Y88795D01*
Y88787D01*
Y88765D01*
X271017Y88732D01*
X271010Y88684D01*
X270999Y88625D01*
X270980Y88563D01*
X270958Y88489D01*
X270929Y88408D01*
X270888Y88327D01*
X270840Y88238D01*
X270781Y88150D01*
X270711Y88058D01*
X270627Y87970D01*
X270579Y87925D01*
X270527Y87885D01*
X270472Y87841D01*
X270413Y87800D01*
X270351Y87760D01*
X270284Y87723D01*
X270288D01*
X270303Y87719D01*
X270325Y87712D01*
X270358Y87704D01*
X270395Y87693D01*
X270435Y87675D01*
X270483Y87657D01*
X270535Y87634D01*
X270590Y87609D01*
X270649Y87579D01*
X270708Y87546D01*
X270763Y87506D01*
X270822Y87465D01*
X270877Y87414D01*
X270933Y87362D01*
X270984Y87303D01*
X270988Y87299D01*
X270995Y87288D01*
X271010Y87270D01*
X271025Y87244D01*
X271043Y87215D01*
X271065Y87174D01*
X271091Y87130D01*
X271117Y87082D01*
X271139Y87027D01*
X271165Y86968D01*
X271187Y86902D01*
X271205Y86832D01*
X271220Y86758D01*
X271234Y86681D01*
X271242Y86600D01*
X271246Y86515D01*
Y86508D01*
Y86485D01*
X271242Y86448D01*
X271238Y86401D01*
X271231Y86345D01*
X271220Y86275D01*
X271205Y86202D01*
X271183Y86121D01*
X271157Y86032D01*
X271124Y85940D01*
X271084Y85844D01*
X271039Y85749D01*
X270980Y85649D01*
X270914Y85554D01*
X270840Y85462D01*
X270752Y85369D01*
X270745Y85366D01*
X270730Y85351D01*
X270700Y85325D01*
X270664Y85296D01*
X270616Y85259D01*
X270560Y85222D01*
X270491Y85178D01*
X270417Y85134D01*
X270332Y85090D01*
X270240Y85049D01*
X270141Y85008D01*
X270030Y84972D01*
X269916Y84942D01*
X269795Y84920D01*
X269666Y84902D01*
X269533Y84898D01*
X269503D01*
X269467Y84902D01*
X269419Y84905D01*
X269360Y84909D01*
X269290Y84920D01*
X269216Y84931D01*
X269132Y84950D01*
X269043Y84968D01*
X268951Y84994D01*
X268855Y85027D01*
X268760Y85067D01*
X268664Y85112D01*
X268568Y85163D01*
X268476Y85226D01*
X268388Y85296D01*
X268384Y85299D01*
X268369Y85314D01*
X268343Y85336D01*
X268314Y85369D01*
X268281Y85406D01*
X268240Y85454D01*
X268196Y85513D01*
X268152Y85576D01*
X268104Y85646D01*
X268060Y85723D01*
X268016Y85811D01*
X267971Y85904D01*
X267935Y85999D01*
X267905Y86106D01*
X267879Y86216D01*
X267861Y86334D01*
X268807Y86452D01*
Y86448D01*
X268811Y86438D01*
Y86419D01*
X268818Y86393D01*
X268822Y86360D01*
X268833Y86327D01*
X268841Y86286D01*
X268855Y86246D01*
X268885Y86158D01*
X268929Y86066D01*
X268981Y85973D01*
X269014Y85933D01*
X269047Y85896D01*
X269051Y85892D01*
X269058Y85889D01*
X269069Y85878D01*
X269084Y85867D01*
X269102Y85852D01*
X269124Y85837D01*
X269183Y85804D01*
X269253Y85767D01*
X269334Y85738D01*
X269426Y85716D01*
X269474Y85712D01*
X269526Y85708D01*
X269555D01*
X269577Y85712D01*
X269603Y85716D01*
X269632Y85719D01*
X269702Y85738D01*
X269783Y85764D01*
X269824Y85782D01*
X269868Y85804D01*
X269912Y85830D01*
X269953Y85863D01*
X269993Y85896D01*
X270034Y85937D01*
X270038Y85940D01*
X270041Y85948D01*
X270052Y85959D01*
X270067Y85977D01*
X270082Y86003D01*
X270100Y86029D01*
X270119Y86062D01*
X270141Y86099D01*
X270159Y86143D01*
X270177Y86187D01*
X270196Y86239D01*
X270211Y86294D01*
X270225Y86353D01*
X270236Y86415D01*
X270240Y86485D01*
X270244Y86555D01*
Y86559D01*
Y86570D01*
Y86592D01*
X270240Y86618D01*
X270236Y86647D01*
X270233Y86684D01*
X270229Y86725D01*
X270218Y86765D01*
X270196Y86861D01*
X270159Y86957D01*
X270137Y87005D01*
X270111Y87053D01*
X270082Y87100D01*
X270045Y87141D01*
X270041Y87145D01*
X270038Y87152D01*
X270026Y87159D01*
X270008Y87174D01*
X269990Y87192D01*
X269968Y87211D01*
X269909Y87251D01*
X269839Y87288D01*
X269758Y87325D01*
X269713Y87340D01*
X269666Y87347D01*
X269614Y87355D01*
X269562Y87358D01*
X269529D01*
X269511Y87355D01*
X269489D01*
X269437Y87351D01*
X269371Y87340D01*
X269294Y87329D01*
X269209Y87310D01*
X269117Y87285D01*
X269224Y88080D01*
X269290D01*
X269323Y88084D01*
X269360Y88088D01*
X269404Y88091D01*
X269448Y88098D01*
X269548Y88117D01*
X269647Y88146D01*
X269699Y88168D01*
X269747Y88191D01*
X269791Y88216D01*
X269831Y88250D01*
X269835Y88253D01*
X269839Y88257D01*
X269850Y88268D01*
X269865Y88283D01*
X269879Y88301D01*
X269898Y88323D01*
X269916Y88349D01*
X269938Y88378D01*
X269975Y88448D01*
X270008Y88533D01*
X270023Y88577D01*
X270034Y88629D01*
X270038Y88680D01*
X270041Y88736D01*
Y88739D01*
Y88747D01*
Y88762D01*
X270038Y88780D01*
Y88802D01*
X270034Y88824D01*
X270023Y88883D01*
X270004Y88949D01*
X269975Y89016D01*
X269938Y89082D01*
X269887Y89144D01*
X269879Y89152D01*
X269857Y89170D01*
X269824Y89192D01*
X269776Y89222D01*
X269717Y89251D01*
X269647Y89273D01*
X269570Y89292D01*
X269478Y89299D01*
X269452D01*
X269437Y89296D01*
X269415D01*
X269389Y89292D01*
X269330Y89277D01*
X269264Y89255D01*
X269191Y89226D01*
X269117Y89181D01*
X269080Y89152D01*
X269047Y89122D01*
X269043Y89119D01*
X269039Y89115D01*
X269032Y89104D01*
X269017Y89089D01*
X269006Y89071D01*
X268988Y89049D01*
X268973Y89023D01*
X268955Y88994D01*
X268936Y88960D01*
X268918Y88924D01*
X268899Y88883D01*
X268881Y88835D01*
X268866Y88787D01*
X268852Y88736D01*
X268841Y88677D01*
X268833Y88618D01*
X267935Y88769D01*
Y88772D01*
X267938Y88791D01*
X267946Y88813D01*
X267953Y88846D01*
X267960Y88887D01*
X267975Y88931D01*
X267986Y88982D01*
X268004Y89034D01*
X268045Y89152D01*
X268093Y89277D01*
X268148Y89399D01*
X268181Y89454D01*
X268214Y89509D01*
X268218Y89513D01*
X268222Y89520D01*
X268233Y89535D01*
X268251Y89553D01*
X268270Y89579D01*
X268292Y89605D01*
X268321Y89634D01*
X268354Y89668D01*
X268388Y89701D01*
X268428Y89738D01*
X268472Y89774D01*
X268520Y89807D01*
X268572Y89844D01*
X268623Y89881D01*
X268745Y89944D01*
X268748Y89947D01*
X268760Y89951D01*
X268778Y89958D01*
X268804Y89970D01*
X268837Y89980D01*
X268874Y89995D01*
X268918Y90010D01*
X268966Y90025D01*
X269021Y90040D01*
X269080Y90050D01*
X269143Y90065D01*
X269209Y90076D01*
X269352Y90095D01*
X269430Y90102D01*
X269540D01*
X269577Y90098D01*
D02*
G37*
G36*
X236630Y194902D02*
Y194899D01*
Y194891D01*
Y194880D01*
Y194862D01*
Y194840D01*
Y194814D01*
Y194785D01*
Y194755D01*
X236626Y194678D01*
Y194593D01*
X236623Y194497D01*
X236619Y194398D01*
X236615Y194291D01*
X236608Y194184D01*
X236604Y194074D01*
X236593Y193967D01*
X236586Y193867D01*
X236575Y193772D01*
X236560Y193683D01*
X236545Y193606D01*
Y193602D01*
X236542Y193588D01*
X236538Y193569D01*
X236527Y193543D01*
X236520Y193510D01*
X236509Y193473D01*
X236494Y193429D01*
X236475Y193385D01*
X236431Y193282D01*
X236380Y193175D01*
X236313Y193068D01*
X236236Y192965D01*
X236232Y192962D01*
X236225Y192954D01*
X236214Y192939D01*
X236196Y192921D01*
X236173Y192903D01*
X236148Y192877D01*
X236114Y192847D01*
X236078Y192818D01*
X236037Y192785D01*
X235993Y192752D01*
X235945Y192718D01*
X235890Y192682D01*
X235835Y192648D01*
X235772Y192615D01*
X235709Y192582D01*
X235639Y192553D01*
X235636D01*
X235621Y192545D01*
X235602Y192538D01*
X235573Y192527D01*
X235532Y192516D01*
X235488Y192505D01*
X235437Y192490D01*
X235378Y192475D01*
X235308Y192461D01*
X235234Y192446D01*
X235153Y192435D01*
X235068Y192424D01*
X234973Y192413D01*
X234877Y192405D01*
X234770Y192402D01*
X234660Y192398D01*
X234590D01*
X234538Y192402D01*
X234479D01*
X234409Y192405D01*
X234332Y192413D01*
X234247Y192420D01*
X234159Y192427D01*
X234067Y192439D01*
X233883Y192468D01*
X233794Y192486D01*
X233706Y192509D01*
X233625Y192534D01*
X233551Y192564D01*
X233547Y192567D01*
X233536Y192571D01*
X233514Y192582D01*
X233489Y192593D01*
X233459Y192612D01*
X233422Y192630D01*
X233382Y192656D01*
X233337Y192682D01*
X233242Y192744D01*
X233142Y192822D01*
X233043Y192906D01*
X232954Y193002D01*
X232951Y193006D01*
X232943Y193013D01*
X232932Y193028D01*
X232921Y193050D01*
X232903Y193072D01*
X232881Y193101D01*
X232859Y193138D01*
X232837Y193175D01*
X232789Y193260D01*
X232741Y193356D01*
X232700Y193459D01*
X232667Y193569D01*
Y193573D01*
X232663Y193591D01*
X232660Y193617D01*
X232652Y193650D01*
X232645Y193698D01*
X232634Y193753D01*
X232627Y193820D01*
X232619Y193897D01*
X232608Y193982D01*
X232601Y194077D01*
X232590Y194184D01*
X232582Y194298D01*
X232579Y194424D01*
X232571Y194560D01*
X232568Y194707D01*
Y194862D01*
Y197584D01*
X233595D01*
Y194821D01*
Y194814D01*
Y194792D01*
Y194759D01*
Y194715D01*
Y194663D01*
X233599Y194604D01*
Y194538D01*
Y194468D01*
X233603Y194324D01*
X233606Y194251D01*
X233610Y194184D01*
X233614Y194118D01*
X233621Y194059D01*
X233625Y194007D01*
X233632Y193967D01*
Y193963D01*
X233636Y193952D01*
X233640Y193937D01*
X233647Y193915D01*
X233654Y193890D01*
X233665Y193856D01*
X233695Y193787D01*
X233739Y193705D01*
X233790Y193624D01*
X233824Y193584D01*
X233860Y193543D01*
X233901Y193503D01*
X233945Y193466D01*
X233949Y193462D01*
X233956Y193459D01*
X233971Y193448D01*
X233989Y193437D01*
X234015Y193422D01*
X234048Y193407D01*
X234081Y193389D01*
X234126Y193374D01*
X234170Y193356D01*
X234221Y193337D01*
X234277Y193322D01*
X234339Y193308D01*
X234405Y193297D01*
X234472Y193286D01*
X234549Y193282D01*
X234627Y193278D01*
X234667D01*
X234700Y193282D01*
X234733D01*
X234778Y193289D01*
X234822Y193293D01*
X234873Y193300D01*
X234980Y193322D01*
X235091Y193352D01*
X235194Y193396D01*
X235242Y193426D01*
X235286Y193455D01*
X235289Y193459D01*
X235297Y193462D01*
X235308Y193473D01*
X235323Y193488D01*
X235359Y193525D01*
X235404Y193577D01*
X235452Y193643D01*
X235496Y193717D01*
X235529Y193801D01*
X235544Y193845D01*
X235555Y193893D01*
Y193897D01*
X235558Y193904D01*
Y193923D01*
X235562Y193945D01*
X235566Y193974D01*
X235569Y194007D01*
X235573Y194052D01*
X235580Y194100D01*
X235584Y194158D01*
X235588Y194221D01*
X235592Y194291D01*
X235595Y194372D01*
X235599Y194457D01*
Y194552D01*
X235602Y194652D01*
Y194762D01*
Y197584D01*
X236630D01*
Y194902D01*
D02*
G37*
G36*
X240000Y192486D02*
X239024D01*
Y196166D01*
X239017Y196158D01*
X238998Y196144D01*
X238969Y196118D01*
X238928Y196085D01*
X238877Y196044D01*
X238814Y195996D01*
X238744Y195941D01*
X238663Y195886D01*
X238575Y195827D01*
X238479Y195764D01*
X238376Y195702D01*
X238265Y195643D01*
X238148Y195584D01*
X238022Y195525D01*
X237893Y195473D01*
X237761Y195425D01*
Y196313D01*
X237764D01*
X237779Y196320D01*
X237798Y196328D01*
X237827Y196339D01*
X237864Y196353D01*
X237904Y196368D01*
X237952Y196390D01*
X238008Y196416D01*
X238066Y196449D01*
X238129Y196482D01*
X238199Y196519D01*
X238269Y196563D01*
X238346Y196611D01*
X238424Y196663D01*
X238505Y196722D01*
X238589Y196784D01*
X238593Y196788D01*
X238608Y196799D01*
X238634Y196821D01*
X238663Y196847D01*
X238700Y196880D01*
X238740Y196921D01*
X238785Y196965D01*
X238836Y197016D01*
X238884Y197075D01*
X238936Y197138D01*
X238987Y197204D01*
X239039Y197278D01*
X239087Y197352D01*
X239131Y197433D01*
X239171Y197517D01*
X239205Y197602D01*
X240000D01*
Y192486D01*
D02*
G37*
G36*
X218955Y66613D02*
X217114D01*
X216956Y65744D01*
X216959Y65748D01*
X216970Y65751D01*
X216989Y65759D01*
X217011Y65770D01*
X217044Y65781D01*
X217077Y65795D01*
X217118Y65810D01*
X217162Y65829D01*
X217210Y65843D01*
X217265Y65858D01*
X217376Y65884D01*
X217501Y65902D01*
X217563Y65910D01*
X217655D01*
X217689Y65906D01*
X217733Y65902D01*
X217792Y65895D01*
X217854Y65884D01*
X217928Y65869D01*
X218005Y65851D01*
X218090Y65825D01*
X218178Y65795D01*
X218270Y65755D01*
X218363Y65711D01*
X218458Y65656D01*
X218550Y65593D01*
X218639Y65519D01*
X218727Y65435D01*
X218731Y65431D01*
X218746Y65413D01*
X218768Y65387D01*
X218797Y65350D01*
X218834Y65302D01*
X218871Y65243D01*
X218911Y65177D01*
X218955Y65103D01*
X218996Y65018D01*
X219037Y64926D01*
X219077Y64823D01*
X219110Y64716D01*
X219140Y64598D01*
X219162Y64473D01*
X219177Y64344D01*
X219180Y64205D01*
Y64197D01*
Y64175D01*
X219177Y64142D01*
X219173Y64098D01*
X219169Y64042D01*
X219162Y63980D01*
X219151Y63906D01*
X219136Y63829D01*
X219114Y63744D01*
X219092Y63652D01*
X219062Y63560D01*
X219025Y63464D01*
X218981Y63368D01*
X218933Y63273D01*
X218878Y63177D01*
X218812Y63081D01*
X218804Y63074D01*
X218790Y63052D01*
X218760Y63018D01*
X218720Y62974D01*
X218672Y62927D01*
X218609Y62867D01*
X218536Y62809D01*
X218455Y62746D01*
X218363Y62680D01*
X218260Y62621D01*
X218145Y62562D01*
X218024Y62514D01*
X217891Y62470D01*
X217747Y62437D01*
X217596Y62414D01*
X217516Y62411D01*
X217435Y62407D01*
X217405D01*
X217368Y62411D01*
X217317Y62414D01*
X217258Y62418D01*
X217188Y62426D01*
X217110Y62440D01*
X217026Y62455D01*
X216937Y62474D01*
X216845Y62499D01*
X216749Y62529D01*
X216654Y62565D01*
X216558Y62610D01*
X216462Y62658D01*
X216370Y62716D01*
X216285Y62783D01*
X216282Y62786D01*
X216267Y62801D01*
X216245Y62823D01*
X216215Y62853D01*
X216179Y62890D01*
X216142Y62937D01*
X216098Y62989D01*
X216053Y63052D01*
X216005Y63122D01*
X215961Y63199D01*
X215917Y63280D01*
X215873Y63372D01*
X215836Y63468D01*
X215803Y63575D01*
X215773Y63682D01*
X215755Y63799D01*
X216727Y63903D01*
Y63899D01*
X216731Y63888D01*
Y63869D01*
X216738Y63847D01*
X216742Y63821D01*
X216749Y63788D01*
X216772Y63715D01*
X216805Y63630D01*
X216849Y63541D01*
X216900Y63457D01*
X216934Y63416D01*
X216970Y63380D01*
X216974Y63376D01*
X216982Y63372D01*
X216992Y63361D01*
X217007Y63350D01*
X217026Y63335D01*
X217051Y63320D01*
X217107Y63284D01*
X217177Y63247D01*
X217258Y63217D01*
X217350Y63195D01*
X217398Y63192D01*
X217446Y63188D01*
X217475D01*
X217497Y63192D01*
X217523Y63195D01*
X217552Y63203D01*
X217626Y63217D01*
X217707Y63247D01*
X217747Y63269D01*
X217792Y63291D01*
X217836Y63320D01*
X217880Y63354D01*
X217921Y63390D01*
X217961Y63435D01*
X217965Y63438D01*
X217972Y63446D01*
X217980Y63460D01*
X217994Y63483D01*
X218009Y63508D01*
X218027Y63541D01*
X218050Y63578D01*
X218068Y63623D01*
X218086Y63674D01*
X218109Y63729D01*
X218127Y63792D01*
X218142Y63858D01*
X218156Y63932D01*
X218167Y64013D01*
X218171Y64098D01*
X218175Y64190D01*
Y64193D01*
Y64212D01*
Y64234D01*
X218171Y64267D01*
X218167Y64308D01*
X218164Y64352D01*
X218156Y64400D01*
X218149Y64455D01*
X218123Y64569D01*
X218105Y64628D01*
X218086Y64687D01*
X218061Y64746D01*
X218031Y64797D01*
X217998Y64849D01*
X217961Y64897D01*
X217957Y64901D01*
X217950Y64908D01*
X217939Y64919D01*
X217924Y64934D01*
X217902Y64952D01*
X217876Y64970D01*
X217847Y64993D01*
X217814Y65015D01*
X217777Y65037D01*
X217736Y65059D01*
X217644Y65096D01*
X217589Y65111D01*
X217538Y65121D01*
X217479Y65129D01*
X217416Y65133D01*
X217398D01*
X217376Y65129D01*
X217346Y65125D01*
X217309Y65121D01*
X217265Y65114D01*
X217217Y65103D01*
X217166Y65085D01*
X217107Y65066D01*
X217048Y65040D01*
X216985Y65011D01*
X216919Y64974D01*
X216856Y64934D01*
X216790Y64882D01*
X216724Y64827D01*
X216661Y64761D01*
X215873Y64875D01*
X216374Y67526D01*
X218955D01*
Y66613D01*
D02*
G37*
G36*
X213114Y67589D02*
X213184D01*
X213262Y67586D01*
X213346Y67582D01*
X213438Y67574D01*
X213534Y67567D01*
X213630Y67560D01*
X213829Y67534D01*
X213921Y67519D01*
X214009Y67501D01*
X214094Y67479D01*
X214168Y67453D01*
X214171D01*
X214182Y67446D01*
X214205Y67438D01*
X214230Y67427D01*
X214260Y67412D01*
X214296Y67390D01*
X214337Y67368D01*
X214381Y67342D01*
X214429Y67309D01*
X214477Y67272D01*
X214525Y67232D01*
X214576Y67188D01*
X214624Y67140D01*
X214672Y67085D01*
X214716Y67026D01*
X214761Y66963D01*
X214764Y66959D01*
X214772Y66948D01*
X214783Y66926D01*
X214797Y66900D01*
X214812Y66867D01*
X214831Y66830D01*
X214853Y66783D01*
X214875Y66731D01*
X214893Y66676D01*
X214915Y66613D01*
X214934Y66547D01*
X214952Y66477D01*
X214963Y66403D01*
X214974Y66326D01*
X214982Y66248D01*
X214985Y66164D01*
Y66157D01*
Y66138D01*
X214982Y66109D01*
Y66068D01*
X214974Y66020D01*
X214967Y65961D01*
X214956Y65899D01*
X214945Y65829D01*
X214926Y65755D01*
X214904Y65678D01*
X214875Y65600D01*
X214842Y65519D01*
X214805Y65442D01*
X214757Y65361D01*
X214705Y65287D01*
X214646Y65214D01*
X214643Y65210D01*
X214632Y65199D01*
X214610Y65181D01*
X214584Y65155D01*
X214547Y65125D01*
X214506Y65092D01*
X214455Y65055D01*
X214396Y65015D01*
X214326Y64974D01*
X214252Y64937D01*
X214171Y64897D01*
X214079Y64860D01*
X213980Y64823D01*
X213873Y64794D01*
X213759Y64768D01*
X213637Y64746D01*
X213641Y64742D01*
X213652Y64738D01*
X213670Y64728D01*
X213692Y64713D01*
X213722Y64694D01*
X213755Y64672D01*
X213792Y64646D01*
X213832Y64621D01*
X213921Y64554D01*
X214013Y64481D01*
X214105Y64400D01*
X214190Y64315D01*
X214193Y64311D01*
X214201Y64304D01*
X214212Y64289D01*
X214230Y64271D01*
X214252Y64245D01*
X214278Y64212D01*
X214308Y64171D01*
X214344Y64123D01*
X214385Y64072D01*
X214429Y64013D01*
X214477Y63943D01*
X214529Y63869D01*
X214584Y63785D01*
X214643Y63696D01*
X214709Y63597D01*
X214775Y63490D01*
X215398Y62496D01*
X214164D01*
X213424Y63604D01*
X213420Y63611D01*
X213405Y63630D01*
X213387Y63659D01*
X213361Y63700D01*
X213328Y63748D01*
X213291Y63799D01*
X213251Y63858D01*
X213206Y63921D01*
X213114Y64046D01*
X213070Y64109D01*
X213026Y64171D01*
X212985Y64227D01*
X212945Y64274D01*
X212908Y64319D01*
X212879Y64352D01*
X212871Y64359D01*
X212853Y64378D01*
X212823Y64403D01*
X212787Y64436D01*
X212739Y64473D01*
X212687Y64507D01*
X212632Y64540D01*
X212569Y64565D01*
X212562Y64569D01*
X212551Y64573D01*
X212540Y64577D01*
X212521Y64580D01*
X212499Y64584D01*
X212474Y64591D01*
X212444Y64595D01*
X212411Y64602D01*
X212374Y64606D01*
X212330Y64610D01*
X212282Y64617D01*
X212234Y64621D01*
X212179D01*
X212116Y64624D01*
X211847D01*
Y62496D01*
X210820D01*
Y67593D01*
X213059D01*
X213114Y67589D01*
D02*
G37*
G36*
X240000Y207442D02*
X239024D01*
Y211122D01*
X239017Y211114D01*
X238998Y211099D01*
X238969Y211074D01*
X238928Y211040D01*
X238877Y211000D01*
X238814Y210952D01*
X238744Y210897D01*
X238663Y210842D01*
X238575Y210783D01*
X238479Y210720D01*
X238376Y210657D01*
X238265Y210599D01*
X238148Y210540D01*
X238022Y210481D01*
X237893Y210429D01*
X237761Y210381D01*
Y211269D01*
X237764D01*
X237779Y211276D01*
X237798Y211283D01*
X237827Y211295D01*
X237864Y211309D01*
X237904Y211324D01*
X237952Y211346D01*
X238008Y211372D01*
X238066Y211405D01*
X238129Y211438D01*
X238199Y211475D01*
X238269Y211519D01*
X238346Y211567D01*
X238424Y211619D01*
X238505Y211678D01*
X238589Y211740D01*
X238593Y211744D01*
X238608Y211755D01*
X238634Y211777D01*
X238663Y211803D01*
X238700Y211836D01*
X238740Y211877D01*
X238785Y211921D01*
X238836Y211972D01*
X238884Y212031D01*
X238936Y212094D01*
X238987Y212160D01*
X239039Y212234D01*
X239087Y212307D01*
X239131Y212388D01*
X239171Y212473D01*
X239205Y212558D01*
X240000D01*
Y207442D01*
D02*
G37*
G36*
X234873Y212536D02*
X234943D01*
X235021Y212532D01*
X235105Y212528D01*
X235197Y212521D01*
X235293Y212514D01*
X235389Y212506D01*
X235588Y212481D01*
X235680Y212466D01*
X235768Y212447D01*
X235853Y212425D01*
X235927Y212400D01*
X235930D01*
X235941Y212392D01*
X235963Y212385D01*
X235989Y212374D01*
X236019Y212359D01*
X236056Y212337D01*
X236096Y212315D01*
X236140Y212289D01*
X236188Y212256D01*
X236236Y212219D01*
X236284Y212178D01*
X236335Y212134D01*
X236383Y212086D01*
X236431Y212031D01*
X236475Y211972D01*
X236520Y211910D01*
X236523Y211906D01*
X236531Y211895D01*
X236542Y211873D01*
X236556Y211847D01*
X236571Y211814D01*
X236590Y211777D01*
X236612Y211729D01*
X236634Y211678D01*
X236652Y211622D01*
X236674Y211560D01*
X236693Y211493D01*
X236711Y211423D01*
X236722Y211350D01*
X236733Y211273D01*
X236740Y211195D01*
X236744Y211110D01*
Y211103D01*
Y211085D01*
X236740Y211055D01*
Y211015D01*
X236733Y210967D01*
X236726Y210908D01*
X236715Y210845D01*
X236704Y210775D01*
X236685Y210702D01*
X236663Y210624D01*
X236634Y210547D01*
X236601Y210466D01*
X236564Y210389D01*
X236516Y210308D01*
X236464Y210234D01*
X236405Y210160D01*
X236402Y210157D01*
X236391Y210145D01*
X236369Y210127D01*
X236343Y210101D01*
X236306Y210072D01*
X236265Y210039D01*
X236214Y210002D01*
X236155Y209961D01*
X236085Y209921D01*
X236011Y209884D01*
X235930Y209844D01*
X235838Y209807D01*
X235739Y209770D01*
X235632Y209740D01*
X235518Y209715D01*
X235396Y209692D01*
X235400Y209689D01*
X235411Y209685D01*
X235429Y209674D01*
X235452Y209659D01*
X235481Y209641D01*
X235514Y209619D01*
X235551Y209593D01*
X235592Y209567D01*
X235680Y209501D01*
X235772Y209427D01*
X235864Y209346D01*
X235949Y209262D01*
X235952Y209258D01*
X235960Y209251D01*
X235971Y209236D01*
X235989Y209217D01*
X236011Y209192D01*
X236037Y209158D01*
X236067Y209118D01*
X236103Y209070D01*
X236144Y209018D01*
X236188Y208960D01*
X236236Y208890D01*
X236287Y208816D01*
X236343Y208731D01*
X236402Y208643D01*
X236468Y208543D01*
X236534Y208437D01*
X237157Y207442D01*
X235923D01*
X235183Y208551D01*
X235179Y208558D01*
X235164Y208577D01*
X235146Y208606D01*
X235120Y208647D01*
X235087Y208694D01*
X235050Y208746D01*
X235009Y208805D01*
X234965Y208867D01*
X234873Y208993D01*
X234829Y209055D01*
X234785Y209118D01*
X234744Y209173D01*
X234704Y209221D01*
X234667Y209265D01*
X234638Y209298D01*
X234630Y209306D01*
X234612Y209324D01*
X234582Y209350D01*
X234545Y209383D01*
X234498Y209420D01*
X234446Y209453D01*
X234391Y209486D01*
X234328Y209512D01*
X234321Y209516D01*
X234310Y209519D01*
X234299Y209523D01*
X234280Y209527D01*
X234258Y209530D01*
X234232Y209538D01*
X234203Y209541D01*
X234170Y209549D01*
X234133Y209552D01*
X234089Y209556D01*
X234041Y209564D01*
X233993Y209567D01*
X233938D01*
X233875Y209571D01*
X233606D01*
Y207442D01*
X232579D01*
Y212540D01*
X234818D01*
X234873Y212536D01*
D02*
G37*
G36*
X202439Y206854D02*
Y206846D01*
Y206824D01*
Y206795D01*
Y206751D01*
X202436Y206695D01*
X202432Y206636D01*
X202428Y206566D01*
X202425Y206496D01*
X202421Y206419D01*
X202410Y206338D01*
X202391Y206176D01*
X202377Y206099D01*
X202362Y206021D01*
X202344Y205948D01*
X202325Y205881D01*
Y205878D01*
X202318Y205863D01*
X202310Y205837D01*
X202296Y205808D01*
X202277Y205771D01*
X202259Y205727D01*
X202233Y205679D01*
X202204Y205623D01*
X202167Y205568D01*
X202130Y205509D01*
X202086Y205450D01*
X202034Y205392D01*
X201979Y205333D01*
X201920Y205274D01*
X201854Y205218D01*
X201784Y205167D01*
X201780Y205163D01*
X201765Y205156D01*
X201743Y205141D01*
X201714Y205126D01*
X201673Y205104D01*
X201625Y205082D01*
X201570Y205056D01*
X201507Y205034D01*
X201437Y205009D01*
X201360Y204983D01*
X201275Y204961D01*
X201183Y204939D01*
X201084Y204924D01*
X200977Y204909D01*
X200867Y204902D01*
X200749Y204898D01*
X200716D01*
X200675Y204902D01*
X200623Y204905D01*
X200561Y204913D01*
X200487Y204920D01*
X200406Y204935D01*
X200322Y204949D01*
X200229Y204972D01*
X200134Y205001D01*
X200038Y205034D01*
X199939Y205075D01*
X199843Y205123D01*
X199751Y205178D01*
X199666Y205244D01*
X199585Y205318D01*
X199581Y205322D01*
X199566Y205336D01*
X199548Y205362D01*
X199522Y205395D01*
X199493Y205443D01*
X199456Y205495D01*
X199419Y205557D01*
X199382Y205631D01*
X199345Y205716D01*
X199309Y205808D01*
X199275Y205911D01*
X199242Y206021D01*
X199217Y206143D01*
X199198Y206272D01*
X199184Y206412D01*
X199180Y206563D01*
X200148Y206673D01*
Y206670D01*
Y206655D01*
X200152Y206633D01*
Y206603D01*
X200156Y206566D01*
X200159Y206522D01*
X200163Y206478D01*
X200170Y206430D01*
X200185Y206327D01*
X200207Y206224D01*
X200222Y206176D01*
X200237Y206128D01*
X200255Y206088D01*
X200274Y206051D01*
X200277Y206047D01*
X200281Y206040D01*
X200292Y206025D01*
X200307Y206007D01*
X200325Y205988D01*
X200344Y205966D01*
X200369Y205940D01*
X200403Y205914D01*
X200436Y205889D01*
X200473Y205863D01*
X200513Y205841D01*
X200561Y205822D01*
X200609Y205804D01*
X200664Y205789D01*
X200719Y205782D01*
X200782Y205778D01*
X200815D01*
X200837Y205782D01*
X200867Y205786D01*
X200900Y205789D01*
X200970Y205804D01*
X201051Y205826D01*
X201132Y205859D01*
X201169Y205881D01*
X201205Y205911D01*
X201239Y205940D01*
X201268Y205973D01*
Y205977D01*
X201275Y205984D01*
X201283Y205996D01*
X201290Y206014D01*
X201301Y206036D01*
X201312Y206069D01*
X201327Y206106D01*
X201342Y206150D01*
X201353Y206198D01*
X201367Y206257D01*
X201378Y206323D01*
X201390Y206401D01*
X201397Y206482D01*
X201404Y206574D01*
X201412Y206677D01*
Y206787D01*
Y210084D01*
X202439D01*
Y206854D01*
D02*
G37*
G36*
X205820Y204986D02*
X204844D01*
Y208666D01*
X204837Y208658D01*
X204818Y208644D01*
X204789Y208618D01*
X204748Y208585D01*
X204697Y208544D01*
X204634Y208496D01*
X204564Y208441D01*
X204483Y208386D01*
X204395Y208327D01*
X204299Y208264D01*
X204196Y208202D01*
X204086Y208143D01*
X203968Y208084D01*
X203843Y208025D01*
X203714Y207973D01*
X203581Y207925D01*
Y208813D01*
X203585D01*
X203599Y208820D01*
X203618Y208828D01*
X203647Y208839D01*
X203684Y208853D01*
X203725Y208868D01*
X203773Y208890D01*
X203828Y208916D01*
X203887Y208949D01*
X203949Y208982D01*
X204019Y209019D01*
X204089Y209063D01*
X204167Y209111D01*
X204244Y209163D01*
X204325Y209222D01*
X204410Y209284D01*
X204413Y209288D01*
X204428Y209299D01*
X204454Y209321D01*
X204483Y209347D01*
X204520Y209380D01*
X204561Y209421D01*
X204605Y209465D01*
X204656Y209516D01*
X204704Y209575D01*
X204756Y209638D01*
X204807Y209704D01*
X204859Y209778D01*
X204907Y209852D01*
X204951Y209933D01*
X204992Y210017D01*
X205025Y210102D01*
X205820D01*
Y204986D01*
D02*
G37*
G36*
X253714Y74942D02*
X252738D01*
Y78622D01*
X252731Y78614D01*
X252713Y78599D01*
X252683Y78574D01*
X252643Y78540D01*
X252591Y78500D01*
X252528Y78452D01*
X252458Y78397D01*
X252377Y78342D01*
X252289Y78283D01*
X252193Y78220D01*
X252090Y78157D01*
X251980Y78099D01*
X251862Y78039D01*
X251737Y77981D01*
X251608Y77929D01*
X251475Y77881D01*
Y78769D01*
X251479D01*
X251493Y78776D01*
X251512Y78783D01*
X251541Y78795D01*
X251578Y78809D01*
X251619Y78824D01*
X251667Y78846D01*
X251722Y78872D01*
X251781Y78905D01*
X251843Y78938D01*
X251913Y78975D01*
X251983Y79019D01*
X252061Y79067D01*
X252138Y79119D01*
X252219Y79178D01*
X252304Y79240D01*
X252307Y79244D01*
X252322Y79255D01*
X252348Y79277D01*
X252377Y79303D01*
X252414Y79336D01*
X252455Y79377D01*
X252499Y79421D01*
X252551Y79472D01*
X252598Y79531D01*
X252650Y79594D01*
X252701Y79660D01*
X252753Y79734D01*
X252801Y79807D01*
X252845Y79888D01*
X252886Y79973D01*
X252919Y80058D01*
X253714D01*
Y74942D01*
D02*
G37*
G36*
X248322Y80036D02*
X248385D01*
X248451Y80032D01*
X248525Y80028D01*
X248602Y80021D01*
X248680Y80014D01*
X248842Y79999D01*
X248919Y79988D01*
X248996Y79973D01*
X249066Y79958D01*
X249133Y79940D01*
X249136D01*
X249151Y79933D01*
X249177Y79925D01*
X249206Y79914D01*
X249247Y79900D01*
X249291Y79881D01*
X249343Y79859D01*
X249398Y79833D01*
X249457Y79800D01*
X249519Y79767D01*
X249582Y79726D01*
X249648Y79686D01*
X249711Y79638D01*
X249777Y79586D01*
X249840Y79531D01*
X249902Y79468D01*
X249906Y79465D01*
X249917Y79454D01*
X249932Y79435D01*
X249954Y79410D01*
X249983Y79377D01*
X250013Y79336D01*
X250046Y79292D01*
X250083Y79240D01*
X250123Y79181D01*
X250160Y79119D01*
X250201Y79052D01*
X250241Y78979D01*
X250282Y78901D01*
X250319Y78820D01*
X250355Y78732D01*
X250389Y78644D01*
X250392Y78640D01*
X250396Y78622D01*
X250403Y78596D01*
X250414Y78555D01*
X250429Y78507D01*
X250444Y78452D01*
X250459Y78386D01*
X250473Y78312D01*
X250488Y78227D01*
X250503Y78135D01*
X250518Y78036D01*
X250532Y77929D01*
X250543Y77819D01*
X250551Y77697D01*
X250558Y77572D01*
Y77439D01*
Y77432D01*
Y77410D01*
Y77377D01*
X250554Y77332D01*
Y77281D01*
X250551Y77215D01*
X250543Y77145D01*
X250540Y77067D01*
X250529Y76986D01*
X250521Y76898D01*
X250492Y76717D01*
X250451Y76533D01*
X250429Y76445D01*
X250400Y76356D01*
X250396Y76349D01*
X250392Y76331D01*
X250381Y76301D01*
X250363Y76264D01*
X250344Y76217D01*
X250322Y76161D01*
X250293Y76102D01*
X250260Y76036D01*
X250223Y75966D01*
X250182Y75892D01*
X250138Y75819D01*
X250090Y75741D01*
X250035Y75668D01*
X249980Y75594D01*
X249921Y75520D01*
X249855Y75454D01*
X249851Y75450D01*
X249844Y75443D01*
X249825Y75428D01*
X249807Y75410D01*
X249777Y75388D01*
X249744Y75366D01*
X249707Y75336D01*
X249663Y75307D01*
X249615Y75274D01*
X249560Y75241D01*
X249501Y75207D01*
X249438Y75174D01*
X249368Y75141D01*
X249295Y75108D01*
X249217Y75078D01*
X249133Y75049D01*
X249129D01*
X249118Y75045D01*
X249096Y75038D01*
X249070Y75034D01*
X249037Y75023D01*
X248993Y75016D01*
X248945Y75005D01*
X248890Y74997D01*
X248827Y74986D01*
X248761Y74975D01*
X248683Y74968D01*
X248602Y74961D01*
X248514Y74953D01*
X248422Y74946D01*
X248322Y74942D01*
X246286D01*
Y80039D01*
X248267D01*
X248322Y80036D01*
D02*
G37*
G36*
X317446Y167631D02*
X317471D01*
X317504Y167628D01*
X317538D01*
X317619Y167617D01*
X317707Y167606D01*
X317810Y167587D01*
X317921Y167565D01*
X318039Y167536D01*
X318164Y167499D01*
X318289Y167455D01*
X318418Y167400D01*
X318543Y167337D01*
X318668Y167263D01*
X318786Y167178D01*
X318900Y167079D01*
X318904Y167075D01*
X318915Y167064D01*
X318933Y167046D01*
X318955Y167020D01*
X318985Y166987D01*
X319018Y166943D01*
X319055Y166895D01*
X319095Y166840D01*
X319136Y166777D01*
X319180Y166707D01*
X319224Y166630D01*
X319269Y166549D01*
X319309Y166457D01*
X319350Y166361D01*
X319390Y166254D01*
X319423Y166144D01*
X318403Y165900D01*
Y165904D01*
X318399Y165919D01*
X318392Y165937D01*
X318385Y165967D01*
X318374Y166000D01*
X318359Y166037D01*
X318340Y166081D01*
X318322Y166125D01*
X318270Y166225D01*
X318237Y166276D01*
X318204Y166328D01*
X318167Y166379D01*
X318123Y166431D01*
X318075Y166479D01*
X318024Y166523D01*
X318020Y166527D01*
X318013Y166534D01*
X317994Y166545D01*
X317972Y166560D01*
X317946Y166578D01*
X317913Y166597D01*
X317873Y166619D01*
X317832Y166641D01*
X317781Y166659D01*
X317729Y166681D01*
X317670Y166700D01*
X317611Y166718D01*
X317545Y166733D01*
X317475Y166744D01*
X317405Y166751D01*
X317328Y166755D01*
X317302D01*
X317272Y166751D01*
X317236Y166748D01*
X317188Y166744D01*
X317132Y166733D01*
X317070Y166722D01*
X317004Y166703D01*
X316930Y166681D01*
X316856Y166656D01*
X316779Y166622D01*
X316702Y166582D01*
X316628Y166534D01*
X316551Y166482D01*
X316481Y166420D01*
X316411Y166346D01*
X316407Y166343D01*
X316396Y166328D01*
X316377Y166302D01*
X316355Y166269D01*
X316330Y166225D01*
X316300Y166169D01*
X316267Y166107D01*
X316238Y166029D01*
X316204Y165945D01*
X316171Y165845D01*
X316142Y165739D01*
X316116Y165621D01*
X316094Y165488D01*
X316075Y165348D01*
X316064Y165193D01*
X316061Y165028D01*
Y165024D01*
Y165017D01*
Y165002D01*
Y164987D01*
Y164961D01*
X316064Y164936D01*
Y164906D01*
X316068Y164869D01*
X316072Y164792D01*
X316079Y164700D01*
X316090Y164600D01*
X316105Y164494D01*
X316123Y164383D01*
X316145Y164269D01*
X316175Y164155D01*
X316208Y164041D01*
X316245Y163934D01*
X316293Y163831D01*
X316344Y163739D01*
X316407Y163654D01*
X316411Y163650D01*
X316422Y163636D01*
X316444Y163617D01*
X316469Y163591D01*
X316503Y163558D01*
X316547Y163525D01*
X316595Y163488D01*
X316650Y163451D01*
X316713Y163411D01*
X316779Y163374D01*
X316853Y163341D01*
X316934Y163308D01*
X317018Y163282D01*
X317110Y163263D01*
X317206Y163249D01*
X317309Y163245D01*
X317350D01*
X317379Y163249D01*
X317412Y163252D01*
X317453Y163260D01*
X317501Y163267D01*
X317552Y163278D01*
X317604Y163289D01*
X317659Y163308D01*
X317718Y163330D01*
X317777Y163356D01*
X317840Y163385D01*
X317899Y163418D01*
X317957Y163459D01*
X318013Y163503D01*
X318016Y163507D01*
X318027Y163514D01*
X318042Y163532D01*
X318061Y163554D01*
X318086Y163580D01*
X318116Y163617D01*
X318145Y163658D01*
X318178Y163705D01*
X318212Y163757D01*
X318248Y163820D01*
X318285Y163886D01*
X318318Y163960D01*
X318351Y164044D01*
X318385Y164129D01*
X318414Y164225D01*
X318440Y164328D01*
X319438Y164011D01*
Y164007D01*
X319434Y164000D01*
X319431Y163989D01*
X319427Y163974D01*
X319420Y163956D01*
X319412Y163930D01*
X319394Y163875D01*
X319368Y163805D01*
X319335Y163724D01*
X319298Y163636D01*
X319254Y163543D01*
X319206Y163444D01*
X319151Y163341D01*
X319088Y163238D01*
X319018Y163135D01*
X318941Y163035D01*
X318860Y162939D01*
X318768Y162851D01*
X318672Y162770D01*
X318665Y162766D01*
X318646Y162752D01*
X318617Y162733D01*
X318576Y162707D01*
X318525Y162678D01*
X318462Y162641D01*
X318388Y162604D01*
X318304Y162567D01*
X318212Y162531D01*
X318109Y162494D01*
X317998Y162461D01*
X317876Y162427D01*
X317751Y162402D01*
X317615Y162383D01*
X317471Y162369D01*
X317320Y162365D01*
X317276D01*
X317250Y162369D01*
X317221D01*
X317188Y162372D01*
X317151Y162376D01*
X317110Y162380D01*
X317066Y162387D01*
X316963Y162402D01*
X316853Y162424D01*
X316731Y162453D01*
X316602Y162486D01*
X316466Y162534D01*
X316330Y162589D01*
X316186Y162656D01*
X316050Y162737D01*
X315910Y162829D01*
X315843Y162880D01*
X315777Y162936D01*
X315714Y162995D01*
X315652Y163057D01*
Y163061D01*
X315644Y163065D01*
X315637Y163076D01*
X315622Y163090D01*
X315608Y163109D01*
X315593Y163131D01*
X315571Y163157D01*
X315549Y163186D01*
X315527Y163219D01*
X315501Y163256D01*
X315475Y163297D01*
X315446Y163341D01*
X315387Y163440D01*
X315328Y163554D01*
X315265Y163683D01*
X315206Y163823D01*
X315151Y163982D01*
X315103Y164151D01*
X315059Y164331D01*
X315030Y164527D01*
X315007Y164733D01*
X315004Y164844D01*
X315000Y164954D01*
Y164958D01*
Y164969D01*
Y164987D01*
Y165009D01*
X315004Y165039D01*
Y165075D01*
X315007Y165116D01*
X315011Y165164D01*
X315015Y165215D01*
X315018Y165271D01*
X315026Y165330D01*
X315033Y165392D01*
X315055Y165529D01*
X315081Y165676D01*
X315118Y165834D01*
X315158Y165996D01*
X315214Y166158D01*
X315276Y166324D01*
X315354Y166486D01*
X315438Y166641D01*
X315541Y166792D01*
X315597Y166862D01*
X315656Y166928D01*
X315659Y166932D01*
X315663Y166935D01*
X315674Y166947D01*
X315685Y166957D01*
X315722Y166994D01*
X315773Y167039D01*
X315840Y167094D01*
X315921Y167153D01*
X316013Y167215D01*
X316116Y167282D01*
X316234Y167348D01*
X316366Y167411D01*
X316506Y167473D01*
X316661Y167525D01*
X316827Y167569D01*
X317000Y167606D01*
X317188Y167628D01*
X317283Y167631D01*
X317383Y167635D01*
X317423D01*
X317446Y167631D01*
D02*
G37*
G36*
X321858Y167565D02*
X321909Y167561D01*
X321972Y167558D01*
X322046Y167547D01*
X322127Y167536D01*
X322215Y167517D01*
X322307Y167495D01*
X322407Y167470D01*
X322506Y167436D01*
X322602Y167396D01*
X322701Y167348D01*
X322797Y167296D01*
X322885Y167234D01*
X322970Y167160D01*
X322974Y167156D01*
X322988Y167142D01*
X323010Y167120D01*
X323036Y167086D01*
X323069Y167046D01*
X323106Y167002D01*
X323147Y166943D01*
X323187Y166880D01*
X323228Y166810D01*
X323268Y166737D01*
X323305Y166652D01*
X323338Y166563D01*
X323364Y166468D01*
X323386Y166365D01*
X323401Y166258D01*
X323405Y166147D01*
Y166144D01*
Y166133D01*
Y166114D01*
Y166088D01*
X323401Y166059D01*
X323397Y166022D01*
X323394Y165982D01*
X323390Y165937D01*
X323375Y165838D01*
X323353Y165727D01*
X323320Y165609D01*
X323279Y165492D01*
Y165488D01*
X323272Y165477D01*
X323265Y165462D01*
X323257Y165436D01*
X323243Y165411D01*
X323224Y165378D01*
X323206Y165337D01*
X323184Y165296D01*
X323158Y165249D01*
X323128Y165197D01*
X323062Y165087D01*
X322981Y164969D01*
X322889Y164844D01*
X322885Y164840D01*
X322882Y164832D01*
X322871Y164821D01*
X322856Y164803D01*
X322834Y164777D01*
X322808Y164748D01*
X322779Y164715D01*
X322742Y164678D01*
X322701Y164634D01*
X322653Y164586D01*
X322602Y164530D01*
X322543Y164471D01*
X322480Y164409D01*
X322410Y164343D01*
X322333Y164269D01*
X322248Y164192D01*
X322244Y164188D01*
X322230Y164173D01*
X322204Y164151D01*
X322174Y164122D01*
X322138Y164088D01*
X322094Y164052D01*
X322049Y164007D01*
X322001Y163963D01*
X321902Y163867D01*
X321802Y163775D01*
X321758Y163731D01*
X321721Y163694D01*
X321685Y163658D01*
X321659Y163628D01*
X321655Y163621D01*
X321641Y163606D01*
X321615Y163577D01*
X321589Y163543D01*
X321556Y163503D01*
X321523Y163455D01*
X321489Y163407D01*
X321460Y163359D01*
X323405D01*
Y162453D01*
X319979D01*
Y162461D01*
X319983Y162475D01*
X319987Y162505D01*
X319994Y162542D01*
X320001Y162586D01*
X320013Y162641D01*
X320024Y162700D01*
X320042Y162766D01*
X320060Y162840D01*
X320086Y162917D01*
X320112Y162995D01*
X320141Y163079D01*
X320178Y163164D01*
X320219Y163252D01*
X320263Y163337D01*
X320311Y163426D01*
X320315Y163429D01*
X320326Y163448D01*
X320344Y163473D01*
X320366Y163510D01*
X320399Y163554D01*
X320443Y163610D01*
X320495Y163676D01*
X320554Y163750D01*
X320624Y163834D01*
X320701Y163926D01*
X320793Y164026D01*
X320893Y164136D01*
X321007Y164254D01*
X321129Y164376D01*
X321265Y164508D01*
X321412Y164648D01*
X321416Y164652D01*
X321419Y164656D01*
X321442Y164674D01*
X321475Y164707D01*
X321519Y164748D01*
X321571Y164799D01*
X321629Y164855D01*
X321692Y164917D01*
X321762Y164983D01*
X321898Y165123D01*
X321968Y165190D01*
X322031Y165260D01*
X322094Y165322D01*
X322145Y165381D01*
X322189Y165436D01*
X322222Y165481D01*
X322226Y165484D01*
X322230Y165495D01*
X322241Y165510D01*
X322256Y165532D01*
X322270Y165562D01*
X322285Y165591D01*
X322303Y165628D01*
X322326Y165669D01*
X322362Y165761D01*
X322392Y165860D01*
X322418Y165970D01*
X322421Y166026D01*
X322425Y166081D01*
Y166085D01*
Y166096D01*
Y166110D01*
X322421Y166136D01*
Y166162D01*
X322418Y166192D01*
X322403Y166265D01*
X322381Y166346D01*
X322351Y166431D01*
X322307Y166508D01*
X322278Y166549D01*
X322248Y166582D01*
X322244Y166586D01*
X322241Y166589D01*
X322230Y166597D01*
X322215Y166611D01*
X322197Y166622D01*
X322174Y166637D01*
X322149Y166656D01*
X322123Y166670D01*
X322053Y166703D01*
X321968Y166733D01*
X321872Y166751D01*
X321817Y166755D01*
X321762Y166759D01*
X321732D01*
X321710Y166755D01*
X321685D01*
X321655Y166748D01*
X321585Y166737D01*
X321508Y166714D01*
X321423Y166681D01*
X321386Y166659D01*
X321346Y166637D01*
X321309Y166608D01*
X321272Y166574D01*
X321269Y166571D01*
X321265Y166567D01*
X321254Y166556D01*
X321243Y166538D01*
X321228Y166519D01*
X321213Y166493D01*
X321199Y166464D01*
X321180Y166431D01*
X321162Y166390D01*
X321143Y166346D01*
X321125Y166295D01*
X321110Y166239D01*
X321095Y166177D01*
X321081Y166110D01*
X321073Y166040D01*
X321066Y165963D01*
X320094Y166059D01*
Y166063D01*
Y166070D01*
X320097Y166081D01*
Y166096D01*
X320101Y166114D01*
X320105Y166136D01*
X320116Y166192D01*
X320127Y166258D01*
X320145Y166331D01*
X320167Y166416D01*
X320193Y166504D01*
X320226Y166600D01*
X320263Y166696D01*
X320307Y166792D01*
X320359Y166888D01*
X320414Y166980D01*
X320480Y167064D01*
X320554Y167145D01*
X320635Y167215D01*
X320639Y167219D01*
X320657Y167230D01*
X320683Y167248D01*
X320716Y167271D01*
X320764Y167296D01*
X320816Y167326D01*
X320882Y167359D01*
X320952Y167392D01*
X321029Y167425D01*
X321118Y167458D01*
X321213Y167488D01*
X321313Y167514D01*
X321423Y167536D01*
X321537Y167554D01*
X321659Y167565D01*
X321784Y167569D01*
X321817D01*
X321858Y167565D01*
D02*
G37*
%LPC*%
G36*
X292533Y117927D02*
X291014D01*
Y116144D01*
X292223D01*
X292304Y116149D01*
X292498D01*
X292604Y116154D01*
X292823Y116164D01*
X292929Y116169D01*
X293031Y116179D01*
X293122Y116189D01*
X293209Y116199D01*
X293280Y116210D01*
X293336Y116225D01*
X293341D01*
X293346Y116230D01*
X293376Y116240D01*
X293422Y116265D01*
X293483Y116296D01*
X293544Y116337D01*
X293610Y116387D01*
X293676Y116448D01*
X293732Y116525D01*
X293737Y116535D01*
X293757Y116565D01*
X293778Y116611D01*
X293808Y116672D01*
X293834Y116748D01*
X293859Y116840D01*
X293874Y116941D01*
X293879Y117053D01*
Y117058D01*
Y117068D01*
Y117088D01*
X293874Y117114D01*
Y117144D01*
X293869Y117175D01*
X293854Y117256D01*
X293834Y117347D01*
X293798Y117444D01*
X293752Y117535D01*
X293686Y117622D01*
Y117627D01*
X293676Y117632D01*
X293651Y117657D01*
X293610Y117693D01*
X293549Y117739D01*
X293473Y117784D01*
X293381Y117830D01*
X293275Y117871D01*
X293153Y117901D01*
X293132D01*
X293112Y117906D01*
X293087D01*
X293051Y117911D01*
X293011D01*
X292960Y117916D01*
X292823D01*
X292741Y117922D01*
X292645D01*
X292533Y117927D01*
D02*
G37*
G36*
X298817Y41729D02*
X298025D01*
Y37076D01*
X299234D01*
X299289Y37081D01*
X299350D01*
X299416Y37086D01*
X299559Y37091D01*
X299701Y37106D01*
X299833Y37122D01*
X299894Y37132D01*
X299945Y37142D01*
X299950D01*
X299960Y37147D01*
X299980Y37152D01*
X300001Y37157D01*
X300031Y37167D01*
X300067Y37183D01*
X300148Y37213D01*
X300239Y37249D01*
X300331Y37299D01*
X300427Y37360D01*
X300519Y37431D01*
X300524Y37437D01*
X300529Y37442D01*
X300539Y37452D01*
X300559Y37472D01*
X300575Y37492D01*
X300600Y37523D01*
X300625Y37553D01*
X300651Y37594D01*
X300681Y37640D01*
X300712Y37691D01*
X300742Y37747D01*
X300773Y37807D01*
X300803Y37873D01*
X300834Y37950D01*
X300864Y38026D01*
X300890Y38112D01*
Y38117D01*
X300895Y38133D01*
X300905Y38163D01*
X300915Y38199D01*
X300925Y38244D01*
X300935Y38305D01*
X300951Y38371D01*
X300966Y38453D01*
X300976Y38539D01*
X300991Y38635D01*
X301001Y38737D01*
X301017Y38854D01*
X301022Y38976D01*
X301032Y39108D01*
X301037Y39250D01*
Y39397D01*
Y39408D01*
Y39433D01*
Y39474D01*
Y39530D01*
X301032Y39601D01*
Y39677D01*
X301027Y39763D01*
X301017Y39860D01*
X301012Y39956D01*
X301001Y40058D01*
X300976Y40266D01*
X300956Y40368D01*
X300940Y40469D01*
X300915Y40561D01*
X300890Y40647D01*
Y40652D01*
X300885Y40668D01*
X300874Y40688D01*
X300864Y40718D01*
X300849Y40754D01*
X300829Y40799D01*
X300788Y40896D01*
X300727Y41008D01*
X300661Y41120D01*
X300580Y41226D01*
X300488Y41328D01*
X300483Y41333D01*
X300478Y41338D01*
X300463Y41353D01*
X300443Y41368D01*
X300417Y41389D01*
X300387Y41409D01*
X300310Y41460D01*
X300214Y41516D01*
X300102Y41572D01*
X299970Y41617D01*
X299828Y41658D01*
X299823D01*
X299813Y41663D01*
X299792D01*
X299767Y41668D01*
X299731Y41673D01*
X299686Y41678D01*
X299635Y41688D01*
X299569Y41694D01*
X299498Y41699D01*
X299411Y41709D01*
X299315Y41714D01*
X299208Y41719D01*
X299091Y41724D01*
X298959D01*
X298817Y41729D01*
D02*
G37*
G36*
Y16327D02*
X298025D01*
Y11673D01*
X299234D01*
X299289Y11678D01*
X299350D01*
X299416Y11683D01*
X299559Y11689D01*
X299701Y11704D01*
X299833Y11719D01*
X299894Y11729D01*
X299945Y11739D01*
X299950D01*
X299960Y11745D01*
X299980Y11750D01*
X300001Y11755D01*
X300031Y11765D01*
X300067Y11780D01*
X300148Y11810D01*
X300239Y11846D01*
X300331Y11897D01*
X300427Y11958D01*
X300519Y12029D01*
X300524Y12034D01*
X300529Y12039D01*
X300539Y12049D01*
X300559Y12070D01*
X300575Y12090D01*
X300600Y12120D01*
X300625Y12151D01*
X300651Y12191D01*
X300681Y12237D01*
X300712Y12288D01*
X300742Y12344D01*
X300773Y12405D01*
X300803Y12471D01*
X300834Y12547D01*
X300864Y12623D01*
X300890Y12710D01*
Y12715D01*
X300895Y12730D01*
X300905Y12760D01*
X300915Y12796D01*
X300925Y12842D01*
X300935Y12903D01*
X300951Y12969D01*
X300966Y13050D01*
X300976Y13136D01*
X300991Y13233D01*
X301001Y13334D01*
X301017Y13451D01*
X301022Y13573D01*
X301032Y13705D01*
X301037Y13848D01*
Y13995D01*
Y14005D01*
Y14030D01*
Y14071D01*
Y14127D01*
X301032Y14198D01*
Y14274D01*
X301027Y14361D01*
X301017Y14457D01*
X301012Y14554D01*
X301001Y14655D01*
X300976Y14864D01*
X300956Y14965D01*
X300940Y15067D01*
X300915Y15158D01*
X300890Y15245D01*
Y15250D01*
X300885Y15265D01*
X300874Y15285D01*
X300864Y15316D01*
X300849Y15351D01*
X300829Y15397D01*
X300788Y15494D01*
X300727Y15605D01*
X300661Y15717D01*
X300580Y15824D01*
X300488Y15925D01*
X300483Y15930D01*
X300478Y15935D01*
X300463Y15951D01*
X300443Y15966D01*
X300417Y15986D01*
X300387Y16007D01*
X300310Y16057D01*
X300214Y16113D01*
X300102Y16169D01*
X299970Y16215D01*
X299828Y16256D01*
X299823D01*
X299813Y16261D01*
X299792D01*
X299767Y16266D01*
X299731Y16271D01*
X299686Y16276D01*
X299635Y16286D01*
X299569Y16291D01*
X299498Y16296D01*
X299411Y16306D01*
X299315Y16311D01*
X299208Y16316D01*
X299091Y16322D01*
X298959D01*
X298817Y16327D01*
D02*
G37*
G36*
X291725D02*
X290933D01*
Y11673D01*
X292142D01*
X292198Y11678D01*
X292259D01*
X292325Y11683D01*
X292467Y11689D01*
X292609Y11704D01*
X292741Y11719D01*
X292802Y11729D01*
X292853Y11739D01*
X292858D01*
X292868Y11745D01*
X292889Y11750D01*
X292909Y11755D01*
X292939Y11765D01*
X292975Y11780D01*
X293056Y11810D01*
X293148Y11846D01*
X293239Y11897D01*
X293336Y11958D01*
X293427Y12029D01*
X293432Y12034D01*
X293437Y12039D01*
X293447Y12049D01*
X293468Y12070D01*
X293483Y12090D01*
X293508Y12120D01*
X293534Y12151D01*
X293559Y12191D01*
X293590Y12237D01*
X293620Y12288D01*
X293651Y12344D01*
X293681Y12405D01*
X293712Y12471D01*
X293742Y12547D01*
X293773Y12623D01*
X293798Y12710D01*
Y12715D01*
X293803Y12730D01*
X293813Y12760D01*
X293823Y12796D01*
X293834Y12842D01*
X293844Y12903D01*
X293859Y12969D01*
X293874Y13050D01*
X293884Y13136D01*
X293900Y13233D01*
X293910Y13334D01*
X293925Y13451D01*
X293930Y13573D01*
X293940Y13705D01*
X293945Y13848D01*
Y13995D01*
Y14005D01*
Y14030D01*
Y14071D01*
Y14127D01*
X293940Y14198D01*
Y14274D01*
X293935Y14361D01*
X293925Y14457D01*
X293920Y14554D01*
X293910Y14655D01*
X293884Y14864D01*
X293864Y14965D01*
X293849Y15067D01*
X293823Y15158D01*
X293798Y15245D01*
Y15250D01*
X293793Y15265D01*
X293783Y15285D01*
X293773Y15316D01*
X293757Y15351D01*
X293737Y15397D01*
X293696Y15494D01*
X293635Y15605D01*
X293569Y15717D01*
X293488Y15824D01*
X293397Y15925D01*
X293392Y15930D01*
X293386Y15935D01*
X293371Y15951D01*
X293351Y15966D01*
X293326Y15986D01*
X293295Y16007D01*
X293219Y16057D01*
X293122Y16113D01*
X293011Y16169D01*
X292878Y16215D01*
X292736Y16256D01*
X292731D01*
X292721Y16261D01*
X292701D01*
X292675Y16266D01*
X292640Y16271D01*
X292594Y16276D01*
X292543Y16286D01*
X292477Y16291D01*
X292406Y16296D01*
X292320Y16306D01*
X292223Y16311D01*
X292117Y16316D01*
X292000Y16322D01*
X291868D01*
X291725Y16327D01*
D02*
G37*
G36*
X263038Y25969D02*
X262093D01*
Y23967D01*
X263002D01*
X263068Y23973D01*
X263144D01*
X263231Y23978D01*
X263317Y23983D01*
X263505Y23993D01*
X263688Y24013D01*
X263774Y24023D01*
X263856Y24039D01*
X263922Y24054D01*
X263983Y24074D01*
X263988D01*
X263998Y24079D01*
X264008Y24084D01*
X264028Y24095D01*
X264079Y24120D01*
X264145Y24160D01*
X264216Y24206D01*
X264293Y24267D01*
X264364Y24338D01*
X264430Y24420D01*
Y24425D01*
X264435Y24430D01*
X264445Y24445D01*
X264455Y24460D01*
X264480Y24511D01*
X264511Y24577D01*
X264541Y24658D01*
X264567Y24750D01*
X264587Y24857D01*
X264592Y24968D01*
Y24973D01*
Y24983D01*
Y25004D01*
X264587Y25034D01*
Y25065D01*
X264582Y25105D01*
X264562Y25192D01*
X264536Y25293D01*
X264496Y25400D01*
X264440Y25507D01*
X264404Y25557D01*
X264364Y25603D01*
Y25608D01*
X264353Y25613D01*
X264323Y25644D01*
X264277Y25684D01*
X264211Y25740D01*
X264125Y25791D01*
X264028Y25842D01*
X263917Y25888D01*
X263795Y25918D01*
X263785D01*
X263764Y25923D01*
X263744Y25928D01*
X263713D01*
X263673Y25933D01*
X263627Y25938D01*
X263571Y25944D01*
X263505Y25949D01*
X263434Y25954D01*
X263353Y25959D01*
X263256D01*
X263155Y25964D01*
X263038Y25969D01*
D02*
G37*
G36*
X245420Y25517D02*
X244470Y22911D01*
X246396D01*
X245420Y25517D01*
D02*
G37*
G36*
X317129Y211678D02*
X316028D01*
Y210385D01*
X316904D01*
X316963Y210389D01*
X317103D01*
X317180Y210392D01*
X317339Y210400D01*
X317416Y210403D01*
X317490Y210411D01*
X317556Y210418D01*
X317619Y210425D01*
X317670Y210433D01*
X317711Y210444D01*
X317714D01*
X317718Y210448D01*
X317740Y210455D01*
X317773Y210473D01*
X317817Y210495D01*
X317862Y210525D01*
X317910Y210562D01*
X317957Y210606D01*
X317998Y210661D01*
X318002Y210669D01*
X318016Y210691D01*
X318031Y210724D01*
X318053Y210768D01*
X318072Y210823D01*
X318090Y210889D01*
X318101Y210963D01*
X318105Y211044D01*
Y211048D01*
Y211055D01*
Y211070D01*
X318101Y211088D01*
Y211110D01*
X318097Y211133D01*
X318086Y211192D01*
X318072Y211258D01*
X318046Y211328D01*
X318013Y211394D01*
X317965Y211457D01*
Y211460D01*
X317957Y211464D01*
X317939Y211482D01*
X317910Y211508D01*
X317865Y211541D01*
X317810Y211574D01*
X317744Y211608D01*
X317666Y211637D01*
X317578Y211659D01*
X317563D01*
X317549Y211663D01*
X317530D01*
X317504Y211667D01*
X317475D01*
X317438Y211670D01*
X317339D01*
X317280Y211674D01*
X317210D01*
X317129Y211678D01*
D02*
G37*
G36*
Y181722D02*
X316028D01*
Y180429D01*
X316904D01*
X316963Y180433D01*
X317103D01*
X317180Y180436D01*
X317339Y180444D01*
X317416Y180448D01*
X317490Y180455D01*
X317556Y180462D01*
X317619Y180470D01*
X317670Y180477D01*
X317711Y180488D01*
X317714D01*
X317718Y180492D01*
X317740Y180499D01*
X317773Y180518D01*
X317817Y180540D01*
X317862Y180569D01*
X317910Y180606D01*
X317957Y180650D01*
X317998Y180705D01*
X318002Y180713D01*
X318016Y180735D01*
X318031Y180768D01*
X318053Y180812D01*
X318072Y180867D01*
X318090Y180934D01*
X318101Y181007D01*
X318105Y181088D01*
Y181092D01*
Y181099D01*
Y181114D01*
X318101Y181133D01*
Y181155D01*
X318097Y181177D01*
X318086Y181236D01*
X318072Y181302D01*
X318046Y181372D01*
X318013Y181438D01*
X317965Y181501D01*
Y181504D01*
X317957Y181508D01*
X317939Y181527D01*
X317910Y181552D01*
X317865Y181586D01*
X317810Y181619D01*
X317744Y181652D01*
X317666Y181681D01*
X317578Y181703D01*
X317563D01*
X317549Y181707D01*
X317530D01*
X317504Y181711D01*
X317475D01*
X317438Y181714D01*
X317339D01*
X317280Y181718D01*
X317210D01*
X317129Y181722D01*
D02*
G37*
G36*
X321836Y196059D02*
X320664Y194321D01*
X321836D01*
Y196059D01*
D02*
G37*
G36*
X317129Y196678D02*
X316028D01*
Y195385D01*
X316904D01*
X316963Y195389D01*
X317103D01*
X317180Y195392D01*
X317339Y195400D01*
X317416Y195403D01*
X317490Y195411D01*
X317556Y195418D01*
X317619Y195425D01*
X317670Y195433D01*
X317711Y195444D01*
X317714D01*
X317718Y195448D01*
X317740Y195455D01*
X317773Y195473D01*
X317817Y195495D01*
X317862Y195525D01*
X317910Y195562D01*
X317957Y195606D01*
X317998Y195661D01*
X318002Y195669D01*
X318016Y195691D01*
X318031Y195724D01*
X318053Y195768D01*
X318072Y195823D01*
X318090Y195889D01*
X318101Y195963D01*
X318105Y196044D01*
Y196048D01*
Y196055D01*
Y196070D01*
X318101Y196088D01*
Y196110D01*
X318097Y196133D01*
X318086Y196192D01*
X318072Y196258D01*
X318046Y196328D01*
X318013Y196394D01*
X317965Y196457D01*
Y196460D01*
X317957Y196464D01*
X317939Y196482D01*
X317910Y196508D01*
X317865Y196541D01*
X317810Y196574D01*
X317744Y196608D01*
X317666Y196637D01*
X317578Y196659D01*
X317563D01*
X317549Y196663D01*
X317530D01*
X317504Y196667D01*
X317475D01*
X317438Y196670D01*
X317339D01*
X317280Y196674D01*
X317210D01*
X317129Y196678D01*
D02*
G37*
G36*
X212949Y66731D02*
X211847D01*
Y65438D01*
X212724D01*
X212783Y65442D01*
X212923D01*
X213000Y65446D01*
X213158Y65453D01*
X213236Y65457D01*
X213309Y65464D01*
X213376Y65471D01*
X213438Y65479D01*
X213490Y65486D01*
X213531Y65497D01*
X213534D01*
X213538Y65501D01*
X213560Y65508D01*
X213593Y65527D01*
X213637Y65549D01*
X213682Y65578D01*
X213729Y65615D01*
X213777Y65659D01*
X213818Y65715D01*
X213821Y65722D01*
X213836Y65744D01*
X213851Y65777D01*
X213873Y65821D01*
X213891Y65877D01*
X213910Y65943D01*
X213921Y66017D01*
X213925Y66097D01*
Y66101D01*
Y66109D01*
Y66123D01*
X213921Y66142D01*
Y66164D01*
X213917Y66186D01*
X213906Y66245D01*
X213891Y66311D01*
X213866Y66381D01*
X213832Y66447D01*
X213785Y66510D01*
Y66514D01*
X213777Y66517D01*
X213759Y66536D01*
X213729Y66562D01*
X213685Y66595D01*
X213630Y66628D01*
X213564Y66661D01*
X213486Y66691D01*
X213398Y66713D01*
X213383D01*
X213368Y66716D01*
X213350D01*
X213324Y66720D01*
X213295D01*
X213258Y66724D01*
X213158D01*
X213100Y66727D01*
X213030D01*
X212949Y66731D01*
D02*
G37*
G36*
X234708Y211678D02*
X233606D01*
Y210385D01*
X234483D01*
X234542Y210389D01*
X234682D01*
X234759Y210392D01*
X234918Y210400D01*
X234995Y210403D01*
X235068Y210411D01*
X235135Y210418D01*
X235197Y210425D01*
X235249Y210433D01*
X235289Y210444D01*
X235293D01*
X235297Y210448D01*
X235319Y210455D01*
X235352Y210473D01*
X235396Y210495D01*
X235440Y210525D01*
X235488Y210562D01*
X235536Y210606D01*
X235577Y210661D01*
X235580Y210669D01*
X235595Y210691D01*
X235610Y210724D01*
X235632Y210768D01*
X235650Y210823D01*
X235669Y210889D01*
X235680Y210963D01*
X235683Y211044D01*
Y211048D01*
Y211055D01*
Y211070D01*
X235680Y211088D01*
Y211110D01*
X235676Y211133D01*
X235665Y211192D01*
X235650Y211258D01*
X235625Y211328D01*
X235592Y211394D01*
X235544Y211457D01*
Y211460D01*
X235536Y211464D01*
X235518Y211482D01*
X235488Y211508D01*
X235444Y211541D01*
X235389Y211574D01*
X235323Y211608D01*
X235245Y211637D01*
X235157Y211659D01*
X235142D01*
X235127Y211663D01*
X235109D01*
X235083Y211667D01*
X235054D01*
X235017Y211670D01*
X234918D01*
X234858Y211674D01*
X234789D01*
X234708Y211678D01*
D02*
G37*
G36*
X247888Y79178D02*
X247313D01*
Y75804D01*
X248190D01*
X248230Y75808D01*
X248274D01*
X248322Y75811D01*
X248426Y75815D01*
X248529Y75826D01*
X248624Y75837D01*
X248669Y75844D01*
X248705Y75852D01*
X248709D01*
X248717Y75855D01*
X248731Y75859D01*
X248746Y75863D01*
X248768Y75870D01*
X248794Y75881D01*
X248853Y75903D01*
X248919Y75929D01*
X248985Y75966D01*
X249055Y76010D01*
X249122Y76062D01*
X249125Y76066D01*
X249129Y76069D01*
X249136Y76076D01*
X249151Y76091D01*
X249162Y76106D01*
X249181Y76128D01*
X249199Y76150D01*
X249217Y76180D01*
X249240Y76213D01*
X249262Y76250D01*
X249284Y76290D01*
X249306Y76334D01*
X249328Y76382D01*
X249350Y76437D01*
X249372Y76493D01*
X249391Y76555D01*
Y76559D01*
X249394Y76570D01*
X249401Y76592D01*
X249409Y76618D01*
X249416Y76651D01*
X249424Y76695D01*
X249435Y76743D01*
X249446Y76802D01*
X249453Y76865D01*
X249464Y76935D01*
X249471Y77008D01*
X249483Y77093D01*
X249486Y77181D01*
X249494Y77277D01*
X249497Y77380D01*
Y77487D01*
Y77495D01*
Y77513D01*
Y77542D01*
Y77583D01*
X249494Y77634D01*
Y77690D01*
X249490Y77752D01*
X249483Y77822D01*
X249479Y77892D01*
X249471Y77966D01*
X249453Y78117D01*
X249438Y78190D01*
X249427Y78264D01*
X249409Y78330D01*
X249391Y78393D01*
Y78397D01*
X249387Y78408D01*
X249379Y78423D01*
X249372Y78445D01*
X249361Y78471D01*
X249346Y78504D01*
X249317Y78574D01*
X249273Y78655D01*
X249225Y78736D01*
X249166Y78813D01*
X249100Y78887D01*
X249096Y78890D01*
X249092Y78894D01*
X249081Y78905D01*
X249066Y78916D01*
X249048Y78931D01*
X249026Y78946D01*
X248971Y78982D01*
X248901Y79023D01*
X248820Y79063D01*
X248724Y79097D01*
X248621Y79126D01*
X248617D01*
X248610Y79130D01*
X248595D01*
X248577Y79133D01*
X248551Y79137D01*
X248518Y79141D01*
X248481Y79148D01*
X248433Y79152D01*
X248381Y79156D01*
X248319Y79163D01*
X248249Y79166D01*
X248171Y79170D01*
X248087Y79174D01*
X247991D01*
X247888Y79178D01*
D02*
G37*
%LPD*%
D10*
X244500Y196000D02*
G03*
X244500Y196000I-500J0D01*
G01*
D11*
X258342Y67333D02*
G03*
X252462Y63282I4162J-12333D01*
G01*
X258321Y67481D02*
G03*
X241462Y67333I-8321J-12481D01*
G01*
X252658Y46718D02*
G03*
X258538Y42667I10042J8282D01*
G01*
X241679Y42519D02*
G03*
X258538Y42667I8321J12481D01*
G01*
X254803Y69000D02*
X255803Y68000D01*
X254803Y66000D02*
Y69000D01*
X253803Y65000D02*
Y69000D01*
X252462Y63282D02*
Y68658D01*
X252658Y41342D02*
Y46718D01*
X254000Y41000D02*
Y45000D01*
X255000Y41000D02*
Y44000D01*
Y41000D02*
X256000Y42000D01*
M02*
