M48
;Layer_Color=9474304
;FILE_FORMAT=2:5
INCH,LZ
;TYPE=PLATED
T01F00S00C0.00787
T03F00S00C0.03937
T04F00S00C0.04000
;TYPE=NON_PLATED
T05F00S00C0.03900
%
T01
X0080709Y0021654
X008063Y0069882
X0093307Y0066831
X0093504Y0079724
X0089488Y007874
X0102362Y0082677
X0110236
X0116142
X0124016Y0076772
Y0070866
Y0064961
T03
X0093425Y0021654
X0103425
T04
X0124016Y0005512
Y0015512
Y0025512
Y0035512
Y0045512
Y0055512
T05
X0081177Y0061929
X0089177
X0085177Y0081929
M30
